<?xml version="1.0" standalone="no"?>
<!DOCTYPE svg PUBLIC "-//W3C//DTD SVG 1.1//EN" "http://www.w3.org/Graphics/SVG/1.1/DTD/svg11.dtd" >
<svg xmlns="http://www.w3.org/2000/svg" xmlns:xlink="http://www.w3.org/1999/xlink" version="1.1">
<metadata>
Created by FontForge 20150318 at Tue Nov 10 13:26:01 2015
 By uniteet7
Copyright (c) 2009 by Floodfonts, designed by Felix Braden. All rights reserved.
</metadata>
<defs>
<font id="Pirates_Blackbeard" horiz-adv-x="420" >
  <font-face 
    font-family="Pirates_Blackbeard"
    font-weight="400"
    font-stretch="normal"
    units-per-em="1000"
    panose-1="2 0 5 6 9 0 0 2 0 4"
    ascent="700"
    descent="-300"
    x-height="508"
    cap-height="562"
    bbox="-30 -242.903 930 831"
    underline-thickness="20"
    underline-position="-113"
    unicode-range="U+000D-203A"
  />
<missing-glyph horiz-adv-x="250" 
 />
    <glyph glyph-name=".notdef" horiz-adv-x="250" 
 />
    <glyph glyph-name=".null" horiz-adv-x="0" 
 />
    <glyph glyph-name="nonmarkingreturn" unicode="&#xd;" horiz-adv-x="250" 
 />
    <glyph glyph-name="NULL" horiz-adv-x="0" 
 />
    <glyph glyph-name="NULL" horiz-adv-x="0" 
 />
    <glyph glyph-name="space" unicode=" " horiz-adv-x="250" 
 />
    <glyph glyph-name="exclam" unicode="!" horiz-adv-x="287" 
d="M225 37q0 -4 1 -10.5t1 -13.5t-2.5 -12t-9.5 -6q-28 3 -52 -1t-53 -2q-6 8 -3 15t0 15q-11 4 -22 3t-22 3q-6 43 3 85q6 3 11 2t9.5 -3.5t9 -3.5t9.5 2q-2 -8 0.5 -10.5t6.5 -2.5h9t9 -2q8 3 5 10t-2 12q-3 6 -6 6t-6 -1.5t-6 -2.5t-6 4q-1 8 1 17.5t-3 15.5
q-11 5 -21.5 2t-19.5 0q-2 60 -0.5 127.5t1.5 123.5l6 4l-7 9l3 95q5 9 13.5 6t14.5 -3l86 -1l4 -4q-5 -60 -2.5 -115t0.5 -111l31 -1q-4 -22 0 -45t2 -45q2 -15 2 -32.5t3 -33.5q-3 -8 -9 -8.5t-14 0.5t-16.5 0.5t-14.5 -7.5q-5 3 -11 5t-12 0q-10 1 -8.5 -7.5t1.5 -12.5
q8 -8 15.5 -6.5t17.5 -0.5l3.5 3.5t4.5 1.5l2 -2q7 4 16.5 1.5t14.5 8.5q7 -7 9 -16t2 -18t-0.5 -18.5t1.5 -18.5z" />
    <glyph glyph-name="quotedbl" unicode="&#x22;" horiz-adv-x="392" 
d="M225 415q-2 4 0.5 6.5t-2.5 1.5q1 23 0.5 44.5t3.5 44.5l2 5l3 -1q0 16 -4 28l4 5q17 1 28 1.5t21 1t21 1t28 0.5l5 -7q1 -10 1 -29t-1 -39.5t-2.5 -37.5t-3.5 -22q-2 -10 -3 -13t4 -8q-4 -10 -3 -21.5t2 -22.5t-1 -22t-11 -20q-12 -3 -24.5 -2t-25.5 3t-26 3t-25 -2z
M173 402q2 -23 1 -44.5t-2 -44.5l-115 4l-1 5q-1 23 2 44.5t5 44.5q4 -1 -1.5 1.5t-2.5 6.5q0 4 0.5 7.5t0.5 8.5q-1 9 -1.5 22.5t-0.5 30t0.5 34t0.5 33.5q9 3 12.5 2.5t6.5 -2t7 -2.5t13 1l26 -2q7 0 23.5 0.5t23.5 0.5q6 2 5 -2t-4 -10.5t-5.5 -14.5t1.5 -14l2 -1
q-4 -25 -3 -45.5t6 -42.5q-5 -4 -3 -7t3 -14z" />
    <glyph glyph-name="ampersand" unicode="&#x26;" horiz-adv-x="426" 
d="M394 305q-1 -14 -1.5 -20.5t-0.5 -11.5t-0.5 -11.5t-0.5 -20.5l-66 -4q-3 -6 -4 -17q-1 -9 -0.5 -22.5t3.5 -32.5q-3 -12 -3 -19.5t1 -14.5t2 -14.5t0 -19.5q2 -14 12.5 -15t21.5 -0.5t18.5 -2t3.5 -18.5q-1 -17 1.5 -31t0.5 -31l-3 -2q-23 -2 -48 -3t-48 0
q-14 4 -21.5 8t-18.5 15q-33 -27 -76 -28q-51 0 -91 35q-10 13 -16 28q-7 10 -10 22.5t-4 25.5t-1 25.5v23.5q1 4 1 9v10q5 4 4.5 14.5t-1.5 16.5q4 1 8 0t6 3q-6 23 -6.5 47t1.5 46q-5 14 -4 31t-1 31l25 7q1 33 -2 64t5 63q5 18 17 31.5t27 23t32.5 15.5t33.5 8
q38 2 73.5 -10t52.5 -48q4 -8 5.5 -17.5t4.5 -17.5q-2 -17 0 -33t-1 -33l-81 -4l-8 3q-2 9 -1.5 19t0.5 20t-3.5 18.5t-12.5 15.5q-8 3 -15.5 3.5t-14.5 -4.5q-12 -3 -14 -13t-7 -19q-1 -20 1.5 -40t2.5 -40q-2 -5 -7.5 -7t-11 -3.5t-8.5 -2t-1 -0.5q2 -9 1.5 -17.5
t4.5 -14.5q22 -1 43 -0.5t43 0.5l1 24l89 5v-29q14 0 21 -0.5t12 -1t11.5 -1t20.5 -1.5zM204 240h-21t-20 1h-5l-6 -6q-7 -16 0 -29l-10 -2l3 -22q8 -11 10.5 -17.5t2.5 -13t-1 -14.5t1 -21q-2 -8 -1 -18.5t7 -15.5q6 -6 16.5 -9t20.5 -4.5t17 -2l7 -0.5q-3 13 -3 23.5
t0.5 21t0.5 23t-3 30.5q4 3 0 6t-2 8q-2 19 -1 31t3 19q3 8 7 12h-23z" />
    <glyph glyph-name="quotesingle" unicode="'" horiz-adv-x="232" 
d="M173 402q2 -23 1 -44.5t-2 -44.5l-115 4l-1 5q-1 23 2 44.5t5 44.5q4 -1 -1.5 1.5t-2.5 6.5q0 4 0.5 7.5t0.5 8.5q-1 9 -1.5 22.5t-0.5 30t0.5 34t0.5 33.5q9 3 12.5 2.5t6.5 -2t7 -2.5t13 1l26 -2q7 0 23.5 0.5t23.5 0.5q6 2 5 -2t-4 -10.5t-5.5 -14.5t1.5 -14l2 -1
q-4 -25 -3 -45.5t6 -42.5q-5 -4 -3 -7t3 -14z" />
    <glyph glyph-name="parenleft" unicode="(" horiz-adv-x="274" 
d="M276 614q2 -17 -1 -31.5t-1 -30.5q4 -17 -3.5 -19.5t-18.5 -1.5t-21.5 -0.5t-13.5 -15.5q1 -12 -0.5 -23.5t-3 -23.5t-2 -24t2.5 -24q-3 -20 -4 -41.5t-3 -42.5q0 6 -4 -10t-11 -42q0 -12 -2.5 -23.5t-0.5 -25.5l-3 -3q-3 -20 -2.5 -38.5t-7.5 -36.5q4 -8 1.5 -16.5
t-2.5 -18.5q-1 -9 0 -16t3 -17q4 -8 14 -9.5t19.5 -2t15 -4t1.5 -16.5q-4 -16 -2 -34.5t-5 -35.5q-21 3 -45.5 3.5t-47 5t-40.5 16t-25 37.5q-5 45 2 89.5t12 91.5q-1 27 3.5 50t5.5 51l5 36q-3 3 -8 3.5t-9.5 1t-7.5 2.5t-1 8q-2 41 0.5 80.5t0.5 77.5q2 6 2 13t8 9h21.5
t21.5 -1q2 7 4.5 14t5.5 14q21 21 47 30q23 0 48.5 -0.5t48.5 -2.5l3 -2v0z" />
    <glyph glyph-name="parenright" unicode=")" horiz-adv-x="274" 
d="M200 264q-1 -14 -2 -26.5t-1 -24.5q0 -40 0.5 -78t-0.5 -68q-2 -16 -10 -31.5t-22 -20.5q-5 -5 -11 -8t-12 -5q-8 -2 -16 -1t-16 -3q-12 2 -25 2.5t-24 6.5q-8 -2 -15 4t-15 6l-7 8q-1 19 -1.5 33t0.5 34q2 3 6 2.5t7.5 -0.5t5.5 1.5t2 7.5q2 -1 4.5 0.5t4.5 -3.5
q14 -2 29 -1t23 18q1 2 1 6q-8 26 -5 42.5t0 22.5q2 21 0.5 42t-2.5 42q0 -1 -2 4t-4.5 14t-3.5 21t1 25q0 11 1.5 23t-2.5 26l3 3q0 20 -2 38.5t3 36.5q-5 8 -3 16.5t1 19.5q-1 15 -7 32q-5 8 -15 8h-19.5t-15.5 3t-2 16q2 16 -2 34.5t1 35.5q21 -1 45.5 1t47 0.5
t41.5 -11.5t30 -35q9 -44 6.5 -89.5t-2.5 -92.5q4 -26 2 -49.5t0 -51.5z" />
    <glyph glyph-name="comma" unicode="," horiz-adv-x="241" 
d="M185 120q2 -23 0 -44.5t-4 -44.5q-8 1 -14 -6q-2 -13 -0.5 -27t1.5 -27.5t-2.5 -25.5t-11.5 -22q-12 4 -24.5 4t-24.5 -1t-23.5 -1t-22.5 4q-9 10 -10 20.5t1 22t4 22.5t-1 22q5 5 12.5 7t5.5 12q-4 23 -3 45t1 45h114l2 -5v0z" />
    <glyph glyph-name="hyphen" unicode="-" horiz-adv-x="419" 
d="M386 302q5 -6 3 -15t0 -14v-82q-7 -6 -17.5 -4.5t-18.5 -0.5q-30 0 -42.5 1.5t-22 3t-23 2.5t-43.5 1q-2 -2 -2 -5t-1 -5q-29 0 -49.5 -1.5t-38.5 -4t-38 -4t-49 -1.5q-7 1 -14 12v87q1 5 0.5 14t7.5 11q14 -2 28 1.5t26 -1.5q18 -1 29.5 -0.5t22.5 1.5t23.5 1.5
t30.5 0.5l1 1l2 4q6 0 18 -0.5t25 -1.5t25 -2t18 -1q28 2 52.5 2h46.5q-11 1 -14.5 1.5t11.5 0.5q1 0 3 -2q7 0 15 -0.5t13 -0.5t4.5 0h-10.5z" />
    <glyph glyph-name="period" unicode="." horiz-adv-x="282" 
d="M218 0q-32 -11 -66.5 -14.5t-68.5 -8.5q-9 25 -10.5 52.5t-8.5 53.5l4 8q33 5 66 9t67 8l5 -4q-2 -26 4.5 -51.5t7.5 -52.5z" />
    <glyph glyph-name="zero" unicode="0" horiz-adv-x="530" 
d="M453 420q24 -36 34.5 -78t9 -85t-15 -84.5t-36.5 -76.5q-32 -36 -71 -62.5t-86 -33.5q-23 6 -45.5 6t-45.5 3q-45 8 -86 27.5t-66 61.5q-13 32 -18 66.5t-5 70t4.5 71.5t10.5 72q5 16 9 31.5t15 29.5q2 12 9 21t11 20q21 25 47.5 40.5t56.5 23t61.5 9t63.5 0.5
q1 -8 -1 -17t-1 -19q42 -14 80.5 -35.5t64.5 -61.5zM359 276q-2 31 -14.5 59.5t-44.5 42.5q1 15 3 29.5t-1 30.5q-14 -2 -29.5 -1.5t-30 -2t-26.5 -9t-20 -21.5q-10 -8 -14.5 -20t-7 -25.5t-3 -27t-2.5 -24.5q-12 -76 5 -150q16 -30 47 -37t63 -8q4 3 4.5 7t0.5 8.5t0.5 9
t4.5 7.5q19 9 31.5 23.5t20.5 32t11 37.5t2 39z" />
    <glyph glyph-name="one" unicode="1" horiz-adv-x="299" 
d="M269 120q-1 -32 -1 -61.5t-3 -58.5l-4 -4q-37 -1 -75 -1q-33 0 -72 1t-75 4l-2 14q2 29 2 56.5t1 55.5q8 1 11 1h5t5 0.5t11 2.5q1 17 0.5 30.5t-1.5 26.5t-2 27t-1 31q11 2 22.5 2t19.5 7q-2 22 -3 43.5t-4 41.5q3 12 4 18.5t0.5 11.5t-1 11.5t0.5 18.5
q-3 14 -13.5 15.5t-21.5 0.5t-18.5 1.5t-3.5 19.5q2 16 -1 30.5t-1 30.5l3 3q11 1 22.5 1.5t22.5 0.5q9 15 19 35q3 3 6 7.5t7 8.5t8.5 4.5t10.5 -5.5q16 2 31.5 3t32.5 2l4 15q4 -2 9 1t9 -4q2 -54 2 -80.5v-38.5q0 -14 -1 -14l-28 6q4 -17 3.5 -28t-2 -21t-2 -22t2.5 -31
q-5 -4 -1 -7t2 -7q2 -19 2.5 -36.5t2.5 -34.5h6q-1 -20 -0.5 -34.5t2 -28.5t2 -28.5t-0.5 -33.5q16 -8 29 -8q6 0 10 1h1q1 0 1 0.5t1 0.5l4 -4v0z" />
    <glyph glyph-name="two" unicode="2" horiz-adv-x="452" 
d="M391 300q-13 -31 -41 -50t-58 -23q-8 -2 -15.5 -3t-13.5 3q-8 -5 -10.5 -3t-3.5 6.5t-2.5 10t-7.5 6.5q1 8 -4.5 11.5t-4.5 11.5q-11 14 -20 31t-19 33q4 2 5.5 0t3.5 -4l4 4l28 -1q4 0 8.5 2.5t7.5 -3.5q1 0 1 4q12 0 24.5 3t23.5 11q11 11 12.5 27.5t-2.5 31.5
q-9 21 -24 28.5t-34 8t-38.5 -2t-37.5 -0.5q-1 28 -2.5 54t-2.5 53q24 1 52.5 3.5t56 -0.5t52 -14.5t41.5 -38.5q17 -21 26 -45.5t11 -51t-2 -53t-14 -50.5zM416 2q-20 -3 -42 -2t-44 1l-171 -1q-8 5 -15.5 1.5t-16.5 0.5q-3 -2 -8.5 -3.5t-3.5 -6.5q-2 -5 0.5 -10t-5.5 -7
l-75 1l-3 3q0 26 -0.5 58t1.5 60q7 3 18 2t19 1q-2 4 -6 7.5l-8 7t-7.5 7.5t-3.5 9q-15 16 -13 38q7 2 5 6t-2 8q-5 5 -4.5 11.5t2.5 12.5q2 17 1 32t9 29q6 18 18 37.5t35 29.5q9 11 24 15.5t31 6.5q5 -6 6.5 -14t9.5 -14q0 -2 7 -16t14.5 -30.5t12.5 -29t2 -10.5
q-20 0 -37.5 -5.5t-28.5 -20.5q-5 -17 -10 -32.5t3 -32.5q-8 -2 -13.5 -5.5t-9.5 -11.5q0 -8 3.5 -16t14.5 -11q5 -5 11.5 -4.5t12.5 -1.5q15 1 39.5 0.5t51.5 -1t52 -0.5t40 2q3 3 2.5 7t-0.5 8.5t2 7.5t8 4h68l5 -6z" />
    <glyph glyph-name="three" unicode="3" horiz-adv-x="441" 
d="M371 449q1 -23 -0.5 -51t-2.5 -50l-3 -3q-1 -21 -1 -37.5t-0.5 -32t-1.5 -31.5t-4 -37l-4 -3q5 -11 4.5 -26.5t-1.5 -27.5q3 -36 -7 -68t-36 -58q-19 -14 -41.5 -21t-44.5 -12q-24 0 -50 3t-49.5 11t-43 23t-32.5 39q-10 18 -14 37.5t-5 39.5t0.5 40t3.5 40
q24 -2 52.5 -2.5t54.5 -3.5q2 -15 0 -33t-1 -35.5t7 -32.5t23 -24q13 -2 26.5 -3.5t24.5 6.5q12 9 17 22t5.5 27t-0.5 29t-1 28q2 2 7 0.5t7 3.5q1 6 1 10v7.5v7.5t2 11l-7 5h-56q-1 23 -0.5 41.5t1.5 40.5q17 2 31.5 -0.5t31.5 0.5q5 11 4.5 24.5t1.5 26.5q0 18 1.5 38
t-6.5 38q-8 8 -19 11.5t-23 -0.5q-5 -1 -9 -4t-7 -7q-2 3 -2 7t1 7.5t0.5 7t-4.5 6.5q-12 -1 -26 -6q0 -10 -1 -15q-8 0 -12 -6q-2 -11 -1 -23t1.5 -24t-2 -22.5t-9.5 -19.5q-11 4 -21.5 4t-21 -1t-20.5 -1t-20 3q-8 9 -8.5 18.5t1 19.5l3 20t-1.5 19q5 3 11.5 5.5t4.5 10.5
q-2 10 -2.5 15t-1.5 8.5t-1 7.5v14q13 8 21 7t13 -5t8 -13q12 10 25.5 17t27.5 13l10 11v-8q8 2 14.5 3.5t14.5 3.5q2 3 1 7t2 7q34 6 68 -2.5t61 -30.5q11 -14 20 -31t11 -36l-3 -3zM104 423q0 -1 0.5 0t0.5 3z" />
    <glyph glyph-name="four" unicode="4" horiz-adv-x="515" 
d="M469 2q-21 0 -31 -0.5t-14.5 -1t-6 -1t-5 -1t-12.5 -1.5t-29 -1q-19 0 -32 -1t-24.5 -2t-24 -1t-30.5 2q-9 3 -18 1.5t-17 -2.5t-16 0t-15 7l1 102l7 8l63 -3l5 5v46q-69 -2 -136 -3t-139 -1q-5 22 -3.5 45t1.5 43q-3 15 4 29t18 26t24.5 22.5t22.5 19.5q11 6 18.5 13.5
l14.5 14.5t15.5 12t20.5 6l-1 2q4 5 9 9.5t12 4.5q5 7 15.5 13.5t6.5 15.5q-2 1 6 7.5t21 15.5t28.5 19.5t28.5 18.5l7 56l5 4q32 -4 62.5 -8t62.5 -9q0 -48 -6 -95.5t-11 -93.5q5 -5 11.5 -5t10.5 -4q-1 -14 -1.5 -27.5t-0.5 -26.5h55l3 -3l3 -104l-3 -13l-50 -1
q0 -7 -0.5 -13t-1 -14t-0.5 -19t1 -28l4 -3l38 1q-1 -3 1.5 -2.5t6 2t7 2t5.5 -1.5q0 -10 2.5 -21.5t4.5 -22.5t2 -21.5t-6 -17.5zM272 377l-30 -26t-30 -25q-4 -2 -12.5 -10.5t-17 -19t-15.5 -21t-9 -16.5q27 2 56 3l58 2v113z" />
    <glyph glyph-name="five" unicode="5" horiz-adv-x="460" 
d="M448 127q-5 -32 -17.5 -59.5t-37.5 -47.5q-45 -29 -96 -30.5t-100 14.5q-7 3 -13 5.5t-14 4.5l-5 -13q-22 -1 -43.5 0t-41.5 4l-3 5q-3 31 0 61t2 62l3 4q15 -1 29 0t27.5 -0.5t25.5 -8.5t21 -24q13 -9 29 -16t33 -9.5t33.5 0.5t30.5 14q8 6 10.5 15t4.5 17q2 16 -9 26.5
t-22 16.5q-5 -2 -8 2.5t-8 2.5q-32 13 -68 17.5t-68 18.5q-20 9 -40.5 19.5t-32.5 33.5l11 6q-11 -2 -11 -5q-4 17 -5 29.5t-1.5 24.5t-1 25t-2.5 30q0 7 -1.5 14t-3 13.5t-2 12.5t3.5 12l-10 7l-2 58q-11 6 -27 3t-28 0q-5 9 -3.5 23.5t-1.5 24.5l4 5l49 4q99 7 189 5.5
t187 -2.5q5 -15 2 -35.5t1 -37.5q-2 -6 0.5 -13.5t-2.5 -12.5q-22 -2 -43.5 0t-42.5 -1l-3 3q-2 11 -1 22t-6 18q-32 1 -62.5 1h-63.5q-5 -2 -12 -1t-14 1t-12 -2.5t-7 -10.5q5 -14 3.5 -29t0.5 -31q-5 -11 -2 -14.5t9 -4t13 -0.5t10 -5q3 -12 4.5 -29.5t2.5 -31.5v-2
l20 -10t21 -10q-1 -7 -4 -14t-7 -15q5 -3 10.5 -6t10.5 -7q6 -4 10 0t9 6q6 -6 14 -9t16 -5.5t15 -7t10 -13.5q0 -2 -0.5 -3t-0.5 -3q18 4 33.5 6.5t27 2.5t18 -3t5.5 -10q25 -19 38.5 -46.5t12.5 -61.5z" />
    <glyph glyph-name="six" unicode="6" horiz-adv-x="510" 
d="M473 248q15 -40 14.5 -85t-14.5 -84q-11 -32 -36 -51t-52 -24q-4 0 -10 -2q0 -3 -1 -2q-66 -1 -129.5 0.5t-126.5 3.5q-18 4 -36 15t-23 31q-11 15 -14 35q-3 12 -1.5 23t-2.5 23q3 17 3.5 35.5t7.5 34.5q-1 4 -0.5 6.5t1.5 5.5h-9q2 36 -1 75t-1.5 76t12 69.5t39.5 56.5
t63.5 33.5t67.5 20.5q56 8 112.5 0.5t107.5 -27.5q-8 -23 -19 -45t-22 -45q-55 24 -119.5 21t-116.5 -32q-14 -11 -17 -29t-2 -35q3 -5 8.5 -5t8.5 2q27 14 58 23t63.5 9.5t63 -7t56.5 -26.5q16 -3 23.5 -17.5t21.5 -24.5q5 -14 13.5 -28.5t8.5 -29.5zM398 190
q-5 16 -13.5 24t-19.5 11q-2 0 -2.5 0.5t-1.5 0.5q-2 1 -7 1q-2 10 -2 22q-11 18 -28.5 29t-35.5 13q-38 5 -73.5 -5t-61.5 -43v-13.5t10 -4.5q-2 -4 -0.5 -7.5t-3.5 -5.5q-1 -10 -2 -21.5t0.5 -22t6 -19t13.5 -14.5q15 -4 34.5 -4.5t40.5 0t41.5 0.5t35.5 -3q2 -4 2.5 -7.5
t2.5 -7.5q3 1 6.5 2.5t5.5 -3.5q1 0 1 4q11 0 22.5 3t20.5 11q9 12 10.5 28.5t-2.5 31.5z" />
    <glyph glyph-name="seven" unicode="7" horiz-adv-x="486" 
d="M458 407q-19 -21 -41.5 -49.5t-46 -59t-46.5 -61t-44 -55.5q-1 -18 -1.5 -36.5t-1.5 -39.5t-2 -47.5t-2 -60.5l-13 -2l-113 2l-3 4q-1 66 0 125.5t4 121.5q-3 -2 4 12t16.5 31t17.5 30t7 10q17 0 34.5 1t35.5 -1q6 5 16 8q17 27 37 49.5t35 51.5q-3 5 -8 5.5t-9.5 0
t-8 0.5t-5.5 8q-11 -3 -25 -3t-26 -1q-15 4 -31.5 2.5t-30.5 -3.5q-42 0 -83.5 -6.5t-78.5 -17.5q-8 -4 -13 -11t-13 -12q-7 13 -5 28t-3 28q-10 9 -11 22t-0.5 26.5t-1 25.5t-12.5 20q-2 6 -3.5 11.5t-1.5 12.5q7 5 13.5 0.5t12.5 -7.5q41 -5 80.5 -8.5t80.5 -5.5
q10 2 20 2t19.5 1.5t18 5.5t16.5 13q12 -12 24.5 -15.5t26 -4t27.5 0t27 -3.5q17 1 32.5 -0.5t32.5 -2.5l6 -8q9 -35 20 -68.5t20 -68.5z" />
    <glyph glyph-name="eight" unicode="8" horiz-adv-x="433" 
d="M278 393q1 -2 4 -2v2h-4zM260 392q-12 3 -25 1.5t-26 3.5q-2 15 -1 29.5t1 29t-2.5 28.5t-11.5 28q-8 7 -20.5 7t-20.5 -5q-2 -5 -5.5 -11t-4.5 -11q-4 -23 -1.5 -45.5t2.5 -45.5q-2 -5 -6.5 -5t-9.5 1q-5 -3 -2 -9t4 -11q10 -11 21.5 -18.5t25.5 -8.5q8 -5 17.5 -2.5
t17.5 -4.5q10 0 20 0.5t21 1.5zM241 218q1 5 2.5 11t-3.5 11q-22 6 -47 7t-48 -1v11q-10 3 -19.5 4.5t-18.5 4.5q-18 6 -33 20.5t-19 34.5q-4 16 -1 29q4 2 8 2t7 2q-5 6 -3.5 15.5t-0.5 17.5q-2 15 1 30t0 29l3 3q-4 5 -2 8t1 8q0 16 4.5 31t16.5 28q4 11 14.5 15t18.5 11
q12 3 24.5 3.5t27.5 -0.5q18 3 34.5 -4.5t31.5 -15.5q4 -7 9 -10.5t10 -7.5q7 8 7 17.5v19.5q32 0 59.5 0.5t59.5 -1.5l6 -6q-2 -29 -1 -57.5t-1 -55.5q-1 -13 -1.5 -25t0.5 -24q3 -5 2.5 -10t-2 -10t-2 -10t1.5 -9q3 0 -1.5 -0.5t-12 -0.5h-17h-15.5q-2 -10 -1.5 -20.5
t0 -21t-3.5 -19.5t-12 -16q-4 -3 -12.5 -3.5t-5.5 -10.5q17 -20 26.5 -43.5t14.5 -49.5q3 -2 7 -1t7 -1q6 -35 -3 -69t-30 -61q-15 -11 -31.5 -20t-35.5 -10l-3 2l-2 -2q-17 -2 -37 0q-6 -2 -11 -3t-12 -2t-18.5 -0.5t-32.5 2.5l-44 7q-18 8 -36.5 18.5t-25.5 32.5
q-8 11 -9.5 24t-5.5 25q1 19 2.5 39t7 38t16.5 32.5t31 22.5q13 7 27 9.5t28 2.5q-6 -2 -9 -7t-9 -5q-14 -11 -15.5 -25.5t-5.5 -31.5q1 -3 4 -6.5t-1 -6.5q2 -8 4.5 -15t10.5 -10q29 -6 55.5 -7t56.5 -9l3 1q1 23 3.5 46.5t6.5 48.5zM145 244q-3 1 -8 1h1l7 1v-2z" />
    <glyph glyph-name="nine" unicode="9" horiz-adv-x="441" 
d="M393 440q-8 -6 -16.5 -7.5t-15.5 -9.5v-82.5t-0.5 -92.5t-1.5 -92t-2 -81q-4 -20 -15 -40.5t-31 -26.5q-14 -11 -34 -16q-11 -3 -22 -1.5t-22 -2.5q-17 3 -35.5 3.5t-34.5 8.5q-6 -1 -11 1t-10 5t-10 5.5t-11 2.5l-10 10q0 24 -0.5 43t1.5 45q3 3 8 2.5l10 -1t8.5 1.5
t2.5 10q3 -1 6.5 0.5t5.5 -4.5q20 -3 42 -2t33 22q3 14 4 40t1 56q-42 -9 -85.5 -2t-76.5 34q-27 17 -38.5 41.5t-14.5 52.5t-0.5 56.5t3.5 52.5q15 -1 29.5 -2t29.5 -2q-3 6 -5.5 10.5t-4.5 8.5q-4 -4 -5 -1q-2 8 0 7.5t5 -6.5q4 3 8.5 10t8.5 13t7.5 9.5t4.5 0.5
q10 3 17 14t18 11q18 14 44 14q2 -7 6.5 -5.5t9.5 1.5q6 5 13 4.5t15 -1.5q18 -3 35.5 -2t33.5 -9q21 -6 43.5 -18t33.5 -35q13 -9 18 -23.5t7 -30.5zM245 444q-3 2 -6 4.5t-6 4.5q-19 5 -37 10t-38 -3q-2 8 -6 14t-13 9q-9 1 -17.5 -2.5t-13.5 -13.5l19 -1
q2 -18 -0.5 -37.5t-1.5 -38.5t8.5 -34t28.5 -24q14 -4 30.5 -2.5t28.5 12.5q8 11 11 23.5t3 24.5q3 0 4 2q-7 2 -4 6.5t3 8.5l-2 28l4 4q-1 2 -3 3.5t-1 6.5q6 -4 9 -5z" />
    <glyph glyph-name="colon" unicode=":" horiz-adv-x="283" 
d="M207 421q-1 -31 -1.5 -56.5t-4.5 -54.5q-17 -5 -37 -2.5t-40 2.5q-4 -4 -3.5 -11t1.5 -12q8 -5 18.5 -3t19.5 -1q-20 -4 -38 -2t-35 11q-19 14 -31.5 35.5t-5.5 45.5q3 5 1.5 8t-0.5 8q6 9 12.5 18.5t15 17t19 12t23.5 2.5l3 -10q19 -5 42.5 -3t40.5 -5zM222 56
q-8 -5 -8.5 -13t-4.5 -16q-5 -4 -9 -9.5l-8 -11t-8.5 -9t-11.5 -4.5q-22 -11 -44 -8.5t-42 15.5q-23 15 -29 41t-1 49q5 24 24.5 38t41.5 21q11 0 22.5 -0.5t22.5 -3t19.5 -9t13.5 -18.5q-1 -5 3 -5.5t5 -4.5q1 -8 5 -14t7.5 -11t4.5 -11.5t-3 -15.5z" />
    <glyph glyph-name="semicolon" unicode=";" horiz-adv-x="265" 
d="M203 346q-5 -24 -24.5 -38t-41.5 -21q-11 1 -23 1.5t-23 3t-19.5 9t-13.5 18.5q1 5 -2.5 5t-4.5 5q-1 8 -5 13.5l-8 11t-5 12t4 15.5q8 4 8.5 12t4.5 16q10 8 16.5 20t20.5 14q22 11 44 8.5t42 -15.5q23 -14 29 -40.5t1 -49.5zM209 63q2 -23 0 -45l-4 -44q-10 0 -14 -7
q-2 -12 -0.5 -26t1.5 -27.5t-2.5 -26t-11.5 -22.5q-12 4 -24.5 4t-24.5 -1t-23.5 -1t-22.5 4q-9 10 -10 21t1 22t4 22.5t-1 22.5q5 4 12.5 6.5t5.5 12.5q-2 8 -2 16t-1 16q-11 1 -21.5 1.5t-19.5 4.5q2 30 2.5 55.5t3.5 54.5q9 3 10.5 3t2 -1t2.5 -2t12 -1q4 4 5 4.5t-1 5.5
q-4 2 -1 4.5t7 5t6.5 4.5t-1.5 4q20 4 38 2.5t35 -10.5q19 -14 31.5 -35.5t5.5 -46.5z" />
    <glyph glyph-name="question" unicode="?" horiz-adv-x="396" 
d="M388 422q2 -34 -11 -61.5t-38 -47.5q-50 -12 -72.5 -23.5t-30.5 -25t-9.5 -30t-9.5 -40.5q-7 7 -15 6.5t-13.5 -5t-7 -10.5t4.5 -9q-3 1 -11 2.5t-20 2t-28 -1t-36 -6.5q-3 25 -3 46.5t11 40.5q9 15 23 32t31 33t34.5 28.5t33.5 19.5q5 -2 7.5 2t7.5 3q11 7 22 17.5
t9 26.5q-3 8 -6 17t-11 14q-14 11 -30.5 14t-33 0.5t-32.5 -10t-29 -16.5q-9 -18 -21 -25t-25 -9t-27.5 -1t-28.5 0l-3 3q0 32 -3.5 62.5t-1.5 61.5l3 5q20 3 41.5 4.5t43.5 0.5l5 -13q14 3 27 11q48 17 99.5 16t97.5 -29q25 -19 38 -46.5t18 -59.5zM240 30q-8 -4 -8 -11.5
t-4 -15.5q-10 -7 -15.5 -17.5t-18.5 -12.5q-20 -11 -40.5 -8t-39.5 14q-22 14 -27.5 37.5t-0.5 44.5q5 22 23 34.5t38 18.5q10 0 21.5 -0.5t21 -2.5t17.5 -8t13 -17q-1 -5 2.5 -5t4.5 -4q1 -8 5 -13t7 -10t4 -10.5t-3 -13.5z" />
    <glyph glyph-name="at" unicode="@" horiz-adv-x="433" 
 />
    <glyph glyph-name="A" unicode="A" horiz-adv-x="652" 
d="M648 -4q-8 -2 -13.5 -1.5t-12.5 0.5q-13 11 -25.5 8t-25 -8.5t-25.5 -8.5t-26 7q-8 1 -14.5 -1t-13.5 -5t-14 -5t-15 0q1 11 5.5 21.5t4.5 21.5q-4 36 -12 76q-25 0 -36.5 1.5t-20.5 3t-22 2t-42 0.5q-2 -2 -2 -4.5t-1 -4.5q-38 0 -62.5 -3t-49.5 -5q-7 -17 -14.5 -33.5
t-12.5 -33.5t-6.5 -35t3.5 -36q-11 -2 -20.5 4.5t-18.5 12.5q-9 9 -18.5 11t-20 2t-20.5 1.5t-20 9.5q-6 12 -16 14.5t-21.5 3t-22 2t-18.5 12.5q2 3 5.5 4.5t6.5 3.5q37 38 61.5 83t47.5 92q5 9 5 21.5t-5 20.5q4 7 15.5 27.5t26.5 46.5q25 60 53.5 118t50.5 118
q37 2 75 -0.5t76 -0.5l9 -5q8 -22 17 -42t16 -43q10 -16 16 -34t12.5 -35.5t16 -33.5t26.5 -27q-6 -13 -5.5 -26t3.5 -26t7 -26.5t6 -26.5q40 -105 87 -207q6 -7 14 -14t6 -18zM526 206h10.5t-4.5 0h-13h-15h22zM435 206q-3 11 -6 21t-7 21q-6 19 -11.5 41t-15.5 40
q-5 17 -11.5 34.5t-8.5 34.5q-7 0 -10 4.5t-4.5 10.5t-4 12t-8.5 8q-21 -29 -33.5 -64t-30.5 -67q2 -26 -4.5 -51t-16.5 -49q11 1 23 2t30 1h1l2 4q6 0 17.5 -1t25 -1.5t25 -1t17.5 -0.5h15.5t15.5 1z" />
    <glyph glyph-name="B" unicode="B" horiz-adv-x="448" 
d="M411 132q1 -34 -13.5 -68.5t-48.5 -49.5q-12 -12 -30.5 -13.5t-33.5 -3.5l-146 -5l8 -30l-3 -3l-62 1q-2 33 -1 69.5t2 73.5t1.5 72.5t-0.5 67.5q-3 2 -7.5 1.5t-9 -0.5t-8.5 0.5t-7 4.5q3 11 -2 19t-3 19l-2 10t0 10l23 3q3 107 -3 209q2 4 1 12t-1.5 15t3 11.5
t14.5 1.5q29 -3 59.5 -1t60.5 3t58.5 -3t54.5 -18q10 -9 20 -18.5t15 -23.5q12 -17 17.5 -38t4.5 -42.5t-7.5 -42t-18.5 -37.5q-8 -6 -15.5 -13.5t-15.5 -12.5q16 -13 21.5 -32.5t5.5 -40.5l-4 -2t-2 -3q7 -2 16.5 0t19.5 0q5 -10 14 -18t8 -20q9 -14 12.5 -30.5t4.5 -33.5z
M253 436q-4 10 -11 14.5t-16 5t-18 0t-17 -0.5q2 -14 0 -30.5t0 -31.5q15 1 30.5 -1t26.5 8q5 8 7.5 18t-2.5 18zM251 230q-7 12 -21 10t-25 0l-5 -2.5t-5 -0.5q-6 4 -9.5 3t-6 -4.5l-5 -7t-6.5 -4.5q9 -2 17 1t16 1q14 4 25 2.5t25 1.5zM319 139q-4 11 -12 16t-17.5 6.5
t-20 1.5t-19.5 1q-3 0 -7 -2.5t-7 2.5q-2 -3 -4 -2.5t-4 1.5t-4 1t-3 -4q-7 4 -13 2t-13 -6q2 -15 0.5 -30.5t5.5 -29.5q11 0 24.5 -0.5t27 -0.5t26.5 1.5t23 4.5q10 5 14.5 16t2.5 22z" />
    <glyph glyph-name="C" unicode="C" horiz-adv-x="509" 
d="M487 484q-2 -13 -10 -23t-13 -22q-8 -7 -12.5 -15.5l-9 -17t-9.5 -17t-14 -14.5q-5 -2 -9 1t-7.5 7.5t-7 8.5t-7.5 5q-29 20 -63.5 28.5t-71.5 3.5l-11 39q-22 2 -39 -6.5t-33 -22.5q-29 -48 -33.5 -102t13.5 -110q9 2 17 6.5t18 2.5q-2 -42 12 -79t43 -63
q24 -22 50.5 -24.5t54 2.5t55.5 13t56 7q5 5 6 4q2 -24 9 -47t8 -49q-21 -5 -44 -8.5t-44 -5.5q-38 -5 -78.5 -11t-79.5 -2t-73.5 22.5t-58.5 63.5q-9 10 -12 22.5t-10 23.5q-2 8 -5 14.5t-5 14.5q-2 14 -5 28t-2 27q-3 4 -8 4t-8 -2q-5 -4 -14 -4q-5 15 -9.5 31t-7.5 33
q-6 39 -2.5 79.5t16.5 78t35.5 69t55.5 52.5t71 31.5t77.5 10.5t78 -9.5t72.5 -26.5q19 -10 36.5 -23.5t31.5 -28.5z" />
    <glyph glyph-name="D" unicode="D" horiz-adv-x="539" 
d="M495 191q-6 -6 -4 -13q-11 -23 -25.5 -44.5t-31.5 -37.5q-56 -50 -123 -54q-1 -7 0.5 -15t3.5 -16q17 0 33 5.5t33 7.5q-16 -18 -34.5 -26t-38.5 -11t-40.5 -3.5t-39.5 -3.5l-140 -8q-3 20 -3 37.5t-3 37.5q2 0 3 2t3 3q-10 47 -15 96q-9 31 -16 63t-11 64q6 0 12 -2
t11 0q1 12 -0.5 24.5t-2.5 25.5l-3 70l-5 5q-2 9 -1.5 19t0 19.5t-2.5 18.5t-9 16q-4 0 -10 0.5t-8 5.5q2 17 -1 35t5 32q8 2 17 -1.5t17 4.5q5 -6 10.5 -2t11.5 0q6 -1 13.5 2.5t13.5 -2.5q8 -3 15 -11t9 -19q5 -5 10 -0.5t10 3.5q18 17 38.5 27t41.5 12l5 -35
q5 -5 10.5 -2t10.5 5q30 7 65 5t61 -23q12 -2 20 -9.5t18 -15.5q28 -25 45 -59t25 -73t7 -79.5t-10 -79.5zM381 209q8 18 11 40t1.5 44t-7.5 43t-18 37q-12 12 -24.5 21t-28.5 11q-14 5 -27.5 -1.5t-25.5 -13.5q-3 5 -3.5 13t-1.5 15t-4 11.5t-12 2.5q-21 -5 -47 -4.5
t-46 -3.5q-1 -14 1 -29.5t0 -29.5q1 -15 2.5 -30.5t-0.5 -29.5q-15 2 -25 -14q6 -4 10.5 -8.5t6.5 -11.5q7 -33 10.5 -61t9.5 -59q1 -14 5 -27.5t6 -24.5q4 -3 6.5 1.5t6.5 -0.5q1 -4 1 -7.5t4 -5.5h48q8 3 16 3h16t15 2.5t13 10.5q1 17 -3.5 31.5t-4.5 31.5l3 3
q55 -9 86 40z" />
    <glyph glyph-name="E" unicode="E" horiz-adv-x="424" 
d="M397 552q1 -32 1 -70t-4 -73q-18 -1 -38 -2t-40 1q-8 4 -17.5 3.5t-17.5 4.5q0 17 2.5 34t-2.5 34q-21 -2 -41 0t-39 -3v-54t-2 -53l3 -2l82 -3q2 -6 2 -13t-4 -12q-38 4 -76.5 5.5t-78.5 8.5q-4 0 -6 5.5t-5 10.5t-7 7.5t-11 -2.5q0 -4 2.5 -6t5.5 -3.5t4.5 -3.5t0.5 -7
q-6 2 -13.5 1t-13.5 3q1 29 2.5 60.5t0.5 61.5q-6 4 -15 1.5t-15 4.5l3 66q42 1 86 0t82 -2q3 -1 6.5 -2t7.5 1h77.5t77.5 -2zM370 22q-14 -7 -30.5 -5t-30.5 -1q-59 -6 -118 -9.5t-118 -11.5q-9 6 -5.5 18.5t1.5 22.5q-4 15 -4 31.5t-2 32.5q-4 7 -10 4t-10 2q6 57 5.5 119
t4.5 119q68 -2 133.5 -5.5t133.5 -4.5q-1 -18 0 -40t-1 -42q-4 -5 -8 -2.5t-8 2.5q-7 3 -15 4t-16 0q-13 5 -26 0t-27 -7q-20 -9 -25 -23.5t-4.5 -31.5t2.5 -34.5t-2 -33.5l-12 -5q4 -4 4 -9.5t3 -9.5q29 -1 60 3t61 7q14 2 28.5 3t28.5 5q3 -9 4 -17.5t3 -17.5
q-1 -16 1.5 -32.5t-1.5 -30.5z" />
    <glyph glyph-name="F" unicode="F" horiz-adv-x="381" 
d="M399 545q-2 -7 -1.5 -15t1 -16.5t-0.5 -16t-5 -14.5q-12 -1 -25.5 -0.5t-26.5 3.5q-3 5 -2.5 12t-7.5 8q-42 3 -87 1.5t-84 3.5q-11 -2 -7.5 -10t1.5 -15q-2 -3 0.5 -5t4.5 -3h32q1 -11 -0.5 -19.5t3.5 -19.5l115 -1l3 -12l-3 -117l-4 -2q-29 -3 -56.5 1t-54.5 0
q-5 -10 -3 -16.5t0 -17.5q-1 -3 -4.5 -3.5l-7 -1t-5 -2t1.5 -5.5q-4 -14 -3.5 -27t-4.5 -26q0 -5 0.5 -10.5t-4.5 -8.5q5 -22 0 -43.5t-5 -44.5q0 -20 -3 -34.5t-4 -33.5l-3.5 -3.5t0.5 -4.5q6 -2 3 -6.5t-2 -8.5q-1 -9 -0.5 -20t-7.5 -19q-21 2 -43 4t-43 5q5 40 8 78.5
t8 75.5q7 33 6.5 69t7.5 70q-7 6 -16.5 4.5t-17.5 0.5q-2 51 -0.5 99t0.5 100q7 0 9.5 3.5t2.5 8.5t-0.5 10.5t0.5 10.5l-2 2q-12 2 -24 1t-21 4l3 39q91 0 186.5 -3t189.5 -6l3 -3v0z" />
    <glyph glyph-name="G" unicode="G" horiz-adv-x="443" 
d="M410 376q-2 -12 -2.5 -24.5t-9.5 -22.5q-7 -1 -12.5 2.5t-13.5 1.5l-5 -7q-16 -78 -32 -155t-31 -155q5 -6 12.5 -5t10.5 -6q-3 -13 -6 -27.5t-5 -26.5q-9 -4 -18.5 -0.5t-17.5 4.5q-20 3 -38.5 9t-39.5 6q-5 3 -11.5 4l-13 2t-11.5 3t-8 8l8 28t6 30q3 1 7 0t7.5 -2
t7.5 -1t7 4q6 30 11.5 60.5t13.5 60.5q-1 7 -6.5 5.5t-9.5 0.5l-31 6q0 -7 -3 -8.5t-7.5 -1t-9 2t-7.5 1.5q-26 7 -49.5 22t-42.5 35.5t-31.5 45t-15.5 51.5q-10 36 -4 72.5t17 68.5q-3 8 -1 12t2 11q13 27 34 42t46.5 22.5t52.5 8.5t53 -2t49.5 -11t46.5 -19q4 0 6 -3t7 -1
q4 2 3.5 7t4.5 7q15 -4 29.5 -5.5t29.5 -2.5q-2 -22 -4.5 -43t-4.5 -44l-3 -2q-15 3 -28.5 3t-27.5 3q-5 3 -5 8t-2 9q-16 28 -44 42.5t-60 13.5q-22 -1 -42.5 -11t-28.5 -33q-9 -20 -7.5 -38.5t-6.5 -38.5q-6 -31 0 -60t28 -50q10 -9 22 -12.5t24 -6.5q2 -5 0 -9.5t-1 -9.5
l44 -9l12 52t9 55q-5 5 -10.5 5.5t-11.5 0.5q-1 17 3 33t8 31q14 0 25.5 -4.5t24.5 -2.5q27 -9 54 -13.5t54 -14.5q4 -6 0 -12z" />
    <glyph glyph-name="H" unicode="H" horiz-adv-x="535" 
d="M509 243q0 -9 -1 -19t-4 -18q-12 -2 -25.5 1t-26.5 -1q-8 -21 -9 -43t-5 -44q-2 -5 -2 -11t-0.5 -12t-2.5 -11t-9 -6q-15 -2 -28.5 1t-27.5 7q-8 -4 -18 -4t-18 5l-1 -1v18t5 18q-2 4 -1.5 9t2 9.5t2 9.5t-0.5 10q2 15 3.5 25.5l3.5 24.5q-3 6 -7.5 7.5t-10 1.5
t-10.5 -0.5t-8 2.5l-9 -13q-28 -1 -55.5 0.5t-51.5 2.5q-8 -9 -5 -19.5t0 -21.5q-5 0 -8 3l-3 -3l3 -98q3 -3 8.5 -2.5t10.5 0.5t8.5 -2t3.5 -9q5 0 6 4.5t7 1.5q-2 -8 -4.5 -17t2.5 -20q-2 -5 -2.5 -11.5t-2.5 -11.5l-3 28q5 5 1 14l-4 8q-2 -14 -1.5 -32t-9.5 -29l-165 1
q-6 15 -4.5 33.5t0.5 35.5q2 3 6 3.5t8.5 0.5t8.5 0.5t6 5.5q-1 22 -1.5 47.5t3.5 48.5q7 -2 15 -2t14 3l4 247q-6 4 -6.5 10t-0.5 13t-0.5 13.5t-5.5 10.5q-5 1 -11 0.5t-11 -0.5t-9.5 1.5t-6.5 6.5q-5 19 -0.5 39.5t2.5 40.5l11 3q42 -3 92 -2t90 -1l4 -6l-2 -80
q-5 -3 -11 -3h-12.5t-12 -1t-9.5 -5q-3 -37 -3.5 -72t-2.5 -73q4 -6 9.5 -6.5t11 0.5t10.5 1.5t10 -2.5l82 -1l4 -3q6 2 11 1t10 -1.5t9.5 0.5t8.5 7q2 13 1.5 23.5t3.5 21.5q3 4 2 11t-1 14t2.5 11t12.5 3q5 3 5.5 6.5t0 7t-1 7.5t1.5 9q5 27 1.5 53.5t4.5 55.5
q23 -2 48.5 -2.5t47.5 -2.5q5 -27 1.5 -57.5t-2.5 -58.5q-8 -1 -10.5 -5t-3 -10t0 -12.5t-2.5 -11.5q-2 -20 -4.5 -39t-3.5 -37q11 -7 23.5 -7.5t23.5 -1.5q6 -4 7 -9.5t-0.5 -11.5l-3 -12t-1.5 -12z" />
    <glyph glyph-name="I" unicode="I" horiz-adv-x="286" 
d="M233 72q-2 -14 -1.5 -31.5t0.5 -33.5q-2 -5 -4.5 -6t-5.5 -0.5t-6 1.5t-6 0q-32 0 -67 -0.5t-67 -0.5q-7 2 -15 0t-14 3q1 19 -1 37.5t5 35.5q5 -2 12.5 -0.5t12.5 1.5q2 45 1 95t1 96q-2 5 -6 5.5t-7 1.5l6 270q2 6 5 9t8 7q23 -1 48.5 -0.5t45.5 -0.5q6 -2 15.5 -1
t11.5 -9q-2 -16 1 -32.5t-2 -30.5q-4 -54 -5 -109.5t-3 -109.5l7 -5q2 -45 -0.5 -90.5t-0.5 -90.5q3 -4 7 -4.5t8.5 -0.5t8.5 -1t7 -5z" />
    <glyph glyph-name="J" unicode="J" horiz-adv-x="442" 
d="M415 506q-15 -2 -27.5 -0.5t-25.5 -3.5v-85.5v-82.5t0.5 -83t3.5 -87q-3 -2 -8 -1.5t-9.5 0.5t-7.5 -1.5t-4 -6.5q2 -30 1 -62t-12 -58l-19 -19q-12 -4 -23 -10t-24 -4q-14 -4 -33 -5t-36 0q-19 1 -39.5 -1t-40 -1t-37 8.5t-29.5 27.5q-10 26 -11 51.5t13 51.5
q1 3 3.5 6.5t4.5 6.5t2.5 6t-3.5 5h-20q0 14 -2 26t1 23l3 4q27 2 55.5 3t52.5 0q2 -5 1 -11.5t2 -12.5q-1 -6 0.5 -15.5t-4.5 -13.5q-11 2 -22 -3.5t-17 -15.5q-3 -5 -2.5 -10t2.5 -10q10 -14 23.5 -17t28 -2t29.5 3.5t29 -0.5q12 0 25 3.5t19 17.5q4 6 4 11.5t-0.5 10.5
t-1 10.5t2.5 10.5q-2 49 -2.5 93.5t-0.5 88.5v88.5v94.5q-3 16 2.5 20.5t15.5 4.5t21.5 -2t19.5 2q22 0 46.5 1.5t49.5 -0.5q5 -14 2.5 -27t-2.5 -28z" />
    <glyph glyph-name="K" unicode="K" horiz-adv-x="473" 
d="M431 5q-38 -1 -70 -2.5t-69 -0.5q-16 35 -30 71.5t-31 71.5q2 6 -2 9.5t-4 8.5q-6 5 -7 13.5t-7 13.5q-3 -49 -1 -94.5t3 -90.5l-4 -4q-31 0 -65 -2.5t-64 0.5l-2 5q2 55 -2 108.5t-3 111.5q-1 3 -3.5 3h-5.5q2 83 -0.5 165.5t-0.5 166.5l7 3h125v-100q-5 0 -9 -0.5
t-8 -0.5q2 -29 2 -49.5t-0.5 -38t-0.5 -36.5t2 -45l34 7q10 0 16 1.5t11 3t11.5 3t16.5 1.5q22 1 44.5 7t29.5 29q8 25 3.5 49.5t-19.5 44.5q-10 14 -26.5 16.5t-33.5 1.5l8 96q32 0 63.5 2t63.5 1q4 -9 2.5 -17t-1.5 -16l2 -53q-5 -5 -14 -4t-15 -4q5 -18 17 -32t17 -32
q5 -32 4 -61.5t-16 -60.5l-19 -26q3 -2 0.5 -3.5t-2.5 -3.5q-8 -2 -15.5 -7t-18.5 -2q-4 -5 -1 -11.5t5 -11.5q22 -51 43 -102t40 -103z" />
    <glyph glyph-name="L" unicode="L" horiz-adv-x="396" 
d="M387 13q-4 -4 -2 -11t-5 -8q-60 -2 -119 -5t-116 -11q-16 4 -34 1t-35 -1l-4 3q3 30 -1 55t-3 52q-5 14 -3 29t-3 29v52q-8 1 -9.5 8.5t0.5 12.5q4 90 6.5 173t3.5 172l5 3q27 -2 54 -2.5t54 -2.5l4 -6q1 -50 -1 -95.5t-4.5 -89.5l-5 -88t-0.5 -90l-2 -3
q-2 -24 2.5 -46.5t1.5 -45.5l5 -5q53 3 101 7t103 6q5 -22 3.5 -47.5t3.5 -45.5z" />
    <glyph glyph-name="M" unicode="M" horiz-adv-x="654" 
d="M646 -43q-37 2 -74 5t-73 5l-4 5q-10 42 -23 82t-15 81q3 16 -2.5 33t-6.5 33q-7 36 -18 69.5t-16 70.5q-5 8 -5.5 18t-10.5 12q-10 -16 -13.5 -35.5t-6.5 -36.5q-3 -5 -3 -11t1.5 -12t3 -12.5t0.5 -12.5q4 -7 4.5 -12t2.5 -13q0 -23 7 -42.5t9 -42.5q-2 -9 -6.5 -12
t-10.5 -4t-13 -0.5t-13 -1.5q-5 -29 -11.5 -58.5t-6.5 -59.5q-12 -5 -25 -3t-27 0q-11 46 -18 89.5t-18 90.5q-2 18 -6 38t-7 38q-2 5 -3 11.5t-4 11.5q-6 -11 -9.5 -23.5t-5.5 -24.5q-8 -37 -19 -73.5t-16 -72.5q8 -5 16 -3.5t14 -3.5q-2 -9 -0.5 -20.5t1.5 -23t-3.5 -21.5
t-15.5 -15q-43 2 -83.5 0t-84.5 -3l-3 3l1 82q8 2 13 3t12 0q11 31 16.5 62.5t13.5 63.5q11 45 21.5 92.5t21.5 90.5q4 0 5 -2q6 10 8.5 21t4 22.5t4 23t7.5 22.5q-4 15 7.5 27.5t21.5 23.5q32 -2 56 0.5t54 0.5q9 0 12.5 -4.5t5.5 -10t3.5 -12t5.5 -11.5q2 -11 2.5 -22.5
t11.5 -16.5q8 17 12.5 35.5t7.5 36.5q4 0 7.5 2t7 4.5t7 2.5t7.5 -4l16 4q11 -3 23.5 -2t24 1t22 -3t17.5 -13q3 -18 9 -35t11.5 -34t10 -34.5t4.5 -37.5q11 -26 15.5 -56t15.5 -57l12 -1q21 -78 42.5 -154t40.5 -154z" />
    <glyph glyph-name="N" unicode="N" horiz-adv-x="599" 
d="M533 -8q3 -5 1 -10t-7 -7q-47 -2 -96.5 -5t-101.5 -3q-17 20 -21.5 44t-14.5 47q-5 22 -14.5 44.5t-16.5 43.5q2 10 -4 16.5t-4 15.5q-4 7 -4 15t-5 15l-8 -8q-10 20 -15.5 43.5t-16.5 42.5q-3 -48 -4.5 -97t0.5 -101q4 -3 10 -3t11.5 0.5t10 -1t6.5 -8.5v-66l-10 -5
q-45 1 -88.5 0.5t-88.5 1.5l-3 5l3 73q7 3 16 1t14 5q-1 91 1.5 182.5t0.5 182.5q-8 4 -17.5 1.5t-14.5 6.5l1 67l6 6l170 -1q17 -38 29.5 -78t27.5 -78q8 2 7 9.5t4 13.5q11 -32 21.5 -66t21.5 -69q14 -25 19 -52t16 -53q4 -3 5.5 -6t1.5 -6.5t0.5 -7.5t2.5 -8q5 -3 6.5 -8
t2.5 -10.5l2 -11t5 -8.5q-4 99 -9.5 203.5t-5.5 207.5v3q27 6 57 7t59 1l7 -6q1 -44 2 -79t2 -77q4 -2 2.5 -4t-2.5 -4q5 -29 3.5 -54.5t0.5 -57.5q3 -26 5 -52.5t-1 -52.5q5 -34 5.5 -71.5t6.5 -68.5z" />
    <glyph glyph-name="O" unicode="O" horiz-adv-x="530" 
d="M476 176q-5 -16 -8.5 -32t-14.5 -29q-2 -12 -9.5 -21.5t-11.5 -20.5q-21 -26 -47.5 -41t-56 -22.5t-61.5 -9t-64 0.5q-1 8 1 17t1 19q-41 13 -80 34.5t-65 62.5q-24 36 -34.5 78t-9 84.5t15 84t36.5 76.5q32 36 71 63t87 33q22 -5 44.5 -5t45.5 -4q45 -7 86 -27t66 -62
q26 -65 23 -136t-15 -143zM344 247q6 38 4.5 76t-9.5 74q-8 15 -20 23.5t-27 13t-31 6t-32 2.5q-4 -3 -4.5 -7.5t-0.5 -9t-0.5 -8.5t-4.5 -7q-18 -9 -31 -23.5t-20.5 -32.5t-10.5 -38t-2 -39q2 -31 14.5 -59t43.5 -42q-1 -15 -3 -30t1 -30q14 1 29.5 1t30 2.5t26.5 8.5
t20 21q10 9 14.5 21t7 25.5t3 27t2.5 24.5z" />
    <glyph glyph-name="P" unicode="P" horiz-adv-x="466" 
d="M425 312q-1 -31 -2.5 -60.5t-0.5 -57.5q-24 -8 -46 -20t-46 -19q-11 6 -25.5 4.5t-26.5 -0.5q-20 2 -38 2t-37 -2l-5 -5v-60q1 3 2.5 -4.5t-2.5 -5.5v-84l-7 -4q-11 -1 -26 -1t-30.5 0.5t-30.5 1.5t-25 1l-3 6v203q3 39 0.5 84.5t0.5 88.5q-5 8 -14 9t-17 3
q-4 -2 -4.5 -5.5t-1.5 -7.5q-5 35 -5 71.5t-2 70.5l16 5q16 0 37.5 0.5t43.5 1.5t43 2t37 2q33 1 69.5 4t74.5 1q2 -4 6.5 -3t7.5 -1q8 -5 16 -9.5t13 -13.5q8 -22 11 -45t4 -47l2 -48t4 -48zM329 326q-10 8 -23 10t-25 6q-1 11 0.5 24t-3.5 24q-4 10 -10.5 12.5t-14 2
t-15.5 -2t-14 0.5l-6 -4q0 -12 2.5 -22t-1.5 -21q-5 -2 -10 1t-9 -1v-95l128 -2zM99 376q-5 2 -8 5t-8 -2l5 -4q2 -1 5.5 -2t5.5 3z" />
    <glyph glyph-name="Q" unicode="Q" horiz-adv-x="460" 
d="M387 335q-5 -3 -10 -2t-10 -1q-5 -8 -2.5 -18.5t2.5 -18.5l-4 -144q4 -5 8.5 -2t9.5 -1q0 -58 1 -120t4 -121q-19 -3 -42.5 -3.5t-44.5 -2.5l-5 6q-2 29 -0.5 60t-7.5 59q-23 -11 -45.5 -20.5t-48.5 -11.5q2 9 -5.5 9.5t-11.5 0.5q-15 3 -31 8.5t-30.5 13.5t-25 20
t-13.5 29l-7 36q-1 56 -0.5 112t5.5 113q-5 3 -11 2t-11 1q4 52 5.5 107t4.5 108q18 5 34 1.5t35 -1.5q5 -5 9 -3.5t10 0.5q3 -8 1 -17t6 -14q33 25 74.5 32.5t82.5 -4.5q4 3 6 -2t7 -4q20 -5 38 -21t23 -37q4 -18 4 -36.5t-1.5 -37.5t-3 -37.5t0.5 -37.5zM294 336
q-2 19 0.5 39t3 39t-5 35.5t-23.5 28.5l-13 6q-16 2 -35 2t-34 -9q-20 -11 -30 -30.5t-8 -40.5q-2 -17 -3.5 -34t0.5 -34q16 0 25 -5q0 -32 -1 -63.5t-2 -61.5q1 -12 0 -24.5t-1 -25t2 -24.5t11 -22q10 -1 13 -6t3 -11.5t-1 -14t2 -13.5q13 3 26 3.5t24 7.5q17 11 29.5 26
t10.5 37q-5 1 -12.5 -0.5t-12.5 3.5q6 47 3.5 92.5t0.5 92.5q3 5 6.5 5.5t7 -0.5t7.5 -1t7 3zM304 142q2 -6 8 -7t11 -3q3 2 5.5 4t3.5 6h-28z" />
    <glyph glyph-name="R" unicode="R" horiz-adv-x="518" 
d="M478 384q-5 -21 -15.5 -43t-30.5 -38q-18 -3 -40.5 -1.5t-40.5 -5.5l23 -16q-3 -7 -8.5 -11t-2.5 -12q2 -12 9 -22.5t10 -22.5q8 -11 14 -23l12 -24q8 -16 14.5 -32t13.5 -32q4 -5 9 -6t10.5 -0.5l11 1t10.5 -1.5q-2 -22 -0.5 -46.5t-2.5 -48.5q-11 -8 -29 -5t-32 2
q-11 4 -25 2t-27.5 -2.5t-23.5 4.5t-12 22q-14 20 -21.5 43t-23.5 43q-3 12 -9 22.5t-9 22.5q-4 5 -4.5 10t-7.5 8q-11 1 -18.5 -7.5t-14.5 -16.5l-2 -41q3 -5 8.5 -5.5t11.5 0t12 -0.5t10 -6q0 -26 0.5 -49.5t-7.5 -44.5q-56 2 -104.5 1.5t-100.5 2.5q-3 26 -2 48.5t3 48.5
q8 5 16.5 3t17.5 3l4 17q-2 38 -0.5 78.5t3.5 78.5q-3 2 -7 1.5t-8 0.5v252l8 5q37 -1 75.5 -0.5t77.5 0.5t77 -1.5t74 -6.5q11 -5 22 -9t20 -13q14 -11 26 -25t19.5 -30.5t9.5 -34t-3 -36.5zM342 388q-1 11 -7.5 20t-16.5 16q-29 2 -53 3t-54 -2v-80q28 0 53.5 -2t53.5 4
q11 7 17 18t7 23z" />
    <glyph glyph-name="S" unicode="S" horiz-adv-x="441" 
d="M249 399l-17 6h1l12 -4l4 -1v-1zM422 131q-5 1 -9.5 1.5t-9.5 -1.5q6 -29 -4.5 -55.5t-29.5 -47.5q-23 -21 -50 -29t-55 -7t-56 8t-52 16q-3 -2 -3 -6t-0.5 -8t-2 -6.5t-7.5 -0.5q-19 2 -37 0.5t-35 0.5q0 29 -3.5 58t-1.5 58q21 2 41 3.5t41 3.5q-2 -14 2 -27.5
t15 -22.5q29 -14 62 -14t62 13q16 10 20.5 26.5t2.5 33.5q17 2 34 3l34 2v1l-54 11q-6 18 -19.5 33t-30.5 21q-13 8 -27 6t-28 0q-3 -3 -3 -8v-9.5t-2 -7t-8 -0.5q-8 1 -16.5 1.5t-14.5 7.5q-6 -2 -13.5 2t-14.5 4q-11 8 -23 14.5t-24 10.5q-4 6 -11 7.5t-7 9.5q-5 4 -11 6
t-6 10q-14 11 -20 25.5t-13 28.5q-12 38 -10.5 81t18.5 82q5 -2 12 -4.5t13 -2.5q10 12 19.5 26t22.5 25q50 47 114 52.5t122 -26.5q39 -20 63 -58l-6 -10q-18 -15 -34 -31t-32 -31q-13 7 -24.5 19t-23.5 18q-17 5 -33 8.5t-33 -2.5q-11 -3 -20.5 -8.5t-17.5 -13.5l3.5 -3.5
t3.5 -1.5q-13 -26 -11 -56t13 -56q3 -6 7.5 -9.5t9 -6.5t8 -7t2.5 -10v-19q36 -3 74 -12t70 -30q22 -14 40 -38.5t18 -50.5zM201 124l14 2l8 -2h-22z" />
    <glyph glyph-name="T" unicode="T" horiz-adv-x="311" 
d="M301 521q-2 -28 -2 -55.5t-1 -55.5q-16 -1 -35 -1t-35 -3q-2 -34 -1.5 -69t0.5 -69q-11 -2 -22.5 -2t-19.5 -8q2 -21 2.5 -42.5t4.5 -41.5q-4 -12 -3.5 -24t2.5 -24t3.5 -23.5t0.5 -23.5q3 -14 13.5 -15.5t21 -0.5t18 -2t4.5 -19q-2 -16 1 -30.5t0 -31.5l-3 -2
q-23 -2 -48 -2.5t-48 -0.5q-26 8 -47 30q-11 22 -14 42.5t-3 40.5t0.5 41t-3.5 44q5 3 1 6t-2 8q-2 19 -2.5 36t-3.5 34l-6 1q3 39 2 74.5t1 73.5q-19 9 -37.5 6.5t-35.5 0.5q-2 1 -2 0t-1 -1l-4 4q1 32 1 61.5t3 58.5l4 4q75 -1 148.5 0t145.5 -4zM169 149l7.5 -2.5
t6.5 -0.5v1z" />
    <glyph glyph-name="U" unicode="U" horiz-adv-x="546" 
d="M515 180q-3 -33 -19 -62t-40 -53t-53.5 -41.5t-59.5 -25.5q-49 -14 -100.5 -4t-95.5 36q-59 36 -87 93.5t-29 124.5q1 4 6.5 3t4.5 6q2 23 0 47t-3 50q5 5 0.5 7.5t-3.5 7.5q0 42 -5 79.5t-3 76.5l6 6q26 0 53 2.5t52 -1.5q2 -48 6 -99t6 -98q-2 -18 0.5 -38t0.5 -36
q4 -2 8 -2h8l4 -30t5.5 -30t11 -28t20.5 -23q26 -21 58 -23t63 10l26 19.5t17 26.5l-6 5q3 56 4.5 110.5t8.5 110.5q2 19 2.5 37.5t3.5 35.5q-6 6 -14.5 6.5t-17 0.5t-15.5 3t-9 13q0 6 -3 13t7 9l4 7q2 -4 3.5 -3.5t3.5 2t4 2t4 -3.5q14 2 29 5t30 5q18 2 38 3.5t38 6.5
l8 -9q0 -17 3 -31.5t4 -31.5l-12 -3q-11 -70 -12 -146.5t-9 -146.5q8 -5 18 -5.5t21 -0.5l6 5v0z" />
    <glyph glyph-name="V" unicode="V" horiz-adv-x="519" 
d="M488 450q0 -25 -6 -48t-8 -46h-1q3 8 3 18t1 18q2 14 3 30t5 28h3zM274 271l3 1l17 -1h-20zM519 499q-6 -3 -14.5 0.5t-17 4.5t-15.5 -4.5t-10 -24.5q-12 -5 -26.5 -2t-27.5 1q13 -4 25.5 -7t26.5 -6v-9q-9 -28 -20 -55t-15 -57q-17 -29 -25 -61.5t-21 -63.5
q-8 -14 -13 -29t-11 -29l-39 -3q-7 -9 -12 -19.5t-13 -18.5q-3 -8 -7.5 -16.5t-7 -17.5t-1.5 -17.5t10 -16.5q4 -8 12.5 -11t16 -6.5t11 -9t-0.5 -17.5q-6 -7 -13 -9t-15.5 -2t-17 1.5t-16.5 1.5q-26 6 -51.5 4.5t-48.5 10.5q-8 18 -13 40q-5 8 -8 17.5t-6 18.5l2 2
q-1 1 -4 1q-2 13 -7.5 25t-7.5 23q-8 5 -8.5 15.5t-5.5 17.5q-1 4 -3.5 9t-4 9.5t-1 9t5.5 7.5q-2 4 -5 1.5t-5 -2.5q2 5 -1.5 9.5t-8.5 5.5q-7 -3 -15 -5t-10 9q-14 44 -24 87.5t-21 88.5q-3 11 -8 22t-4 23q11 0 22 2t22 2l6 6q11 4 24.5 3t22.5 9q6 -4 10 -2.5t7.5 4.5
t7.5 4.5t9 -2.5q2 -2 5.5 0.5t6.5 -0.5q12 -45 22 -90t30 -87q4 -5 9 -9t7 -9q-2 -2 -5 -2.5t-5 -2.5q6 0 7.5 -3t1.5 -7v-8t3 -6q7 -15 12 -31t11 -31q0 -8 3 -13t8 -10q14 5 18 17.5t13 22.5v7q16 23 27 50q0 3 -2 5.5t1 6.5q9 2 11 7.5t1.5 13t-2 15t0.5 14.5
q15 35 23.5 73.5t23.5 73.5q-2 6 4 10q5 1 11 -0.5t11.5 -2t10 1t7.5 7.5q-1 3 1 6l4 6t2.5 6.5t-3.5 6.5l-76 10q-2 11 -1 23.5t6 22.5q11 4 25 1t26 -2l129 -11q4 -12 5.5 -24.5t2.5 -26.5z" />
    <glyph glyph-name="W" unicode="W" horiz-adv-x="699" 
d="M687 109q-48 -12 -97 -18q-5 7 -5.5 16t-7.5 13q-11 -26 -33 -39.5t-48 -15.5q-28 1 -56 13t-39 42q-19 49 -25 100t-19 102l7 3q2 8 -4 9t-8 6q-4 -8 -9.5 -15t-10 -14.5t-6 -16.5t2.5 -19q-3 -16 -7.5 -33t-10.5 -34q-6 -34 -13 -66t-18 -64q-3 -9 -4 -19t-2 -19.5
t-4 -18.5t-10 -16q-51 -2 -96 -1t-93 -1q-2 85 -2.5 172.5t-3.5 178.5q3 40 1 76.5t-3 76.5q2 3 1 8.5t-1.5 10.5t2 8t10.5 1q29 1 55.5 3t54.5 -1q-3 -25 -2 -50l2 -50t1 -50t-3 -50q2 -4 3 -6.5t-3 -5.5q-2 -52 -0.5 -104t4.5 -103l3 -3q10 17 11 38.5t9 41.5q5 21 10 44
t13 43q9 24 15.5 49t14.5 50l24 76t21 77q5 7 14 5t16 1l68 -2q13 -16 18 -39q-2 -10 4 -18t-1 -15q16 5 18 -13q-1 -6 0.5 -11t3.5 -10t3 -9.5t-1 -9.5q11 -45 16.5 -86.5t13.5 -84.5q3 -3 2 -7t1 -9q1 -8 3 -18t5.5 -19t10 -15.5t17.5 -8.5q26 -3 36 22q4 21 0.5 41.5
t-5.5 39.5q-7 26 -10.5 50.5t-10.5 50.5q-3 28 -8 58t-13 56v3q16 6 33 10.5t33 7.5q8 7 18 8t18 4q1 -15 7 -30.5t4 -32.5q-4 -2 -7 0t-5.5 4t-5.5 2.5t-6 -3.5q2 -3 3 -6.5t4 -4.5q3 -2 6.5 -1.5t6.5 1t5.5 0t4.5 -5.5q5 -23 9 -48.5t8 -45.5q0 -12 5 -26t3 -25
q3 -5 1.5 -8t3.5 -7q-2 -17 4 -34.5t5 -34.5q5 -11 6 -21.5t2 -21.5l3 -2q0 -5 -0.5 -9.5t1.5 -10.5q2 -9 4.5 -17.5t3.5 -18.5zM359 354q0 2 -0.5 5.5t-2.5 4.5q-5 -3 -3.5 -9.5t0.5 -9.5z" />
    <glyph glyph-name="X" unicode="X" horiz-adv-x="497" 
d="M454 49l-7 -4q-46 3 -85.5 -1t-81.5 -2l-5 6q2 17 0.5 35t-0.5 34l26 3q-2 12 -6 24.5t-5 25.5q-6 5 -15.5 4t-18 -1t-14 3.5t-2.5 18.5q-4 -1 -5 -3.5t-1.5 -5.5t-1.5 -6t-4 -5q-3 -9 -6.5 -18.5t-8.5 -17.5q-4 -11 -9 -21t-7 -22q-5 -3 -4.5 -7.5t-1.5 -8.5
q-9 -12 -12.5 -25.5t-11.5 -24.5q-1 -8 -4.5 -16t-10.5 -11q-32 4 -67.5 1t-70.5 0q-7 9 -1.5 19t7.5 19q5 3 6.5 6.5t2 8t1.5 8t5 6.5q3 7 6 13t3 14q5 1 7 9q20 38 37 77.5t36 78.5q1 7 5 14t7 14t3 14t-8 15q-2 16 -9.5 29.5t-9.5 30.5q4 3 3.5 5.5t-2.5 5.5l-4 6t0 7
q-4 2 -4.5 6t-0.5 7.5t-1.5 7t-5.5 5.5q-8 25 -17 48.5t-15 49.5q2 6 5.5 8t8.5 4q15 1 30 -3t29 2q6 -7 13.5 -7.5t15.5 1.5q4 3 8 2.5t8.5 -1.5t8.5 -1.5t9 1.5q8 -6 11.5 -14.5t5 -17.5t3.5 -18t7 -16q0 -11 3.5 -20t8 -18t7 -18t1.5 -20q5 -5 6 -12t4 -14q11 12 15 26
t11 27q5 22 13 35q5 11 7 22.5t10 20.5q11 5 23 6.5t25 1t25.5 -1t25.5 1.5q4 -1 9.5 0l11 2t9.5 0t7 -7q-13 -35 -29.5 -67t-30.5 -67q-10 -11 -13.5 -26t-12.5 -28q5 -4 5.5 -11t9.5 -5h23l-1 -21q-4 -2 -8.5 -0.5t-6.5 -3.5q9 -36 17.5 -72.5t17.5 -73.5q4 -4 9 -3.5
t9.5 1t8.5 -0.5t7 -7z" />
    <glyph glyph-name="Y" unicode="Y" horiz-adv-x="588" 
d="M530 330q-3 -36 0.5 -74t2 -74t-13 -67.5t-44.5 -55.5q-33 -23 -72 -32.5t-77 -20.5q-63 -7 -127 -0.5t-121 26.5q8 23 20.5 45t25.5 44q31 -12 65.5 -17t69.5 -3.5t68.5 9.5t62.5 22q17 11 20.5 28.5t1.5 34.5q-3 5 -9 4.5t-10 -2.5q-30 -14 -65.5 -22.5t-72 -9t-71.5 7
t-64 26.5q-9 1 -15 6t-11 11t-10.5 12t-13.5 11q-3 9 -9.5 18.5t-11 19t-5 19.5t6.5 19q-3 60 -3 115q-8 1 -19 -1t-18 6v88q56 4 111.5 5t113.5 3q6 -8 7.5 -21t-1.5 -21q2 -13 2 -29t-2 -25q-11 -3 -20 -1.5t-20 -3.5v-109q-7 -2 -15 0t-13 -6q6 -26 30 -42t50 -19
q45 -5 87 6t71 47q-2 3 -0.5 6t3 5.5t1.5 5t-4 4.5h-82q3 27 1 51.5t-5 53.5q-11 4 -20.5 2t-19.5 4v88l8 5q55 1 103 2.5t105 5.5q11 -1 15 -13q-5 -17 -2 -39t3 -42q-3 -3 -8 -3h-10t-9.5 -1t-7.5 -5l3 -103q10 -5 22.5 -3.5t21.5 -0.5z" />
    <glyph glyph-name="Z" unicode="Z" horiz-adv-x="593" 
d="M540 472q-2 -18 -2.5 -35.5t-2.5 -35.5q7 -6 6 -11t-5 -9.5t-10 -8t-9 -6.5q-17 -9 -32.5 -21.5t-30.5 -26t-30.5 -26.5t-32.5 -22l-1 -5q-29 -17 -53 -38.5t-52 -39.5q0 -8 7.5 -8t12.5 -3q24 3 48.5 2.5t49.5 1.5q29 2 60.5 -2.5t60.5 -2.5q5 -7 5.5 -14t-0.5 -14.5
t-2 -14.5t2 -14q-5 -10 -3.5 -19.5t-0.5 -20.5q0 -6 -1.5 -15.5t6.5 -11.5q-7 -3 -7.5 -8.5t0 -11.5t1.5 -11.5t-3 -9.5q-2 -4 -0.5 -5.5t3.5 -2t4 -1.5t2 -4q-5 1 -9.5 0t-9 -2.5t-9 -1.5t-9.5 4q-107 -2 -210 4t-210 6h-12t-12 -3q0 3 -3 5.5t-5 3.5q6 2 7 7t0.5 11.5
t-1.5 13t0 11.5q-2 15 1 35.5t1 35.5q4 13 0.5 24.5t1.5 23.5q2 8 0 16.5t0 16.5q32 30 70 57.5t73 59.5q21 8 36.5 24.5t35.5 24.5q18 13 37.5 19.5t40.5 11.5q6 4 14 5.5t15 3.5t11.5 7t3.5 15l-10 10q-53 -3 -110.5 1t-112.5 2q-5 -3 -6 -8.5t-1 -11.5t-0.5 -11t-4.5 -8
q-8 2 -16.5 1.5t-17 -1.5t-16.5 0t-16 6q2 18 1 42.5t2 44.5l10 5q120 -5 233 -6t230 -5q7 -5 4 -10.5t0 -9.5z" />
    <glyph glyph-name="bracketleft" unicode="[" horiz-adv-x="274" 
d="M234 506q-2 -3 -6 -2.5t-7 0.5t-5.5 -1.5t-1.5 -7.5q-2 1 -4.5 -0.5t-4.5 3.5q-14 2 -29.5 1t-23.5 -18q0 -1 -0.5 -2.5t-0.5 -3.5q8 -26 5.5 -42.5t-0.5 -22.5q-1 -20 0 -41.5t2 -42.5q0 1 2.5 -4t4.5 -14t3 -21t-1 -24q1 -12 -0.5 -24t2.5 -26l-3 -3q-1 -20 1.5 -38
t-3.5 -37q5 -8 3 -16.5t-1 -19.5q1 -8 2.5 -15t4.5 -17q5 -8 15.5 -8h20t15 -3t2.5 -16q-2 -16 1.5 -34.5t-0.5 -35.5q-21 1 -45.5 -1t-47.5 0t-42 11.5t-29 34.5q-10 45 -7 90t2 92q-4 26 -1.5 50t-0.5 51l2 36q0 14 1 27t1 24q1 40 0.5 78t-0.5 68q2 16 10 31.5t22 20.5
q10 10 24 13q8 2 15.5 1.5t15.5 2.5q12 -2 25 -2.5t24 -5.5q9 1 15.5 -5t14.5 -5l8 -9q0 -18 0.5 -32.5t-0.5 -34.5z" />
    <glyph glyph-name="bracketright" unicode="]" horiz-adv-x="274" 
d="M256 67q-2 -5 -0.5 -12t-6.5 -10q-11 -2 -21.5 -3t-21.5 -1q-1 -7 -3 -14t-4 -15q-21 -24 -44 -35q-23 -2 -48 -3.5t-48 -3.5l-4 2q-4 17 -2.5 31.5t-1.5 30.5q-6 16 1.5 19.5t18.5 4t21.5 2.5t11.5 16q-3 12 -2.5 24l1 24t-0.5 24t-5 23q1 20 -0.5 41.5t-1.5 43.5
q1 -7 3 9.5t6 43.5q-1 12 0.5 24t-2.5 25l3 4q1 20 -1.5 38t3.5 36q-5 9 -3 17t1 19q-1 9 -2.5 16t-4.5 16q-5 8 -15.5 8h-20t-15 3t-2.5 16q1 8 0 16.5t-2 17.5t-1 18t2 18q21 -1 45.5 1t47.5 0.5t42 -11.5t29 -35q10 -44 7 -89t-2 -93q4 -26 1.5 -49.5t0.5 -51.5l-2 -36
q3 -3 8 -3h10t8 -1.5t2 -7.5q6 -41 8 -80.5t7 -77.5z" />
    <glyph glyph-name="grave" unicode="`" 
d="M268 641q1 2 -13.5 -1.5t-31.5 -8.5q-20 -5 -46 -13l-110 142l11 18l87 38l11 -23q4 -2 8 -3q8 -2 7 -2t9.5 -20t23.5 -43q15 -28 35 -63q1 -7 3 -12q4 -11 6 -9z" />
    <glyph glyph-name="a" unicode="a" horiz-adv-x="534" 
d="M478 -5q-48 -1 -100.5 -1.5t-100.5 1.5q-5 20 -1 41.5t0 42.5q5 3 11.5 2t12 -1t9.5 2.5t4 12.5l-1 157q-4 5 -8 8t-9 -2q-23 2 -46.5 0t-47.5 0l-4 -4l1 -165q7 -7 18 -5.5t19 -0.5q1 -22 0.5 -42t0.5 -43q-50 2 -101 -1.5t-102 -1.5q-7 10 -7.5 19.5t0.5 20l2 21
t-2 21.5q3 6 7 6.5t8 -0.5t8.5 -1t7.5 5q0 66 -0.5 134t1.5 128q2 -4 2 -9t0.5 -10t2.5 -8t9 -2q0 -4 -1.5 -7.5t3.5 -5.5l5 7l-2 2q8 7 10.5 17t2.5 21t-1 22.5t1 20.5q4 11 2.5 27t3.5 27q-3 11 1.5 22t8.5 21l7 2q-9 6 -3 12q15 18 32 33t43 14q11 7 23.5 6.5t23.5 1.5
q35 1 76 1.5t72 -6.5q25 -6 43 -21.5t31 -38.5q7 -19 9.5 -40t2.5 -43t-1 -43.5t-2 -41.5q-4 -6 -11 -4t-12 -3q2 -3 5 -3t5 -1q5 -58 2 -118.5t2 -117.5q4 -2 10 -2.5t12 -2.5q11 -21 8.5 -38.5t-1.5 -39.5zM321 393q5 15 4.5 32.5t-9.5 30.5q-11 16 -24 13.5t-28 -4.5
q-11 -3 -14.5 -12.5t-8.5 -17.5l1 -39q18 -8 38.5 -5t40.5 2z" />
    <glyph glyph-name="b" unicode="b" horiz-adv-x="401" 
d="M369 234q2 -33 1 -63.5t-7 -62.5q-3 -22 -11 -38q-4 -14 -10.5 -25.5t-14.5 -23.5q-14 -20 -36.5 -27.5t-46.5 -7.5q-20 0 -34.5 12t-28.5 22q-4 -6 -4 -13.5t-5 -13.5q-31 -2 -59 -1t-58 4q-4 27 -4.5 55t0.5 56t1.5 55t-1.5 53l4 3l-2 2q3 6 10.5 4t12.5 1
q-2 44 -2.5 90.5t-4.5 92.5q-2 30 -2.5 62.5t-1.5 62.5q4 13 16.5 18.5t25.5 6.5t31.5 -1.5t32.5 5.5q24 -3 46.5 -1t45.5 -6q5 -5 10.5 -5.5t10.5 -5.5q13 -6 20.5 -16t12.5 -21.5t8.5 -24t8.5 -23.5q-5 -16 -6.5 -32t-10.5 -30q-5 -17 -15 -28t-21 -25q0 -9 4 -13.5
t10.5 -7l13 -5t11.5 -8.5q10 -4 14.5 -11t6 -16t1.5 -18.5v-16.5q3 -3 8 -2.5t10 0.5t8 -2t1 -10zM233 449q-2 14 -12.5 21.5t-22.5 9.5q-8 -2 -16 -2.5t-13 -8.5q-5 -21 -4 -45.5t8 -42.5q11 -2 21 3.5t20 12.5q13 8 17 22.5t2 29.5zM254 241q-11 11 -24 20t-25 19
q-7 1 -16 2.5t-14 -7.5q4 -35 1 -66.5t3 -66.5q2 -6 3.5 -13.5t4 -14t7 -11t13.5 -5.5q8 0 11 5t10 10q9 29 10 59t1 64q2 5 7 3.5t8 1.5z" />
    <glyph glyph-name="c" unicode="c" horiz-adv-x="430" 
d="M407 394q-2 -3 -5 -6.5t-6 -5.5h-81q-4 5 -2.5 9.5t2.5 9.5q2 10 0.5 20t-9.5 18q-15 13 -33.5 17t-38.5 5q-1 3 -2.5 6t-5.5 4l-47 4l-2 -3q0 -30 -0.5 -76t-0.5 -95t0.5 -95t1.5 -76q26 -29 61 -19q-2 -13 0.5 -22t2.5 -21q14 2 28.5 10t22.5 23q7 10 10 21t6 23
q25 1 49 0.5t49 -0.5q-2 -43 -20.5 -82.5t-59.5 -62.5q-8 -8 -17.5 -12t-20.5 -6q-9 -5 -19.5 -6.5t-21.5 -3.5q-2 7 -2.5 15t-3.5 15q-20 -6 -43 -9.5t-45.5 -2t-43.5 9.5t-37 25q-13 17 -17.5 37.5t-4.5 42.5t1.5 44.5t-0.5 42.5q1 22 1 60.5v81t0.5 82t2.5 63.5
q-7 4 -3 11.5t6 14.5q10 13 23 25t28 18q8 7 18.5 10.5t19.5 5.5q38 5 78.5 6t77.5 -7q3 -3 6.5 -3t7.5 -2q13 -3 25 -8.5t22 -14.5q15 -8 25.5 -22t15.5 -30q8 -21 10 -44t-9 -45z" />
    <glyph glyph-name="d" unicode="d" horiz-adv-x="520" 
d="M469 358q3 -17 -2 -37.5t-7 -38.5q5 -4 5.5 -13t-1 -19t-3.5 -19.5t0 -15.5q-5 -41 -5 -82t-11 -79q-5 -27 -27.5 -49.5t-49.5 -28.5q-30 -7 -60.5 -2t-54.5 23q-6 2 -9.5 -1t-8.5 -7q-23 3 -44.5 3t-42 -0.5t-41.5 -1t-44 1.5q-1 53 -0.5 111t1.5 117t1.5 116t-0.5 109
q-8 6 -4 15t0 17q-2 4 -5 7.5t-5.5 7.5t-3.5 8t3 9l3 7q13 6 25.5 12t26.5 8q22 11 46.5 16t47.5 6q34 6 69 1.5t67.5 -19t59.5 -37.5t45 -55q12 -21 19.5 -43t9.5 -47zM332 240q0 7 1.5 19.5t3 26t0.5 26t-6 18.5q0 20 0.5 41t-3 41t-12 38.5t-25.5 33.5q-4 0 -6.5 1.5
t-4.5 4t-4.5 4t-6.5 0.5l-6 5q-12 1 -24.5 4.5t-24.5 -1.5q-10 -2 -13.5 -7.5t-4 -12t-1 -14t-5.5 -14.5q2 -3 1.5 -6.5t-0.5 -6.5t1.5 -5.5t7.5 -3.5v-137.5t2 -137.5l15 -1q9 -2 18.5 -3t17.5 -4q-2 -18 -3 -35t9 -32q8 -5 15.5 -9.5t18.5 -2.5q6 5 14 6t10 11q7 35 9 76
t6 77z" />
    <glyph glyph-name="e" unicode="e" horiz-adv-x="385" 
d="M366 416q-9 -8 -21 -4.5t-23 0.5l-61 2l-2 2l1 64l-4 4l-67 2q-4 0 -5 -4t-2 -6q-2 -13 -1 -27t1 -28t-2.5 -27t-10.5 -24l-3 -22l10 -2q-7 -13 0 -29l6 -6q20 -1 41 -3t41 0q6 -4 14 -2.5t11 -7.5q-3 -8 -1.5 -18t1.5 -19t-3 -16.5t-14 -11.5q-23 2 -44 1.5t-44 -0.5
q-7 -3 -9.5 -7t-3.5 -9.5t-1 -11t-1 -11.5q-2 0 -6 0.5t-7.5 0t-5.5 -2.5t0 -6q-2 -20 -5.5 -40t-4.5 -40q4 -9 5.5 -19t13.5 -14q6 -5 13.5 -5t15.5 2q10 6 14 14.5t5 18t1 19.5t2 19l9 3l81 -9q2 -17 -1.5 -33.5t-2.5 -33.5q-4 -8 -5.5 -17t-6.5 -17q-10 -17 -24.5 -28
t-32 -16t-36.5 -6t-38 1q-32 6 -63.5 28t-39.5 58q-7 32 -1.5 62.5t6.5 63.5l23 3q2 14 0.5 28t3.5 28q-2 22 -1.5 46t6.5 47q-2 4 -6 3t-8 0q1 6 1.5 16.5t-4.5 14.5q1 26 2 51t-1 49q-4 4 -10 2.5t-11 1.5q-2 15 1.5 29.5t2.5 28.5q-2 2 -1.5 3.5t0.5 3.5q2 5 6.5 3.5
t7.5 0.5q57 -5 108.5 -5.5t105.5 0.5q5 -2 10.5 -1.5t11.5 -1.5q15 2 30 -1.5t30 -1.5l6 -3zM280 64q0 -9 3 -13z" />
    <glyph glyph-name="f" unicode="f" horiz-adv-x="432" 
d="M445 471q-6 -13 -14 -19q-6 -2 -10.5 -0.5t-8.5 5.5t-8.5 8t-8.5 7q-17 18 -35.5 23.5t-38 5t-39.5 -2.5t-39 1l-9 -8q-2 -66 0 -124q5 -6 11.5 -6t11.5 -2q16 4 34 2t36 -2t34 6.5t27 27.5q6 6 12.5 2.5t12.5 -7.5q2 -8 4.5 -14t-0.5 -15q-2 -14 -11 -24.5t-11 -23.5
q-6 -5 -9 -12.5t-6 -14.5t-7.5 -11.5t-12.5 -3.5q-6 -2 -9.5 1t-6.5 8.5t-5.5 11t-5.5 8.5l-89 -3q-6 -6 -7.5 -16.5t-1.5 -21.5t0.5 -22.5t-1.5 -19.5q-2 4 -4 0t-5 -2h-48l-4 -6l1 -124q3 -5 6.5 -5t7.5 0.5t7 0.5t5 -5q0 -18 0.5 -37t-1.5 -37q-38 -6 -75.5 -5.5
t-75.5 2.5l-2 6v69q4 8 10.5 5.5t11.5 3.5q-2 98 -1 196.5t-1 196.5q-3 3 -7.5 3h-8t-6 2.5t-1.5 11.5q3 10 1.5 22t-1.5 23.5t3 20t14 11.5l64 -1q5 -7 15.5 -5.5t17.5 0.5q58 4 118 5.5t119 2.5l11 -13q4 -11 11 -21t14 -20.5t11.5 -21t3.5 -23.5z" />
    <glyph glyph-name="g" unicode="g" horiz-adv-x="469" 
d="M420 437q-5 -6 -13 -10t-15 0q-10 5 -16 14t-11 18q-20 22 -46.5 36t-58.5 10q-21 -3 -35.5 -14.5t-25 -28t-17.5 -35.5t-12 -37q-5 -51 -2.5 -104t2.5 -107q3 -5 7.5 -4t9.5 -1q1 -12 -1 -26t-1.5 -27.5t5 -25.5t17.5 -21q10 -3 16.5 0.5t14.5 8.5q7 8 8 19.5t3 21.5
l-3 2q1 27 0 57.5t1 59.5q-4 6 -10.5 6.5t-12 1.5t-9 4.5t-0.5 14.5q2 10 1.5 22t0.5 22q0 4 -0.5 10t2.5 11h180q4 -4 3 -10t0 -10l3 -40q-2 0 -3.5 0.5t-2.5 -1.5q6 -4 4.5 -10t-0.5 -11q-7 -3 -15 -1.5t-14 -7.5v-113q-5 -11 -3.5 -23t0.5 -24q7 -7 17 -6.5t18 -4.5
l-1 -81q-76 -3 -155 0q-4 4 -3 9.5t1.5 10t-0.5 8t-9 5.5q-27 -28 -63 -33t-71 9q-9 5 -18.5 12.5t-11.5 18.5q-8 10 -9.5 22t-2.5 25q-2 25 0.5 52.5t1.5 51.5l-6 6t-8 1q0 58 -3 114t-3 113q6 1 5.5 6t1.5 8q9 17 18 36t26 29v3q21 22 48 36.5t56.5 21t60.5 5t59 -10.5
l34 -11q11 5 20.5 7t20.5 -5q14 -23 23 -51t2 -54z" />
    <glyph glyph-name="h" unicode="h" horiz-adv-x="569" 
d="M552 -3q-24 1 -51.5 0.5t-55 -1.5t-54.5 -1.5t-50 0.5q0 13 -1 27t4 25l37 2l5 9l-1 94q2 2 2 7q-3 1 -7 1t-8 0.5t-6 3t-2 8.5q1 2 2.5 2.5t2.5 2.5q-5 5 -5.5 13t-0.5 17t-1 18t-5 15q-18 3 -36 2t-35.5 -2.5t-35.5 -2.5t-37 1l-2 15q-3 -3 -7 -3t-8 0.5t-7.5 0
t-5.5 -4.5q2 -43 1 -78.5t1 -79.5l34 -2q2 -21 2 -41t-4 -40q-41 -1 -89.5 -2.5t-88.5 -0.5l-4 8l1 73q7 4 14 1.5t14 4.5q-2 69 -3 137t0 137q4 -2 12 0t5 14q2 47 4.5 89.5t7.5 87.5l2 3q28 -5 61.5 -5t59.5 -7q1 -47 -4 -92.5t-5 -93.5q8 -7 17 -9t18 -1q26 -3 55 1.5
t56 -0.5l4 9q2 48 0 92t0 92q28 3 63.5 3.5t62.5 -1.5l4 -6q0 -94 -0.5 -189t3.5 -183q2 0 4.5 -1t5.5 -1l1 -110q12 -5 25 -3.5t26 0.5l4 -5z" />
    <glyph glyph-name="i" unicode="i" horiz-adv-x="271" 
d="M233 471q-7 -6 -16.5 -4.5t-17.5 -1.5l-7 -7v-108l5 -2q1 -89 -1 -171t-1 -171q-5 -9 -17 -6.5t-18 0.5l-91 2q-7 8 -5 19.5t0 20.5q2 76 2 151.5v155.5q5 26 2 55t-1 57q-4 4 -9.5 4h-11.5t-11 1t-8 7q4 20 1 42.5t2 43.5q14 1 27 2.5t25 0.5q3 -5 7 -2.5t8 2.5
q33 -1 65 0t69 -1q-2 -16 1.5 -33t-1.5 -34q3 -5 1.5 -11t0.5 -12z" />
    <glyph glyph-name="j" unicode="j" horiz-adv-x="467" 
d="M440 556q2 -24 0.5 -43t-1.5 -44q-5 -5 -11.5 -5t-12.5 0.5t-11.5 -1t-8.5 -9.5q-2 -46 1 -93t1 -91l4 -3q0 -37 -0.5 -75t-14.5 -71q-5 -26 -19.5 -46t-34 -35t-42.5 -24t-45 -13q-37 -7 -72 -2t-67 15q-5 2 -9 8t-10 4q-17 14 -29.5 30t-18.5 35q-12 29 -14 62t0 62
l4 4q26 -2 55 0.5t56 -1.5q2 -23 5 -43.5t11 -42.5q15 -17 38 -20t41 6q10 5 20 15.5t11 23.5q10 23 11.5 49t1.5 49q11 -1 10 7.5t1 13.5q-3 44 -0.5 87.5t2.5 91.5q-1 2 -2.5 4t-3.5 4l-135 1q-7 -4 -9 -10.5t-1.5 -14t1 -15.5t-1.5 -14l-2 -24q-23 -2 -46.5 -3.5
t-43.5 4.5q-2 39 -2 82t2 84l5 7q97 -2 193 -0.5t189 -0.5l5 -5v0z" />
    <glyph glyph-name="k" unicode="k" horiz-adv-x="441" 
d="M312 564l2 4h-3zM314 568h38t36 2q7 -5 6 -11t1 -14q4 -25 -4 -53q-7 2 -16 1.5t-11 -10.5q-8 -26 -12.5 -53t-12.5 -53h-10q9 -53 20 -106.5t22 -107.5q5 -26 11 -54.5t10 -54.5q4 -2 7.5 -2t7.5 0.5t7.5 0.5t6.5 -3q-3 -17 -1 -36.5t-5 -35.5q-43 0 -82 -1t-80 4
q0 19 -1 37t4 36h18q-3 47 -14 91.5t-18 91.5l-2 1q-7 -14 -9.5 -31.5t-6.5 -34.5q-11 -47 -20.5 -94t-19.5 -92q-8 -6 -22 -4t-25 0q-4 3 -3 9.5t1 11.5l14 66l-4 3q-31 1 -60 2t-57 2l-3 3v71q4 4 9 3t10 -1.5t8.5 0.5t3.5 9q2 89 8.5 173.5t9.5 172.5q-7 5 -17 2.5
t-14 5.5q2 18 2 35.5t5 34.5q34 -2 69 -2.5t73 -2.5q8 -2 16 -1.5t13 -7.5l-5 -66q-7 -5 -17 -3.5t-18 -0.5q-1 -48 -4.5 -97.5t-1.5 -95.5q8 17 15.5 35t5.5 38q2 2 5 1.5t6 0.5q4 14 11 27.5t12 28.5q10 4 10.5 11.5t4.5 16.5q4 26 9.5 50t11.5 50q11 1 22 1h23l-1 2h5z
" />
    <glyph glyph-name="l" unicode="l" horiz-adv-x="476" 
d="M465 204q0 -51 1 -98t-1 -97q-99 -6 -194.5 -7.5t-195.5 -1.5q-8 2 -5.5 7t-0.5 10q0 14 -2 33t3 34l25 2q2 22 1.5 42t-2.5 42q-3 1 -7.5 0.5t-8 0t-5.5 2.5t0 8q-6 70 -5 143t-1 143q8 -6 17.5 -0.5t18.5 7.5q-2 7 -0.5 15t-9.5 12l-62 1l-6 4v53l4 3q70 -3 147 -5
t146 -4q6 -12 5.5 -27t-2.5 -29q-9 -4 -18.5 -4.5t-19.5 0.5t-20.5 1.5t-20.5 -0.5q-7 -7 -6 -17q9 2 12.5 -0.5t4.5 -7t1 -10.5t1 -11q-1 -57 0.5 -116t4.5 -117q-2 -10 -3 -18t1 -18q-4 -7 -11.5 -4.5t-13.5 -0.5q-2 -24 -2 -44t5 -42l89 1q6 10 5 24.5t-1 26.5
q0 17 -1 34.5t4 33.5l126 2l3 -6v0z" />
    <glyph glyph-name="m" unicode="m" horiz-adv-x="672" 
d="M662 9q-32 -2 -64.5 -3.5t-63.5 -3.5q-19 45 -40 88.5t-32 91.5q-1 2 -4 2q-13 -35 -19.5 -67t-11.5 -71q2 -5 1 -11t4 -11l-7 -23q-9 -3 -17.5 0.5l-17 7t-16.5 4t-16 -8.5q-17 -4 -37.5 -3.5t-35.5 10.5q-10 -1 -20.5 -3.5t-21 -4t-21 -0.5t-20.5 7q19 16 22.5 35
t0 39.5t-10.5 41t-7 39.5q4 15 11 29t13 28.5t8.5 29.5t-3.5 32q-6 -14 -9 -26.5t-9 -26.5v-2l-3 1q1 5 0 9t-1 9q-6 -7 -10 -16t-9 -17q-18 -30 -33 -63t-37 -62q-18 -29 -33.5 -60t-38.5 -57q-8 3 -10.5 11.5t-9.5 11.5q-6 5 -9 11.5t-6 12.5t-6.5 11t-11.5 8q0 12 4 22
t10 19t12.5 18.5t10.5 19.5q19 29 35.5 59.5t33.5 61.5q5 16 15.5 29t12.5 30q5 5 5 12.5t8 9.5q-1 5 -6 8q10 5 8 13t4 15l7 2l57 151l5 2q27 -6 54.5 -8t54.5 -7q5 -36 6 -74.5t8 -74.5q-5 -2 -11.5 -2t-12.5 -1q2 -28 9 -55q4 -24 10 -47t16 -46q16 25 21.5 54t16.5 57
q4 8 4.5 17.5t5.5 18.5q-12 6 -16.5 2.5t-6 -11t-2.5 -16.5t-4 -14l-17 -52h-6q-2 21 6.5 43.5t14.5 43.5q1 3 -1.5 5t-4.5 3q14 34 25.5 68t23.5 68q3 2 7 1.5t8.5 -1t8 -0.5t5.5 4l27 100q11 1 18 7.5t18 5.5q7 7 14 7q7 -1 8.5 -4.5t1.5 -8t-0.5 -9.5t1.5 -9
q-2 -26 3 -50.5t4 -50.5q-1 -21 -0.5 -44.5t2.5 -41.5q2 -26 3.5 -52t3.5 -52q29 -69 58.5 -137t54.5 -139z" />
    <glyph glyph-name="n" unicode="n" horiz-adv-x="504" 
d="M455 76q-3 -12 -1 -28.5t-5 -29.5q-1 -5 3 -13q-11 -8 -25.5 -5t-27.5 3h-110q-12 31 -25.5 60.5t-25.5 59.5q-14 33 -27.5 66.5t-29.5 65.5l-5 -10q2 -42 0 -78.5t-2 -77.5q3 -3 8 -4t9.5 -1.5t8.5 -2t5 -6.5q-1 -17 -3 -34t0 -35l-4 -3q-37 2 -78 1.5t-79 0.5l-8 2
l-2 71q1 7 5 8.5t9 0.5t10.5 -2t9.5 2q3 108 5 226t3 228q26 2 60.5 2t60.5 -2q23 -42 39.5 -87t36.5 -89q11 -25 21.5 -49.5t24.5 -46.5q4 9 4 18t-0.5 18t-0.5 18.5t3 18.5l6 7q24 5 49.5 -0.5t51.5 -7.5q-2 -66 -3 -128.5t-2 -127.5q3 -5 7.5 -4.5l9 1t8.5 0.5t6 -6z" />
    <glyph glyph-name="o" unicode="o" horiz-adv-x="422" 
d="M365 223q-3 -6 -9 -4.5t-11 -1.5q5 -29 8 -64.5t-11 -64.5q-2 -11 -6.5 -20t-10.5 -19q-45 -52 -112 -60q-48 -5 -90.5 16t-65.5 63q-5 27 -8 67.5t-5 84t-2 84.5t1 67q2 36 13.5 69t35.5 62q8 4 13 9.5t11 10.5q7 -4 10.5 3t9.5 7q12 9 27.5 11t28.5 8q37 -2 72 -17.5
t61 -44.5q3 -13 12.5 -23t11.5 -22q6 -16 8.5 -46t4 -63t1.5 -63.5t2 -48.5zM252 210q-6 2 -12.5 0t-11.5 5q2 15 2.5 42t0 56t-2.5 55.5t-5 40.5q-2 10 -10.5 12t-16.5 4q-12 -14 -16.5 -42.5t-4.5 -61.5t1 -64t0 -48q-25 -6 -51.5 -6t-51.5 -5q5 -22 20.5 -38.5
t35.5 -23.5q15 -1 31.5 -1.5t32.5 2t30.5 9t25.5 19.5q7 8 6 21.5t-3 23.5z" />
    <glyph glyph-name="p" unicode="p" horiz-adv-x="375" 
d="M315 357l-5 -5q4 -31 7.5 -63t-4.5 -60q2 -13 -6 -23t-16 -19q-4 -3 -10 -5.5t-11 -5.5t-7 -7.5t2 -11.5q-17 -2 -33 -4.5t-33 -2.5l-7 -9q6 -41 10.5 -82.5t6.5 -83.5q-26 -5 -56 -8t-62 -6q-5 15 -7 30.5t-3 32t-2 32.5t-5 31q-2 41 -6.5 82t-8.5 82q11 -2 10.5 6.5
t-0.5 13.5q-2 14 -5.5 26t-1.5 27l-15 2l5 5q-2 29 -2.5 61t-2.5 63q-7 2 -13 1t-13 3v64l7 7q35 0 68.5 2t66.5 3.5t65.5 1.5t65.5 -4q14 -5 26.5 -14.5t19.5 -23.5q11 -32 10 -66t0 -69zM222 357q9 44 0 89q-4 8 -10.5 11t-14 3.5t-15 -1t-14.5 -2.5q2 -25 1.5 -54
t0.5 -53q13 2 27 -0.5t25 7.5zM222 342q-17 0 -35 -2.5t-36 -4.5q-3 -1 -3 -7q5 -20 7 -41.5t7 -39.5q12 2 25.5 2t21.5 11q19 16 17.5 38t-4.5 44z" />
    <glyph glyph-name="q" unicode="q" horiz-adv-x="501" 
d="M446 361v-79v-101.5v-101.5t-1 -79l-3 -3h-136q-4 10 -3 19.5t0 20.5q-1 10 -1 38.5v60.5v61v40l-5 4q-10 -5 -19.5 -10t-21.5 -6q-19 -10 -39 -10.5t-43 -2.5q-25 1 -50.5 4.5t-45.5 15.5q-34 8 -57 36t-34 60q-2 5 -1 11t-4 10l1 19q5 2 10.5 1.5t11.5 -1t11 0t8 4.5
q-1 29 5.5 59.5t34.5 50.5q11 14 25 22t30 12q17 11 35.5 13.5t38.5 5.5q21 2 39 0.5t37 -1.5l5 -3q38 -1 74 -22.5t54 -59.5q8 -17 10 -36.5t1 -40.5q-14 -3 -27.5 -3t-26.5 -4l2 -2zM307 366q2 20 -1 40t-13 37q-13 18 -31 26.5t-37.5 9t-39 -6.5t-34.5 -19
q-15 -17 -19.5 -39.5t-0.5 -44.5q3 -1 5.5 0t4.5 -3q1 -14 9 -25t21 -16q12 -11 29.5 -10t31.5 -1q11 5 23.5 7.5t23.5 10.5q10 8 13.5 18.5t14.5 15.5z" />
    <glyph glyph-name="r" unicode="r" horiz-adv-x="570" 
d="M516 399q-4 -28 -13.5 -51.5t-31.5 -40.5q24 -20 31 -48.5t10 -57.5q-7 -35 -11.5 -67.5l-9 -65t-10 -66t-14.5 -69.5q-5 -7 -11.5 -9.5t-14.5 -2.5l-78 13l-9 13q0 31 5 61.5t11 60.5t10.5 60t4.5 60q-4 9 -5.5 20t-12.5 16q-5 0 -9.5 3l-9 6t-9 4t-10.5 -3
q-17 8 -34 -7l-1 -2q-6 2 -6.5 7.5t1 12t1 13t-6.5 9.5q-4 -1 -9 0t-10 1.5t-9 -1.5t-5 -9q-11 -2 -23.5 0.5t-21.5 -4.5q0 -42 -2 -83.5t3 -81.5q11 -2 21.5 -1.5t15.5 -9.5q-3 -18 -2 -38t-2 -40q-51 -2 -103.5 0t-104.5 2q-2 21 -2 42.5t5 42.5q3 4 6.5 3.5t7.5 -1
t7.5 -0.5t6.5 4q4 49 3.5 99t0 100.5t4 100.5t16.5 100q4 6 11 10.5t6 12.5q12 13 26 19t30 9t32.5 4.5t31.5 4.5q29 0 56 -4t56 -12q27 -6 56.5 -16.5t55 -26.5t44.5 -39.5t25 -56.5zM373 401q0 20 -12.5 34t-29.5 22q-14 4 -25 10t-25 8q-14 -5 -26.5 -2.5t-26.5 -3.5
q-47 -17 -44 -66q10 3 15.5 0t7.5 -9t2.5 -13.5t0.5 -13.5q16 1 29.5 -1l27 -4t27.5 -4t31 -2q4 1 7.5 3t8.5 0q26 14 32 42zM281 129q-1 -18 -2 -35t-2 -35q-2 1 -6.5 1h-8t-5.5 2t0 8l2 71q3 -2 8.5 -0.5t9.5 1.5t5.5 -2t-1.5 -11z" />
    <glyph glyph-name="s" unicode="s" horiz-adv-x="509" 
d="M509 422q-17 -11 -38.5 -12.5t-40.5 -8.5q-20 5 -41 6t-40 10q-5 20 -27 27q-31 8 -62.5 -0.5t-54.5 -29.5q-10 -14 -13.5 -30t1.5 -33q-2 -2 -5 -2.5t-2 -4.5q20 -18 44.5 -26.5t49.5 -0.5q5 2 3.5 7t0.5 8q16 4 31.5 3t29.5 -4q10 -7 21 -7q24 -9 40.5 -24.5t28 -36
t17 -43.5t6.5 -47q-5 -11 -4 -25t-7 -24q-14 -35 -41.5 -63t-68.5 -36q-5 1 -9 -0.5t-8 -4t-8 -4.5t-8 -1q-15 -7 -32 -8.5t-34 -4.5q-4 -3 -4 -13q-14 2 -30 5t-31 5q-11 8 -23 13t-25 10q-2 -3 -2.5 -7l-1 -8t-2 -7t-6.5 -4q-17 7 -38.5 4t-36.5 1q-5 -1 -9.5 0.5
t-5.5 6.5q0 36 1.5 73.5t0.5 69.5q25 2 50 2h49q-1 -1 -1 -1.5t-1 -1.5q-2 -22 6 -39.5t27 -28.5q10 -7 21.5 -10.5t23.5 -6.5q5 -2 12 -1.5t13.5 1.5t11 0t4.5 -7q17 6 34 11.5t31 17.5q-3 7 -1 11t6.5 7t9.5 5.5t7 7.5q13 16 18 35.5t1 38.5q-3 23 -22 37t-37 22
q0 10 -5 15q-31 -4 -68.5 0t-66.5 14q-14 4 -26.5 7.5t-23.5 11.5q-9 2 -15 10t-14 13q-10 -2 -19 -5t-19 -1l-4 16q-4 2 -7 -0.5t-5 2.5q3 2 6.5 1.5t5.5 4.5q-6 42 9.5 82.5t50.5 68.5q9 5 15.5 11t14.5 11q13 3 25.5 8t24.5 10t24 8.5t26 3.5q17 8 33.5 4.5t35.5 -2.5
q3 0 7.5 -2t9 -3t9 -0.5t7.5 5.5q-3 13 3 17t15.5 5t20.5 1.5t17 5.5q10 5 21.5 6.5t22.5 3.5q7 8 16.5 7.5t17.5 1.5q2 -5 6 -3.5t6 0.5q11 -42 23 -83.5t21 -84.5z" />
    <glyph glyph-name="t" unicode="t" horiz-adv-x="500" 
d="M480 530q-6 -24 -16 -47t-15 -48q-16 2 -33.5 2t-33.5 1l-48 2q-7 -5 -5 -11q4 -9 1 -19t-1 -21q-3 -54 -4.5 -108t-6.5 -104l-20 -5q-5 -27 -1 -52t6 -53l3 -4q16 1 36 3t34 -1q5 -6 4.5 -12.5t-2 -13t-2 -13t3.5 -13.5q-71 -5 -135.5 -10t-136.5 -10q-7 10 -6 24t0 26
q-2 5 3 6t9 2q14 3 31.5 1.5t28.5 9.5q-5 21 -3.5 45t-3.5 45q5 4 10.5 3.5t9.5 4.5q7 41 6 75t2 74q3 31 3 63t4 65q-3 4 -7.5 3.5t-8.5 0.5l-5 -4q-2 10 -1.5 24t-9.5 22q-29 -2 -48 -1t-35 -1t-31.5 -10.5t-35.5 -30.5q-8 -5 -16.5 -8.5t-17.5 0.5q-6 4 -9 7.5t-7 8.5
q4 25 20.5 46t30.5 43q23 8 50 9.5t51 2.5q20 1 32 1.5t22 1t22 1t33 0.5q11 -4 23.5 -3.5t21.5 -3.5q19 3 38 1t39 -5q4 -4 8.5 -3.5t9.5 2.5q12 1 23.5 0.5t23 -2t22.5 -2t23 1.5q4 -3 9 -3.5t8 -5.5z" />
    <glyph glyph-name="u" unicode="u" horiz-adv-x="492" 
d="M441 2q-25 -4 -47 -4.5t-48 -2.5q-4 8 -4.5 17.5t-2.5 18.5h-9q-19 -20 -42 -31.5t-48 -16t-51 -3t-51 8.5q-2 5 -6.5 3.5t-7.5 1.5q-23 11 -35.5 28t-18.5 37.5t-8 43t-2 43.5q3 -2 4.5 0.5t3.5 3.5q-2 96 -6 189t-9 190l10 6q19 -2 40.5 -1t40.5 6q5 -2 11 -3t7 -7
q3 -93 7 -184.5t6 -185.5q-8 -2 -10 -7t-1.5 -12.5t2.5 -15t1 -13.5q4 -14 11 -27t21 -19q26 -12 54.5 -8t50.5 21q20 15 26 37t4 47q-8 10 -20 8.5t-22 -3.5q-3 41 -4 84t0 81l3 2l5 106q-6 5 -13 4.5t-16 0.5q-6 9 -2 18t2 20q1 7 0.5 19.5t1.5 20.5q43 0 84 -0.5t83 -5.5
q-2 -18 0 -39.5t-6 -39.5q-7 2 -14.5 1t-12.5 -6q1 -26 -1.5 -51.5l-5 -51t-3.5 -51t2 -50.5v-56q5 -5 10 -4.5t10.5 2t10.5 2t10 -3.5q3 -42 4.5 -83.5t0.5 -84.5z" />
    <glyph glyph-name="v" unicode="v" horiz-adv-x="506" 
d="M489 561q-11 -35 -22.5 -68.5t-24.5 -68.5q-22 -63 -43 -125.5t-41 -127.5q4 -5 10.5 -9t4.5 -11q-3 -5 -3.5 -11.5t-1.5 -12.5q-2 -12 -6 -23.5t-5 -24.5q4 -3 8 -3t8 0.5t8 0.5t7 -4v-65l-3 -4q-66 2 -128 -0.5t-129 0.5q-4 17 -2.5 34t2.5 37q6 2 15.5 0t14.5 6
q-13 45 -22 89t-20 91q-4 7 -11.5 5t-12.5 1q-8 25 -14.5 49.5t-14.5 48.5q-1 3 -2.5 5.5t-0.5 5.5q4 2 8 2t6 5q-13 17 -19 36t-21 33h-34q-9 11 -6 22.5t0 24.5l3 3q39 1 68.5 1.5t56.5 0.5t55 0.5t64 0.5q4 -14 3.5 -24t-0.5 -26q-18 -3 -38.5 -1t-38.5 -5q5 -8 7.5 -18
t12.5 -15q7 -1 14 -0.5t14 -1.5q-7 -4 -14.5 -4.5t-12.5 -5.5q8 -35 18.5 -67t18.5 -67q4 -5 7 -9t3 -10l-6 -3q14 -19 17.5 -43t10.5 -47q7 11 7.5 24.5t5.5 24.5q2 5 2.5 11t1.5 11.5t4 9.5t9 6q13 53 33.5 102t32.5 102q9 14 11.5 31.5t11.5 31.5q4 13 13 19t20 10t22 7
t19 11q10 2 17.5 5.5t17.5 5.5l4 -9v0z" />
    <glyph glyph-name="w" unicode="w" horiz-adv-x="628" 
d="M552 19q-1 -6 -4.5 -10.5t-10.5 -2.5q-27 1 -53 -2t-54 0q-8 4 -11 10.5t-8 13.5q-28 44 -51.5 88t-51.5 88q-6 3 -9.5 -2.5t-5.5 -9.5q-7 -11 -13.5 -23t-13.5 -23q-5 3 -3.5 10t-3.5 12q-14 -18 -24.5 -37t-22.5 -37l-9 -3q-32 4 -63.5 6t-63.5 10q-5 10 -6.5 20
t-6.5 20q-16 47 -30.5 93t-28.5 94q11 -1 14.5 4.5t4 14t0.5 17.5t3 16q5 19 7.5 39.5t4.5 41.5t5 41t11 40q4 5 10 3.5t11 -1.5q15 -14 40 -17q13 -2 19.5 -5t11.5 -15q-5 -41 -11 -83t-15 -83q-4 -17 -1 -33.5t8.5 -32t11.5 -31.5t8 -33q3 -3 3 -8t6 -7q6 1 10 5.5t7 9.5
t5.5 10.5t6.5 9.5q11 20 21.5 40t23.5 39q13 8 18 23.5t15 27.5q8 18 17.5 34t18.5 33l5 -1q32 -51 62.5 -103t56.5 -105q2 33 1 67.5t-1 68.5v97q5 7 12.5 5.5t14.5 0.5q23 -1 44.5 0t45.5 2q5 -6 4 -14.5t2 -15.5q-1 -104 1.5 -208t4.5 -209z" />
    <glyph glyph-name="x" unicode="x" horiz-adv-x="400" 
d="M378 11q0 -6 -7 -7q-26 -2 -49.5 0t-48.5 0q-9 15 -15.5 30.5t-14.5 30.5q-5 17 -12 32.5t-15 31.5q1 7 -1 12.5t-4 10.5q-5 -3 -2 -7t0 -8l-6 2q-18 -39 -35.5 -79t-34.5 -80q-30 -1 -59.5 1t-60.5 7q10 34 25 65.5t27 64.5q7 19 14.5 37.5t15.5 35.5q-16 85 -29 171
t-28 171l1 7q31 -2 61 -3.5t60 -3.5q4 -2 2 -5t1 -6q6 -43 15 -83t12 -84q5 -6 4.5 -14t2.5 -15q3 -16 5 -31.5t8 -29.5q4 5 4.5 10t0.5 10l-1 1l1 -1q0 -2 1 -4.5t2 -4.5l1 -2q8 9 10 19.5t9 18.5q4 6 3.5 12.5t6.5 10.5q-2 8 3 11.5t6 9.5q25 2 51 2t48 -3l2 -2
q-10 -38 -31.5 -71.5t-36.5 -69.5q8 -5 6.5 -12t5.5 -12q2 -11 8.5 -19.5t8.5 -19.5q8 -20 18 -38.5t15 -38.5q9 -14 15 -29.5t11 -31.5zM218 234l-1 -7l1 1v6zM207 128v3h1v-3h-1zM205 113l2 7v-6z" />
    <glyph glyph-name="y" unicode="y" horiz-adv-x="540" 
d="M480 527q2 -102 -1.5 -197t-3.5 -194q5 -5 5 -10.5t-2 -11t-5 -11t-3 -11.5q-20 -33 -48.5 -52t-61.5 -28t-69 -9.5t-70 4.5q-20 2 -37.5 11t-37.5 14q-4 -3 -4 -8t-1 -9.5t-3.5 -7.5t-10.5 0q-25 2 -49 -2.5t-47 -0.5q-3 35 -3.5 68t-2.5 67q4 5 10 6t13 1t13.5 -0.5
t11.5 1.5h44q18 -18 40.5 -33t47 -23t50 -8t50.5 12q10 5 15.5 14.5t7.5 19.5q3 8 -1 12.5t-3 11.5q11 -2 21.5 -2t21.5 -2q1 23 2.5 46.5t-6.5 43.5q-10 -2 -19 -7.5t-17 -11.5q-19 -11 -42 -17t-47 -6.5t-48 3.5t-43 13q-17 5 -33.5 20.5t-23.5 33.5l-8 23v243l5 7l5 -5
h96l3 -3v-205q5 -17 20.5 -31.5t33.5 -16.5q29 -3 54 2t45 28q14 16 19.5 34.5t5.5 40.5q0 35 1 77.5t2 77.5q12 -6 24.5 -6.5t26 0t27 1.5t26.5 -2l4 -5v0z" />
    <glyph glyph-name="z" unicode="z" horiz-adv-x="560" 
d="M529 472q-2 -18 -3 -35.5t-3 -35.5q7 -6 6 -11t-5 -9.5t-9.5 -8t-8.5 -6.5q-17 -9 -32.5 -21.5t-30.5 -26t-30.5 -26.5t-32.5 -22l-2 -5q-29 -17 -53 -38.5t-51 -39.5q-1 -8 6.5 -8t12.5 -3q24 3 48.5 2.5t49.5 1.5q30 2 61 -2.5t60 -2.5q5 -7 5.5 -14t-0.5 -14.5
t-2 -14.5t2 -14q-5 -10 -3 -19.5t0 -20.5q-1 -6 -2.5 -15.5t6.5 -11.5q-6 -3 -7 -8.5t0 -11.5t1.5 -11.5t-3.5 -9.5q-2 -8 3.5 -7.5t5.5 -5.5q-5 1 -9.5 0t-9 -2.5t-9 -1.5t-9.5 4q-107 -2 -210 4t-209 6h-12.5t-12.5 -3q1 3 -2.5 5.5t-5.5 3.5q6 2 7.5 7t1 11.5t-1.5 13
t0 11.5q-2 15 0.5 35.5t0.5 35.5q5 13 1.5 24.5t0.5 23.5q2 8 0.5 16.5t-0.5 16.5q32 30 70.5 57.5t73.5 59.5q20 8 35.5 24.5t35.5 24.5q18 13 37.5 19.5t41.5 11.5q5 4 13 5.5t15 3.5t11.5 7t3.5 15l-9 10q-54 -3 -111.5 1t-112.5 2q-5 -3 -5.5 -8.5t-0.5 -11.5t-0.5 -11
t-4.5 -8q-9 2 -17.5 1.5t-16.5 -1.5t-16.5 0t-16.5 6q2 18 1 42.5t2 44.5l10 5q120 -5 233 -6t231 -5q7 -5 4 -10.5t-1 -9.5z" />
    <glyph glyph-name="dieresis" unicode="&#xa8;" 
d="M352 734q-2 -9 0.5 -18.5t-4.5 -17.5q-8 -17 -22.5 -25.5t-33.5 -11.5q-21 -3 -37.5 8t-26.5 26q-9 16 -4 32.5t14 30.5q14 11 29.5 20.5t33.5 0.5q2 -2 4.5 -0.5t4.5 -0.5q5 -4 10.5 -5t10.5 -2.5t9 -4.5t6 -10q-3 -6 0.5 -11t5.5 -11zM180 742q10 -18 3 -37t-19 -32
q-12 -12 -30 -13.5t-34 3.5q-14 9 -27.5 19.5t-9.5 30.5q2 3 -0.5 4.5t-0.5 4.5q3 6 2.5 11t-0.5 9.5t1.5 9t7.5 9.5q7 -1 11 4t9 8q10 2 18.5 7t17.5 0q18 -1 31 -11t20 -27z" />
    <glyph glyph-name="guillemotleft" unicode="&#xab;" horiz-adv-x="348" 
d="M0 252q6 7 14 12t11 14q7 11 16.5 17t15.5 19q11 11 20.5 21.5t20.5 21.5q7 11 16 19.5t16 19.5q6 -1 8.5 -6.5t7.5 -7.5q12 -11 17 -17t18 -16q-20 -23 -34.5 -42t-39.5 -36l-20 -14l23 -21l2 -11l28 -28l35 -44l-59 -61l-2 1l-43 51l3 9q-14 17 -30 34.5t-26 36.5
q-5 7 -9.5 14t-8.5 14zM147 251q5 6 13 11.5t12 14.5q3 5 11.5 14t17.5 19t17 19.5t11 15.5q5 5 5 6t-1 1t-0.5 1t6.5 6q7 11 16 19.5t16 19.5q3 0 10 -5.5t14.5 -11.5t14.5 -11.5t10 -6.5q6 -6 5.5 -7t-2 -1t-1.5 -1t6 -6l-74 -79l-21 -13l24 -21l2 -11l27 -28l36 -44
l-40 -72l-2 1l-51 71h-9q-14 17 -29.5 34.5t-26.5 36.5q-5 7 -9.5 14t-7.5 14z" />
    <glyph glyph-name="acute" unicode="&#xb4;" 
d="M134 646q1 -2 9 11t17 30l24 44q4 2 7 4l6 4q-2 0 2.5 8t10.5 18l16 26l11 23l76 -34l11 -18q4 -17 -11.5 -42t-36 -47t-38.5 -37t-18 -13q-25 8 -44 13q-17 5 -30 8t-12 2z" />
    <glyph glyph-name="cedilla" unicode="&#xb8;" 
d="M145 -68q0 8 2.5 15.5t0.5 15.5q0 5 1 6.5t2 2.5t2 3t0 7q1 11 1 14.5t-0.5 5.5t-1 5.5t-0.5 14.5q5 4 9 2t9 0q15 2 30 2t29 3l-4 -66l33 -8l32 -24l22 -32l-2 -1h-18q9 -3 19 -3q1 -11 1 -24t-3 -27t-10.5 -27t-20.5 -23q-27 -22 -63.5 -24.5t-68.5 10.5
q-20 8 -33 26.5t-16 38.5q-1 5 -1.5 10.5t1.5 9.5q-3 5 -1.5 6.5t4.5 2t6.5 1.5t4.5 5q5 0 7.5 3.5t7.5 2.5l42 -1q0 -2 1.5 -5t-2.5 -5q0 -1 3 -1q0 -8 2 -16.5t7 -15.5q8 -7 18.5 -8t20.5 1q12 6 13.5 16.5t3.5 30.5l-3 18l-28 24q-9 1 -12.5 1t-5.5 0.5t-5 1.5t-11 3h-13
t-12 2z" />
    <glyph glyph-name="guillemotright" unicode="&#xbb;" horiz-adv-x="348" 
d="M348 226q-6 -7 -14 -12t-11 -14q-7 -11 -16.5 -17t-15.5 -19q-11 -11 -20.5 -21.5t-20.5 -21.5q-7 -11 -16 -19.5t-16 -19.5q-6 1 -8.5 6.5t-7.5 7.5q-6 6 -10 9.5t-7.5 7l-7.5 7.5t-10 9q20 23 34.5 42t39.5 36l20 14l-23 21l-2 11l-28 28l-35 44l59 61l2 -1l43 -51
l-3 -9q14 -17 30 -34.5t26 -36.5q5 -7 9.5 -14t8.5 -14zM201 227q-5 -6 -13 -11.5t-12 -14.5q-3 -5 -11.5 -14t-17.5 -19t-17 -19.5t-11 -15.5q-5 -5 -5 -6t1 -1t0.5 -1t-6.5 -6q-7 -11 -16 -19.5t-16 -19.5q-3 0 -10 5.5t-14.5 11.5t-14.5 11.5t-10 6.5q-6 6 -5.5 7t2 1
t1.5 1t-6 6l74 79l21 13l-24 21l-2 11l-27 28l-36 44l40 72l2 -1l51 -71h9q14 -17 29.5 -34.5t26.5 -36.5q5 -7 9.5 -14t7.5 -14z" />
    <glyph glyph-name="Agrave" unicode="&#xc0;" horiz-adv-x="652" 
d="M648 -4q-8 -2 -13.5 -1.5t-12.5 0.5q-13 11 -25.5 8t-25 -8.5t-25.5 -8.5t-26 7q-8 1 -14.5 -1t-13.5 -5t-14 -5t-15 0q1 11 5.5 21.5t4.5 21.5q-4 36 -12 76q-25 0 -36.5 1.5t-20.5 3t-22 2t-42 0.5q-2 -2 -2 -4.5t-1 -4.5q-38 0 -62.5 -3t-49.5 -5q-7 -17 -14.5 -33.5
t-12.5 -33.5t-6.5 -35t3.5 -36q-11 -2 -20.5 4.5t-18.5 12.5q-9 9 -18.5 11t-20 2t-20.5 1.5t-20 9.5q-6 12 -16 14.5t-21.5 3t-22 2t-18.5 12.5q2 3 5.5 4.5t6.5 3.5q37 38 61.5 83t47.5 92q5 9 5 21.5t-5 20.5q4 7 15.5 27.5t26.5 46.5q25 60 53.5 118t50.5 118
q37 2 75 -0.5t76 -0.5l9 -5q8 -22 17 -42t16 -43q10 -16 16 -34t12.5 -35.5t16 -33.5t26.5 -27q-6 -13 -5.5 -26t3.5 -26t7 -26.5t6 -26.5q40 -105 87 -207q6 -7 14 -14t6 -18zM526 206h10.5t-4.5 0h-13h-15h22zM435 206q-3 11 -6 21t-7 21q-6 19 -11.5 41t-15.5 40
q-5 17 -11.5 34.5t-8.5 34.5q-7 0 -10 4.5t-4.5 10.5t-4 12t-8.5 8q-21 -29 -33.5 -64t-30.5 -67q2 -26 -4.5 -51t-16.5 -49q11 1 23 2t30 1h1l2 4q6 0 17.5 -1t25 -1.5t25 -1t17.5 -0.5h15.5t15.5 1zM425 641q1 2 -13.5 -1.5t-31.5 -8.5q-20 -5 -46 -13l-110 142l11 18
l87 38l11 -23q4 -2 8 -3q8 -2 7 -2t9.5 -20t23.5 -43q15 -28 35 -63q1 -7 3 -12q4 -11 6 -9z" />
    <glyph glyph-name="Aacute" unicode="&#xc1;" horiz-adv-x="652" 
d="M648 -4q-8 -2 -13.5 -1.5t-12.5 0.5q-13 11 -25.5 8t-25 -8.5t-25.5 -8.5t-26 7q-8 1 -14.5 -1t-13.5 -5t-14 -5t-15 0q1 11 5.5 21.5t4.5 21.5q-4 36 -12 76q-25 0 -36.5 1.5t-20.5 3t-22 2t-42 0.5q-2 -2 -2 -4.5t-1 -4.5q-38 0 -62.5 -3t-49.5 -5q-7 -17 -14.5 -33.5
t-12.5 -33.5t-6.5 -35t3.5 -36q-11 -2 -20.5 4.5t-18.5 12.5q-9 9 -18.5 11t-20 2t-20.5 1.5t-20 9.5q-6 12 -16 14.5t-21.5 3t-22 2t-18.5 12.5q2 3 5.5 4.5t6.5 3.5q37 38 61.5 83t47.5 92q5 9 5 21.5t-5 20.5q4 7 15.5 27.5t26.5 46.5q25 60 53.5 118t50.5 118
q37 2 75 -0.5t76 -0.5l9 -5q8 -22 17 -42t16 -43q10 -16 16 -34t12.5 -35.5t16 -33.5t26.5 -27q-6 -13 -5.5 -26t3.5 -26t7 -26.5t6 -26.5q40 -105 87 -207q6 -7 14 -14t6 -18zM526 206h10.5t-4.5 0h-13h-15h22zM435 206q-3 11 -6 21t-7 21q-6 19 -11.5 41t-15.5 40
q-5 17 -11.5 34.5t-8.5 34.5q-7 0 -10 4.5t-4.5 10.5t-4 12t-8.5 8q-21 -29 -33.5 -64t-30.5 -67q2 -26 -4.5 -51t-16.5 -49q11 1 23 2t30 1h1l2 4q6 0 17.5 -1t25 -1.5t25 -1t17.5 -0.5h15.5t15.5 1zM276 646q1 -2 9 11t17 30l24 44q4 2 7 4l6 4q-2 0 2.5 8t10.5 18l16 26
l11 23l76 -34l11 -18q4 -17 -11.5 -42t-36 -47t-38.5 -37t-18 -13q-25 8 -44 13q-17 5 -30 8t-12 2z" />
    <glyph glyph-name="Acircumflex" unicode="&#xc2;" horiz-adv-x="652" 
d="M648 -4q-8 -2 -13.5 -1.5t-12.5 0.5q-13 11 -25.5 8t-25 -8.5t-25.5 -8.5t-26 7q-8 1 -14.5 -1t-13.5 -5t-14 -5t-15 0q1 11 5.5 21.5t4.5 21.5q-4 36 -12 76q-25 0 -36.5 1.5t-20.5 3t-22 2t-42 0.5q-2 -2 -2 -4.5t-1 -4.5q-38 0 -62.5 -3t-49.5 -5q-7 -17 -14.5 -33.5
t-12.5 -33.5t-6.5 -35t3.5 -36q-11 -2 -20.5 4.5t-18.5 12.5q-9 9 -18.5 11t-20 2t-20.5 1.5t-20 9.5q-6 12 -16 14.5t-21.5 3t-22 2t-18.5 12.5q2 3 5.5 4.5t6.5 3.5q37 38 61.5 83t47.5 92q5 9 5 21.5t-5 20.5q4 7 15.5 27.5t26.5 46.5q25 60 53.5 118t50.5 118
q37 2 75 -0.5t76 -0.5l9 -5q8 -22 17 -42t16 -43q10 -16 16 -34t12.5 -35.5t16 -33.5t26.5 -27q-6 -13 -5.5 -26t3.5 -26t7 -26.5t6 -26.5q40 -105 87 -207q6 -7 14 -14t6 -18zM526 206h10.5t-4.5 0h-13h-15h22zM435 206q-3 11 -6 21t-7 21q-6 19 -11.5 41t-15.5 40
q-5 17 -11.5 34.5t-8.5 34.5q-7 0 -10 4.5t-4.5 10.5t-4 12t-8.5 8q-21 -29 -33.5 -64t-30.5 -67q2 -26 -4.5 -51t-16.5 -49q11 1 23 2t30 1h1l2 4q6 0 17.5 -1t25 -1.5t25 -1t17.5 -0.5h15.5t15.5 1zM385 642q1 1 -3.5 11.5t-9.5 21.5l-14 30q-1 -3 -6.5 10t-16.5 33
q-12 -20 -24.5 -41t-22 -38.5t-15.5 -28t-6 -8.5q-24 3 -43 7q-17 3 -31.5 5t-16.5 2q3 3 11.5 17t16.5 29q10 18 21 39q4 2 7 4l6 4q-2 0 2.5 8t10.5 18l16 26l11 23l22 2l92 -2l11 -23l32 -52q12 -20 21.5 -35.5t8.5 -15.5t1.5 -4.5t4.5 -9.5l6 -14q-27 -7 -47 -11
q-17 -4 -32 -6.5t-13 -0.5zM176 646h-1h1z" />
    <glyph glyph-name="Adieresis" unicode="&#xc4;" horiz-adv-x="577" 
d="M414 704q-2 -25 -2.5 -46.5t-2.5 -45.5q-15 -4 -31.5 -2t-33.5 2q-2 -3 -2.5 -8.5t1.5 -10.5q7 -4 15 -2.5t16 -0.5q-33 -8 -61 7q-16 11 -26 29.5t-5 38.5q3 4 1.5 6.5t-0.5 6.5q10 15 23.5 30t35.5 12l2 -9q16 -4 35.5 -2.5t34.5 -4.5zM203 621q-34 -8 -70.5 -10.5
t-71.5 -7.5q-9 20 -10.5 42t-9.5 43l5 6q35 5 69.5 8t70.5 6l4 -3q-2 -21 5 -41.5t8 -42.5zM589 29q-10 -11 -22.5 -11.5t-25.5 0.5t-24.5 -0.5t-20.5 -13.5q-12 -8 -24 -8.5t-23.5 0.5t-23 0.5t-22.5 -9.5q-11 -6 -22.5 -11.5t-24.5 -2.5q10 25 5.5 58t-15 68t-22.5 67.5
t-18 56.5q-6 14 -10 28t-9 28l-5 -6l-35 5q-2 -5 -2.5 -2t-1.5 8.5t-2 10t-3 2.5q-7 -8 -11 -6t-18 3h-2l-1 -16h-1l-1.5 -3t1.5 3h-6q-1 -6 -1.5 -10.5t-1.5 -6t-1.5 2t-1.5 14.5h6v6q-5 0 -4.5 -0.5t2 -0.5t1.5 -0.5t-5 -0.5q-3 -10 -8 -32t-9 -46t-5.5 -45.5t3.5 -30.5
q-2 -16 1 -31t-1 -29q2 -8 10 -10.5t16 -2.5q10 0 20 3l5 -58q-10 -2 -29 -3q-17 -1 -47 -1.5t-80 -0.5h-49l-4 4q2 11 -0.5 25.5t1.5 23.5q12 4 28 1.5t27 5.5l-2 58l9 7q-8 12 -3.5 25t3.5 27q1 35 5.5 70.5t9.5 70.5q-25 20 -38 47.5t-11 61.5q5 32 18 59.5t38 46.5
q46 28 97.5 29t99.5 -16q5 -3 10 -5q5 1 10 1.5t10 0.5l2 5q22 1 43.5 -0.5t41.5 -4.5l3 -5v-18q14 -10 24.5 -22t17.5 -27q11 -21 10 -43.5t-7 -45.5l1 -5q-5 -2 -13 -0.5t-13 -3.5q9 -20 19.5 -39t18.5 -39q-6 -9 -7.5 -22.5t3.5 -24.5q20 -54 43.5 -105.5t61.5 -98.5
q3 -2 7 -4.5t5 -5.5zM313 429q-1 6 -8 13q1 -1 3 -1q-2 1 -3.5 2t-3.5 2q-2 2 -4 3.5t-4 2.5l-2 1q-25 14 -55 16.5t-53 -15.5q-8 -5 -11 -14t-6 -17q-1 -16 9.5 -26.5t21.5 -17.5q2 1 8 -3q1 -2 1.5 -4t1.5 -5l82 1q2 2 5.5 3.5t1.5 6.5q-1 6 -6 8.5t-10 2.5q6 1 12.5 2
t12.5 2q9 6 7.5 17.5t-0.5 19.5zM205 278l-1 8q2 1 2 -2.5t-1 -5.5z" />
    <glyph glyph-name="AE" unicode="&#xc6;" horiz-adv-x="641" 
d="M631 552q1 -32 1 -70t-4 -73q-18 -1 -38 -2t-40 1q-8 4 -17.5 3.5t-17.5 4.5q0 17 2.5 34t-2.5 34q-21 -2 -41 0t-40 -3q0 -27 0.5 -54t-1.5 -53l3 -2l82 -3q1 -6 1 -13t-3 -12q-38 4 -77 5.5t-78 8.5q-2 0 -5 4q-1 -1 -1.5 -1t-1.5 -1q2 -5 5 -9.5t5 -9.5q48 -2 95 -4.5
t96 -2.5q0 -18 0.5 -40t-1.5 -42q-4 -5 -8 -2.5t-8 2.5q-14 6 -31 4q-14 5 -26.5 0t-26.5 -7q-20 -9 -25 -23.5t-5 -31.5t2 -34.5t-2 -33.5l-11 -5q4 -4 4 -9.5t3 -9.5q29 -1 59.5 3t61.5 7q14 2 28.5 3t28.5 5q3 -9 4 -17.5t3 -17.5q-2 -16 1 -32.5t-1 -30.5
q-14 -7 -30.5 -5t-30.5 -1q-59 -6 -118 -9.5t-118 -11.5q-9 6 -5.5 18.5t1.5 22.5q-4 15 -4 31.5t-2 32.5q-4 7 -10 4t-10 2q4 40 4.5 82.5t1.5 84.5l-2 6l-5 -6l-35 5q-2 -5 -2.5 -2t-1.5 8.5t-2 10t-3 2.5q-7 -8 -11 -6t-18 3h-2l-1 -16h-1q-1 -2 -1 -3t1 3h-6
q-1 -6 -1.5 -10.5t-1 -6t-1.5 2t-2 14.5h6v6q-5 0 -4.5 -0.5t2 -0.5t1.5 -0.5t-5 -0.5q-3 -10 -8 -32t-8.5 -46t-5 -45.5t3.5 -30.5q-2 -16 0.5 -31t-0.5 -29q2 -8 9.5 -10.5t15.5 -2.5q9 0 20 3l6 -58q-9 -2 -29 -3q-17 -1 -47.5 -1.5t-80.5 -0.5h-49l-4 4q2 11 -0.5 25.5
t1.5 23.5q12 4 28 1.5t27 5.5l-2 58l9 7q-8 12 -3 25t3 27q1 35 5.5 70.5t9.5 70.5q-25 20 -38 47.5t-11 61.5q5 32 18 59.5t38 46.5q46 28 97.5 29t99.5 -16q5 -3 10 -5q5 1 10 1.5t11 0.5v1l1 18h38t33 -0.5l32 -1t34 -0.5q3 -1 7 -2t7 1h78t78 -2zM307 429q-1 5 -7 13
q0 -1 2 -1q-2 1 -3 2t-3 2q-2 2 -4.5 3.5t-4.5 2.5l-2 1q-25 14 -55 16.5t-53 -15.5q-8 -5 -10.5 -14t-6.5 -17q-1 -16 9.5 -26.5t21.5 -17.5q4 1 8 -3q1 -2 1.5 -4t1.5 -5l82 1q2 2 5.5 3.5t1.5 6.5q0 6 -5 8.5t-11 2.5q6 1 12.5 2t12.5 2q10 6 8.5 17.5t-1.5 19.5z" />
    <glyph glyph-name="Ccedilla" unicode="&#xc7;" horiz-adv-x="509" 
d="M238 -78q0 8 2.5 15.5t0.5 15.5q0 5 1 6.5t2 2.5t2 3t0 7q-43 2 -81 20t-64 67q-9 10 -12 22.5t-10 23.5q-2 8 -5 14.5t-5 14.5q-2 14 -5 28t-2 27q-3 4 -8 4t-8 -2q-5 -4 -14 -4q-5 15 -9.5 31t-7.5 33q-6 39 -2.5 79.5t16.5 78t35.5 69t55.5 52.5t71 31.5t77.5 10.5
t78 -9.5t72.5 -26.5q19 -10 36.5 -23.5t31.5 -28.5q-2 -13 -10 -23t-13 -22q-8 -7 -12.5 -15.5l-9 -17t-9.5 -17t-14 -14.5q-5 -2 -9 1t-7.5 7.5t-7 8.5t-7.5 5q-29 20 -63.5 28.5t-71.5 3.5l-11 39q-22 2 -39 -6.5t-33 -22.5q-29 -48 -33.5 -102t13.5 -110q9 2 17 6.5
t18 2.5q-2 -42 12 -79t43 -63q24 -22 50.5 -24.5t54 2.5t55.5 13t56 7q5 5 6 4q2 -24 9 -47t8 -49q-21 -5 -44 -8.5t-44 -5.5q-17 -2 -35 -4.5t-37 -4.5l-1 -24l33 -8l32 -24l22 -32l-2 -1h-18q9 -3 19 -3q1 -11 1 -24t-3 -27t-10.5 -27t-20.5 -23q-27 -22 -63.5 -24.5
t-68.5 10.5q-20 8 -33 26.5t-16 38.5q-1 5 -1.5 10.5t1.5 9.5q-3 5 -1.5 6.5t4.5 2t6.5 1.5t4.5 5q5 0 7.5 3.5t7.5 2.5l42 -1q0 -2 1.5 -5t-2.5 -5q0 -1 3 -1q0 -8 2 -16.5t7 -15.5q8 -7 18.5 -8t20.5 1q12 6 13.5 16.5t3.5 30.5l-3 18l-28 24q-9 1 -12.5 1t-5.5 0.5
t-5 1.5t-11 3h-13t-12 2z" />
    <glyph glyph-name="Egrave" unicode="&#xc8;" horiz-adv-x="424" 
d="M397 552q1 -32 1 -70t-4 -73q-18 -1 -38 -2t-40 1q-8 4 -17.5 3.5t-17.5 4.5q0 17 2.5 34t-2.5 34q-21 -2 -41 0t-39 -3v-54t-2 -53l3 -2l82 -3q2 -6 2 -13t-4 -12q-38 4 -76.5 5.5t-78.5 8.5q-4 0 -6 5.5t-5 10.5t-7 7.5t-11 -2.5q0 -4 2.5 -6t5.5 -3.5t4.5 -3.5t0.5 -7
q-6 2 -13.5 1t-13.5 3q1 29 2.5 60.5t0.5 61.5q-6 4 -15 1.5t-15 4.5l3 66q42 1 86 0t82 -2q3 -1 6.5 -2t7.5 1h77.5t77.5 -2zM370 22q-14 -7 -30.5 -5t-30.5 -1q-59 -6 -118 -9.5t-118 -11.5q-9 6 -5.5 18.5t1.5 22.5q-4 15 -4 31.5t-2 32.5q-4 7 -10 4t-10 2q6 57 5.5 119
t4.5 119q68 -2 133.5 -5.5t133.5 -4.5q-1 -18 0 -40t-1 -42q-4 -5 -8 -2.5t-8 2.5q-7 3 -15 4t-16 0q-13 5 -26 0t-27 -7q-20 -9 -25 -23.5t-4.5 -31.5t2.5 -34.5t-2 -33.5l-12 -5q4 -4 4 -9.5t3 -9.5q29 -1 60 3t61 7q14 2 28.5 3t28.5 5q3 -9 4 -17.5t3 -17.5
q-1 -16 1.5 -32.5t-1.5 -30.5zM311 641q1 2 -13.5 -1.5t-31.5 -8.5q-20 -5 -46 -13l-110 142l11 18l87 38l11 -23q4 -2 8 -3q8 -2 7 -2t9.5 -20t23.5 -43q15 -28 35 -63q1 -7 3 -12q4 -11 6 -9z" />
    <glyph glyph-name="Eacute" unicode="&#xc9;" horiz-adv-x="424" 
d="M397 552q1 -32 1 -70t-4 -73q-18 -1 -38 -2t-40 1q-8 4 -17.5 3.5t-17.5 4.5q0 17 2.5 34t-2.5 34q-21 -2 -41 0t-39 -3v-54t-2 -53l3 -2l82 -3q2 -6 2 -13t-4 -12q-38 4 -76.5 5.5t-78.5 8.5q-4 0 -6 5.5t-5 10.5t-7 7.5t-11 -2.5q0 -4 2.5 -6t5.5 -3.5t4.5 -3.5t0.5 -7
q-6 2 -13.5 1t-13.5 3q1 29 2.5 60.5t0.5 61.5q-6 4 -15 1.5t-15 4.5l3 66q42 1 86 0t82 -2q3 -1 6.5 -2t7.5 1h77.5t77.5 -2zM370 22q-14 -7 -30.5 -5t-30.5 -1q-59 -6 -118 -9.5t-118 -11.5q-9 6 -5.5 18.5t1.5 22.5q-4 15 -4 31.5t-2 32.5q-4 7 -10 4t-10 2q6 57 5.5 119
t4.5 119q68 -2 133.5 -5.5t133.5 -4.5q-1 -18 0 -40t-1 -42q-4 -5 -8 -2.5t-8 2.5q-7 3 -15 4t-16 0q-13 5 -26 0t-27 -7q-20 -9 -25 -23.5t-4.5 -31.5t2.5 -34.5t-2 -33.5l-12 -5q4 -4 4 -9.5t3 -9.5q29 -1 60 3t61 7q14 2 28.5 3t28.5 5q3 -9 4 -17.5t3 -17.5
q-1 -16 1.5 -32.5t-1.5 -30.5zM163 646q1 -2 9 11t17 30l24 44q4 2 7 4l6 4q-2 0 2.5 8t10.5 18l16 26l11 23l76 -34l11 -18q4 -17 -11.5 -42t-36 -47t-38.5 -37t-18 -13q-25 8 -44 13q-17 5 -30 8t-12 2z" />
    <glyph glyph-name="Ecircumflex" unicode="&#xca;" horiz-adv-x="424" 
d="M397 552q1 -32 1 -70t-4 -73q-18 -1 -38 -2t-40 1q-8 4 -17.5 3.5t-17.5 4.5q0 17 2.5 34t-2.5 34q-21 -2 -41 0t-39 -3v-54t-2 -53l3 -2l82 -3q2 -6 2 -13t-4 -12q-38 4 -76.5 5.5t-78.5 8.5q-4 0 -6 5.5t-5 10.5t-7 7.5t-11 -2.5q0 -4 2.5 -6t5.5 -3.5t4.5 -3.5t0.5 -7
q-6 2 -13.5 1t-13.5 3q1 29 2.5 60.5t0.5 61.5q-6 4 -15 1.5t-15 4.5l3 66q42 1 86 0t82 -2q3 -1 6.5 -2t7.5 1h77.5t77.5 -2zM370 22q-14 -7 -30.5 -5t-30.5 -1q-59 -6 -118 -9.5t-118 -11.5q-9 6 -5.5 18.5t1.5 22.5q-4 15 -4 31.5t-2 32.5q-4 7 -10 4t-10 2q6 57 5.5 119
t4.5 119q68 -2 133.5 -5.5t133.5 -4.5q-1 -18 0 -40t-1 -42q-4 -5 -8 -2.5t-8 2.5q-7 3 -15 4t-16 0q-13 5 -26 0t-27 -7q-20 -9 -25 -23.5t-4.5 -31.5t2.5 -34.5t-2 -33.5l-12 -5q4 -4 4 -9.5t3 -9.5q29 -1 60 3t61 7q14 2 28.5 3t28.5 5q3 -9 4 -17.5t3 -17.5
q-1 -16 1.5 -32.5t-1.5 -30.5zM272 642q1 1 -3.5 11.5t-9.5 21.5l-14 30q-1 -3 -6.5 10t-16.5 33q-12 -20 -24.5 -41t-22 -38.5t-15.5 -28t-6 -8.5q-24 3 -43 7q-17 3 -31.5 5t-16.5 2q3 3 11.5 17t16.5 29q10 18 21 39q4 2 7 4l6 4q-2 0 2.5 8t10.5 18l16 26l11 23l22 2
l92 -2l11 -23l32 -52q12 -20 21.5 -35.5t8.5 -15.5t1.5 -4.5t4.5 -9.5l6 -14q-27 -7 -47 -11q-17 -4 -32 -6.5t-13 -0.5zM63 646h-1h1z" />
    <glyph glyph-name="Edieresis" unicode="&#xcb;" horiz-adv-x="424" 
d="M397 552q1 -32 1 -70t-4 -73q-18 -1 -38 -2t-40 1q-8 4 -17.5 3.5t-17.5 4.5q0 17 2.5 34t-2.5 34q-21 -2 -41 0t-39 -3v-54t-2 -53l3 -2l82 -3q2 -6 2 -13t-4 -12q-38 4 -76.5 5.5t-78.5 8.5q-4 0 -6 5.5t-5 10.5t-7 7.5t-11 -2.5q0 -4 2.5 -6t5.5 -3.5t4.5 -3.5t0.5 -7
q-6 2 -13.5 1t-13.5 3q1 29 2.5 60.5t0.5 61.5q-6 4 -15 1.5t-15 4.5l3 66q42 1 86 0t82 -2q3 -1 6.5 -2t7.5 1h77.5t77.5 -2zM370 22q-14 -7 -30.5 -5t-30.5 -1q-59 -6 -118 -9.5t-118 -11.5q-9 6 -5.5 18.5t1.5 22.5q-4 15 -4 31.5t-2 32.5q-4 7 -10 4t-10 2q6 57 5.5 119
t4.5 119q68 -2 133.5 -5.5t133.5 -4.5q-1 -18 0 -40t-1 -42q-4 -5 -8 -2.5t-8 2.5q-7 3 -15 4t-16 0q-13 5 -26 0t-27 -7q-20 -9 -25 -23.5t-4.5 -31.5t2.5 -34.5t-2 -33.5l-12 -5q4 -4 4 -9.5t3 -9.5q29 -1 60 3t61 7q14 2 28.5 3t28.5 5q3 -9 4 -17.5t3 -17.5
q-1 -16 1.5 -32.5t-1.5 -30.5zM357 734q-2 -9 0.5 -18.5t-4.5 -17.5q-8 -17 -22.5 -25.5t-33.5 -11.5q-21 -3 -37.5 8t-26.5 26q-9 16 -4 32.5t14 30.5q14 11 29.5 20.5t33.5 0.5q2 -2 4.5 -0.5t4.5 -0.5q5 -4 10.5 -5t10.5 -2.5t9 -4.5t6 -10q-3 -6 0.5 -11t5.5 -11z
M185 742q10 -18 3 -37t-19 -32q-12 -12 -30 -13.5t-34 3.5q-14 9 -27.5 19.5t-9.5 30.5q2 3 -0.5 4.5t-0.5 4.5q3 6 2.5 11t-0.5 9.5t1.5 9t7.5 9.5q7 -1 11 4t9 8q10 2 18.5 7t17.5 0q18 -1 31 -11t20 -27z" />
    <glyph glyph-name="Igrave" unicode="&#xcc;" horiz-adv-x="286" 
d="M233 72q-2 -14 -1.5 -31.5t0.5 -33.5q-2 -5 -4.5 -6t-5.5 -0.5t-6 1.5t-6 0q-32 0 -67 -0.5t-67 -0.5q-7 2 -15 0t-14 3q1 19 -1 37.5t5 35.5q5 -2 12.5 -0.5t12.5 1.5q2 45 1 95t1 96q-2 5 -6 5.5t-7 1.5l6 270q2 6 5 9t8 7q23 -1 48.5 -0.5t45.5 -0.5q6 -2 15.5 -1
t11.5 -9q-2 -16 1 -32.5t-2 -30.5q-4 -54 -5 -109.5t-3 -109.5l7 -5q2 -45 -0.5 -90.5t-0.5 -90.5q3 -4 7 -4.5t8.5 -0.5t8.5 -1t7 -5zM214 641q1 2 -13.5 -1.5t-31.5 -8.5q-20 -5 -46 -13l-110 142l11 18l87 38l11 -23q4 -2 8 -3q8 -2 7 -2t9.5 -20t23.5 -43q15 -28 35 -63
q1 -7 3 -12q4 -11 6 -9z" />
    <glyph glyph-name="Iacute" unicode="&#xcd;" horiz-adv-x="286" 
d="M233 72q-2 -14 -1.5 -31.5t0.5 -33.5q-2 -5 -4.5 -6t-5.5 -0.5t-6 1.5t-6 0q-32 0 -67 -0.5t-67 -0.5q-7 2 -15 0t-14 3q1 19 -1 37.5t5 35.5q5 -2 12.5 -0.5t12.5 1.5q2 45 1 95t1 96q-2 5 -6 5.5t-7 1.5l6 270q2 6 5 9t8 7q23 -1 48.5 -0.5t45.5 -0.5q6 -2 15.5 -1
t11.5 -9q-2 -16 1 -32.5t-2 -30.5q-4 -54 -5 -109.5t-3 -109.5l7 -5q2 -45 -0.5 -90.5t-0.5 -90.5q3 -4 7 -4.5t8.5 -0.5t8.5 -1t7 -5zM65 646q1 -2 9 11t17 30l24 44q4 2 7 4l6 4q-2 0 2.5 8t10.5 18l16 26l11 23l76 -34l11 -18q4 -17 -11.5 -42t-36 -47t-38.5 -37t-18 -13
q-25 8 -44 13q-17 5 -30 8t-12 2z" />
    <glyph glyph-name="Icircumflex" unicode="&#xce;" horiz-adv-x="286" 
d="M233 72q-2 -14 -1.5 -31.5t0.5 -33.5q-2 -5 -4.5 -6t-5.5 -0.5t-6 1.5t-6 0q-32 0 -67 -0.5t-67 -0.5q-7 2 -15 0t-14 3q1 19 -1 37.5t5 35.5q5 -2 12.5 -0.5t12.5 1.5q2 45 1 95t1 96q-2 5 -6 5.5t-7 1.5l6 270q2 6 5 9t8 7q23 -1 48.5 -0.5t45.5 -0.5q6 -2 15.5 -1
t11.5 -9q-2 -16 1 -32.5t-2 -30.5q-4 -54 -5 -109.5t-3 -109.5l7 -5q2 -45 -0.5 -90.5t-0.5 -90.5q3 -4 7 -4.5t8.5 -0.5t8.5 -1t7 -5zM203 642q1 1 -3.5 11.5t-9.5 21.5l-14 30q-1 -3 -6.5 10t-16.5 33q-12 -20 -24.5 -41t-22 -38.5t-15.5 -28t-6 -8.5q-24 3 -43 7
q-17 3 -31.5 5t-16.5 2q3 3 11.5 17t16.5 29q10 18 21 39q4 2 7 4l6 4q-2 0 2.5 8t10.5 18l16 26l11 23l22 2l92 -2l11 -23l32 -52q12 -20 21.5 -35.5t8.5 -15.5t1.5 -4.5t4.5 -9.5l6 -14q-27 -7 -47 -11q-17 -4 -32 -6.5t-13 -0.5zM-6 646h-1h1z" />
    <glyph glyph-name="Idieresis" unicode="&#xcf;" horiz-adv-x="286" 
d="M233 72q-2 -14 -1.5 -31.5t0.5 -33.5q-2 -5 -4.5 -6t-5.5 -0.5t-6 1.5t-6 0q-32 0 -67 -0.5t-67 -0.5q-7 2 -15 0t-14 3q1 19 -1 37.5t5 35.5q5 -2 12.5 -0.5t12.5 1.5q2 45 1 95t1 96q-2 5 -6 5.5t-7 1.5l6 270q2 6 5 9t8 7q23 -1 48.5 -0.5t45.5 -0.5q6 -2 15.5 -1
t11.5 -9q-2 -16 1 -32.5t-2 -30.5q-4 -54 -5 -109.5t-3 -109.5l7 -5q2 -45 -0.5 -90.5t-0.5 -90.5q3 -4 7 -4.5t8.5 -0.5t8.5 -1t7 -5zM290 734q-2 -9 0.5 -18.5t-4.5 -17.5q-8 -17 -22.5 -25.5t-33.5 -11.5q-21 -3 -37.5 8t-26.5 26q-9 16 -4 32.5t14 30.5q14 11 29.5 20.5
t33.5 0.5q2 -2 4.5 -0.5t4.5 -0.5q5 -4 10.5 -5t10.5 -2.5t9 -4.5t6 -10q-3 -6 0.5 -11t5.5 -11zM118 742q10 -18 3 -37t-19 -32q-12 -12 -30 -13.5t-34 3.5q-14 9 -27.5 19.5t-9.5 30.5q2 3 -0.5 4.5t-0.5 4.5q3 6 2.5 11t-0.5 9.5t1.5 9t7.5 9.5q7 -1 11 4t9 8
q10 2 18.5 7t17.5 0q18 -1 31 -11t20 -27z" />
    <glyph glyph-name="Ograve" unicode="&#xd2;" horiz-adv-x="530" 
d="M476 176q-5 -16 -8.5 -32t-14.5 -29q-2 -12 -9.5 -21.5t-11.5 -20.5q-21 -26 -47.5 -41t-56 -22.5t-61.5 -9t-64 0.5q-1 8 1 17t1 19q-41 13 -80 34.5t-65 62.5q-24 36 -34.5 78t-9 84.5t15 84t36.5 76.5q32 36 71 63t87 33q22 -5 44.5 -5t45.5 -4q45 -7 86 -27t66 -62
q26 -65 23 -136t-15 -143zM344 247q6 38 4.5 76t-9.5 74q-8 15 -20 23.5t-27 13t-31 6t-32 2.5q-4 -3 -4.5 -7.5t-0.5 -9t-0.5 -8.5t-4.5 -7q-18 -9 -31 -23.5t-20.5 -32.5t-10.5 -38t-2 -39q2 -31 14.5 -59t43.5 -42q-1 -15 -3 -30t1 -30q14 1 29.5 1t30 2.5t26.5 8.5
t20 21q10 9 14.5 21t7 25.5t3 27t2.5 24.5zM364 641q1 2 -13.5 -1.5t-31.5 -8.5q-20 -5 -46 -13l-110 142l11 18l87 38l11 -23q4 -2 8 -3q8 -2 7 -2t9.5 -20t23.5 -43q15 -28 35 -63q1 -7 3 -12q4 -11 6 -9z" />
    <glyph glyph-name="Oacute" unicode="&#xd3;" horiz-adv-x="530" 
d="M476 176q-5 -16 -8.5 -32t-14.5 -29q-2 -12 -9.5 -21.5t-11.5 -20.5q-21 -26 -47.5 -41t-56 -22.5t-61.5 -9t-64 0.5q-1 8 1 17t1 19q-41 13 -80 34.5t-65 62.5q-24 36 -34.5 78t-9 84.5t15 84t36.5 76.5q32 36 71 63t87 33q22 -5 44.5 -5t45.5 -4q45 -7 86 -27t66 -62
q26 -65 23 -136t-15 -143zM344 247q6 38 4.5 76t-9.5 74q-8 15 -20 23.5t-27 13t-31 6t-32 2.5q-4 -3 -4.5 -7.5t-0.5 -9t-0.5 -8.5t-4.5 -7q-18 -9 -31 -23.5t-20.5 -32.5t-10.5 -38t-2 -39q2 -31 14.5 -59t43.5 -42q-1 -15 -3 -30t1 -30q14 1 29.5 1t30 2.5t26.5 8.5
t20 21q10 9 14.5 21t7 25.5t3 27t2.5 24.5zM165 646q1 -2 9 11t17 30l24 44q4 2 7 4l6 4q-2 0 2.5 8t10.5 18l16 26l11 23l76 -34l11 -18q4 -17 -11.5 -42t-36 -47t-38.5 -37t-18 -13q-25 8 -44 13q-17 5 -30 8t-12 2z" />
    <glyph glyph-name="Ocircumflex" unicode="&#xd4;" horiz-adv-x="530" 
d="M476 176q-5 -16 -8.5 -32t-14.5 -29q-2 -12 -9.5 -21.5t-11.5 -20.5q-21 -26 -47.5 -41t-56 -22.5t-61.5 -9t-64 0.5q-1 8 1 17t1 19q-41 13 -80 34.5t-65 62.5q-24 36 -34.5 78t-9 84.5t15 84t36.5 76.5q32 36 71 63t87 33q22 -5 44.5 -5t45.5 -4q45 -7 86 -27t66 -62
q26 -65 23 -136t-15 -143zM344 247q6 38 4.5 76t-9.5 74q-8 15 -20 23.5t-27 13t-31 6t-32 2.5q-4 -3 -4.5 -7.5t-0.5 -9t-0.5 -8.5t-4.5 -7q-18 -9 -31 -23.5t-20.5 -32.5t-10.5 -38t-2 -39q2 -31 14.5 -59t43.5 -42q-1 -15 -3 -30t1 -30q14 1 29.5 1t30 2.5t26.5 8.5
t20 21q10 9 14.5 21t7 25.5t3 27t2.5 24.5zM324 642q1 1 -3.5 11.5t-9.5 21.5l-14 30q-1 -3 -6.5 10t-16.5 33q-12 -20 -24.5 -41t-22 -38.5t-15.5 -28t-6 -8.5q-24 3 -43 7q-17 3 -31.5 5t-16.5 2q3 3 11.5 17t16.5 29q10 18 21 39q4 2 7 4l6 4q-2 0 2.5 8t10.5 18l16 26
l11 23l22 2l92 -2l11 -23l32 -52q12 -20 21.5 -35.5t8.5 -15.5t1.5 -4.5t4.5 -9.5l6 -14q-27 -7 -47 -11q-17 -4 -32 -6.5t-13 -0.5zM115 646h-1h1z" />
    <glyph glyph-name="Odieresis" unicode="&#xd6;" horiz-adv-x="428" 
d="M359 650q-6 -3 -6.5 -9.5t-3.5 -12.5q-8 -7 -13.5 -16.5t-16.5 -11.5q-18 -8 -35.5 -6t-34.5 12q-19 12 -24 32.5t0 39.5q4 19 20 30t33 16q9 0 18.5 -0.5t18.5 -2.5t16 -6.5t11 -14.5q-1 -5 2 -5t4 -3q1 -7 4 -11.5l6 -9t4 -9.5t-3 -12zM190 642q-4 -20 -20.5 -31.5
t-34.5 -17.5q-19 1 -38.5 3.5t-27.5 22.5q1 5 -2 5t-4 4q-1 7 -4.5 11.5t-6.5 9t-4 9.5t3 13q7 4 7.5 11t3.5 13q9 7 14.5 17t16.5 12q18 9 36.5 7t35.5 -13q20 -13 25 -34.5t0 -41.5zM366 174q-2 -37 -13.5 -70t-34.5 -62q-8 -3 -13 -9t-12 -11q-7 4 -10.5 -2.5t-8.5 -6.5
q-12 -10 -27.5 -12t-28.5 -7q-38 2 -72.5 17t-61.5 44q-3 13 -12 23t-12 23q-6 16 -8.5 45.5t-3.5 62.5t-1.5 63.5t-2.5 48.5q3 6 9 4.5t11 1.5q-2 15 -4 31.5t-3 33.5t1 33.5t9 30.5q3 11 7 20.5t10 18.5q45 52 113 60q48 5 90 -15.5t65 -62.5q5 -27 8.5 -68t5 -84.5
t1.5 -84t-1 -66.5zM336 347q-4 21 -19.5 37.5t-35.5 23.5q-15 1 -31.5 1.5t-32.5 -2t-30.5 -9t-25.5 -19.5q-7 -8 -6.5 -21.5t3.5 -23.5q6 -2 12.5 0t10.5 -5q-2 -15 -2.5 -42t0 -56t2.5 -55.5t5 -40.5q2 -10 11 -12t17 -3q12 13 16 42t4 61.5t-1 63.5t1 48q24 7 50.5 7
t51.5 5z" />
    <glyph glyph-name="Ugrave" unicode="&#xd9;" horiz-adv-x="546" 
d="M515 180q-3 -33 -19 -62t-40 -53t-53.5 -41.5t-59.5 -25.5q-49 -14 -100.5 -4t-95.5 36q-59 36 -87 93.5t-29 124.5q1 4 6.5 3t4.5 6q2 23 0 47t-3 50q5 5 0.5 7.5t-3.5 7.5q0 42 -5 79.5t-3 76.5l6 6q26 0 53 2.5t52 -1.5q2 -48 6 -99t6 -98q-2 -18 0.5 -38t0.5 -36
q4 -2 8 -2h8l4 -30t5.5 -30t11 -28t20.5 -23q26 -21 58 -23t63 10l26 19.5t17 26.5l-6 5q3 56 4.5 110.5t8.5 110.5q2 19 2.5 37.5t3.5 35.5q-6 6 -14.5 6.5t-17 0.5t-15.5 3t-9 13q0 6 -3 13t7 9l4 7q2 -4 3.5 -3.5t3.5 2t4 2t4 -3.5q14 2 29 5t30 5q18 2 38 3.5t38 6.5
l8 -9q0 -17 3 -31.5t4 -31.5l-12 -3q-11 -70 -12 -146.5t-9 -146.5q8 -5 18 -5.5t21 -0.5l6 5v0zM332 641q1 2 -13.5 -1.5t-31.5 -8.5q-20 -5 -46 -13l-110 142l11 18l87 38l11 -23q4 -2 8 -3q8 -2 7 -2t9.5 -20t23.5 -43q15 -28 35 -63q1 -7 3 -12q4 -11 6 -9z" />
    <glyph glyph-name="Uacute" unicode="&#xda;" horiz-adv-x="546" 
d="M515 180q-3 -33 -19 -62t-40 -53t-53.5 -41.5t-59.5 -25.5q-49 -14 -100.5 -4t-95.5 36q-59 36 -87 93.5t-29 124.5q1 4 6.5 3t4.5 6q2 23 0 47t-3 50q5 5 0.5 7.5t-3.5 7.5q0 42 -5 79.5t-3 76.5l6 6q26 0 53 2.5t52 -1.5q2 -48 6 -99t6 -98q-2 -18 0.5 -38t0.5 -36
q4 -2 8 -2h8l4 -30t5.5 -30t11 -28t20.5 -23q26 -21 58 -23t63 10l26 19.5t17 26.5l-6 5q3 56 4.5 110.5t8.5 110.5q2 19 2.5 37.5t3.5 35.5q-6 6 -14.5 6.5t-17 0.5t-15.5 3t-9 13q0 6 -3 13t7 9l4 7q2 -4 3.5 -3.5t3.5 2t4 2t4 -3.5q14 2 29 5t30 5q18 2 38 3.5t38 6.5
l8 -9q0 -17 3 -31.5t4 -31.5l-12 -3q-11 -70 -12 -146.5t-9 -146.5q8 -5 18 -5.5t21 -0.5l6 5v0zM173 646q1 -2 9 11t17 30l24 44q4 2 7 4l6 4q-2 0 2.5 8t10.5 18l16 26l11 23l76 -34l11 -18q4 -17 -11.5 -42t-36 -47t-38.5 -37t-18 -13q-25 8 -44 13q-17 5 -30 8t-12 2z
" />
    <glyph glyph-name="Ucircumflex" unicode="&#xdb;" horiz-adv-x="546" 
d="M515 180q-3 -33 -19 -62t-40 -53t-53.5 -41.5t-59.5 -25.5q-49 -14 -100.5 -4t-95.5 36q-59 36 -87 93.5t-29 124.5q1 4 6.5 3t4.5 6q2 23 0 47t-3 50q5 5 0.5 7.5t-3.5 7.5q0 42 -5 79.5t-3 76.5l6 6q26 0 53 2.5t52 -1.5q2 -48 6 -99t6 -98q-2 -18 0.5 -38t0.5 -36
q4 -2 8 -2h8l4 -30t5.5 -30t11 -28t20.5 -23q26 -21 58 -23t63 10l26 19.5t17 26.5l-6 5q3 56 4.5 110.5t8.5 110.5q2 19 2.5 37.5t3.5 35.5q-6 6 -14.5 6.5t-17 0.5t-15.5 3t-9 13q0 6 -3 13t7 9l4 7q2 -4 3.5 -3.5t3.5 2t4 2t4 -3.5q14 2 29 5t30 5q18 2 38 3.5t38 6.5
l8 -9q0 -17 3 -31.5t4 -31.5l-12 -3q-11 -70 -12 -146.5t-9 -146.5q8 -5 18 -5.5t21 -0.5l6 5v0zM332 642q1 1 -3.5 11.5t-9.5 21.5l-14 30q-1 -3 -6.5 10t-16.5 33q-12 -20 -24.5 -41t-22 -38.5t-15.5 -28t-6 -8.5q-24 3 -43 7q-17 3 -31.5 5t-16.5 2q3 3 11.5 17t16.5 29
q10 18 21 39q4 2 7 4l6 4q-2 0 2.5 8t10.5 18l16 26l11 23l22 2l92 -2l11 -23l32 -52q12 -20 21.5 -35.5t8.5 -15.5t1.5 -4.5t4.5 -9.5l6 -14q-27 -7 -47 -11q-17 -4 -32 -6.5t-13 -0.5zM123 646h-1h1z" />
    <glyph glyph-name="Udieresis" unicode="&#xdc;" horiz-adv-x="568" 
d="M436 674q-2 -11 0.5 -21.5t-5.5 -19.5q-8 -19 -25 -29t-38 -13q-24 -4 -42.5 9t-29.5 30t-5.5 36t16.5 35q8 6 16 12.5t17 10.5t18.5 5t19.5 -4q2 -3 5.5 -1.5t5.5 -0.5q5 -5 11 -6t12 -2.5t10.5 -4.5t6.5 -11q-3 -7 1 -12.5t6 -12.5zM242 683q11 -21 3 -42.5t-22 -35.5
t-34 -15.5t-38 3.5q-8 5 -16.5 10.5t-15 12.5t-9.5 15t-1 19q2 3 -0.5 5t-0.5 5q3 6 2.5 12t-0.5 11.5t1.5 10.5t9.5 10q8 -1 12 4.5t10 9.5q11 1 20.5 6.5t20.5 1.5q20 -2 35 -13.5t23 -29.5zM533 180q-3 -33 -19.5 -62t-40.5 -53t-53.5 -41.5t-59.5 -25.5
q-49 -14 -100.5 -4t-94.5 36q-59 36 -87 93.5t-30 124.5q2 5 7.5 3.5t4.5 5.5q1 23 -1 47t-3 50q5 5 0.5 7.5t-3.5 7.5q1 42 -4 79.5t-4 76.5l7 6q26 0 53 2.5t52 -1.5q1 -48 5.5 -99t5.5 -98q-2 -18 0.5 -38t0.5 -36q4 -2 8 -2h9l4 -30t5.5 -30t10.5 -28t20 -23
q26 -21 58 -23t63 10q12 9 26.5 19.5t17.5 26.5l-7 5q4 56 5.5 110.5t7.5 110.5q2 19 2.5 37.5t4.5 35.5q-6 6 -15 6.5t-17.5 0.5t-15.5 3t-9 13q0 6 -3 13t8 9l3 7q2 -4 4 -3.5t3.5 2t3.5 2t4 -3.5q15 2 30 5t29 5q18 2 38 3.5t38 6.5l8 -9q0 -17 3 -31.5t4 -31.5l-11 -3
q-11 -70 -12.5 -146.5t-8.5 -146.5q8 -5 18 -5.5t20 -0.5z" />
    <glyph glyph-name="germandbls" unicode="&#xdf;" horiz-adv-x="915" 
d="M930 426q-17 -10 -39 -11.5t-41 -8.5q-20 5 -41 6t-39 9q-3 10 -10.5 17t-16.5 11q-32 7 -63.5 -1t-54.5 -29q-10 -15 -13.5 -30.5t1.5 -33.5q-2 -2 -5 -2t-1 -4q19 -19 43.5 -27t49.5 0q5 2 3.5 7t1.5 8q15 3 31 2.5t29 -3.5q5 -4 10.5 -5.5t10.5 -2.5q24 -8 41 -24
t28 -36t16.5 -43.5t6.5 -47.5q-4 -11 -3 -24.5t-7 -23.5q-14 -36 -42 -64t-68 -36q-10 4 -17.5 -3.5t-16.5 -6.5q-15 -7 -32 -8t-34 -4q-3 -3 -3 -6.5t-1 -7.5q-31 5 -60 11q-11 8 -23.5 13t-25.5 10q-2 -3 -2.5 -7l-1 -8t-2 -7t-6.5 -4q-17 6 -38 3.5t-37 0.5q-5 0 -9.5 1
t-5.5 7q1 36 2.5 73t-0.5 70q25 2 50 1.5t50 -0.5q-1 0 -1.5 -1t-1.5 -1q-2 -22 6 -39.5t27 -28.5q11 -7 22 -10.5t24 -6.5q5 -3 12 -2t13 2t10.5 0t4.5 -7q17 6 34 11.5t31 16.5q-3 7 -1 11.5t6.5 7.5t9.5 5.5t8 7.5q12 16 17.5 35t0.5 39q-3 23 -22 36.5t-37 21.5
q1 10 -4 15q-32 -3 -69 1t-67 13q-13 5 -26 8.5t-24 11.5q-9 2 -15 10t-14 12q-9 -2 -18.5 -4.5t-18.5 -0.5l-5 16q-4 2 -7 -1t-5 2q3 2 6.5 2t5.5 5q-6 42 9.5 82t51.5 68q8 5 14.5 11.5t15.5 11.5q25 5 49 17t50 13q17 8 34 4.5t36 -3.5q3 0 7.5 -2t9 -3t8.5 -0.5t7 5.5
q-3 13 3 17t16 5t20.5 1.5t16.5 5.5q10 5 21.5 6.5t22.5 4.5q7 7 16.5 7t18.5 2q2 -5 5.5 -3.5t6.5 0.5q11 -42 22.5 -84t21.5 -85zM237 399l-17 6h1l13 -4l3 -1v-1zM411 131q-5 1 -10 1.5t-9 -1.5q6 -29 -5 -55.5t-29 -47.5q-24 -21 -51 -29t-55 -7t-55.5 8t-52.5 16
q-3 -2 -3 -6t-0.5 -8t-2 -6.5t-7.5 -0.5q-19 2 -37 0.5t-35 0.5q0 29 -3 58t-1 58q20 2 40.5 3.5t40.5 3.5q-2 -14 2 -27.5t15 -22.5q29 -14 62.5 -14t61.5 13q16 10 21 26.5t3 33.5q17 2 33.5 3t33.5 2v1l-54 11q-5 18 -18.5 33t-30.5 21q-13 8 -27.5 6t-28.5 0
q-2 -3 -2 -8t-0.5 -9.5t-2.5 -7t-8 -0.5q-8 1 -16 1.5t-14 7.5q-7 -2 -14 2t-15 4q-11 8 -22.5 14.5t-24.5 10.5q-4 6 -10.5 7.5t-7.5 9.5q-5 4 -11 6t-6 10q-14 11 -20 25.5t-13 28.5q-12 38 -10.5 81t18.5 82q6 -2 13 -4.5t12 -2.5q10 12 20 26t22 25q25 23 54 36t60 16
t62 -3.5t60 -22.5q39 -20 63 -58l-6 -10q-17 -15 -33.5 -31t-32.5 -31q-12 7 -23.5 19t-24.5 18q-17 5 -33 8.5t-33 -2.5q-10 -3 -20 -8.5t-17 -13.5q2 -2 3 -3.5t3 -1.5q-12 -26 -10.5 -56t12.5 -56q3 -6 7.5 -9.5t9 -6.5t8 -7t2.5 -10v-19q36 -3 74.5 -12t70.5 -30
q21 -14 39 -38.5t19 -50.5zM189 124l14 2l8 -2h-22z" />
    <glyph glyph-name="agrave" unicode="&#xe0;" horiz-adv-x="534" 
d="M478 -5q-48 -1 -100.5 -1.5t-100.5 1.5q-5 20 -1 41.5t0 42.5q5 3 11.5 2t12 -1t9.5 2.5t4 12.5l-1 157q-4 5 -8 8t-9 -2q-23 2 -46.5 0t-47.5 0l-4 -4l1 -165q7 -7 18 -5.5t19 -0.5q1 -22 0.5 -42t0.5 -43q-50 2 -101 -1.5t-102 -1.5q-7 10 -7.5 19.5t0.5 20l2 21
t-2 21.5q3 6 7 6.5t8 -0.5t8.5 -1t7.5 5q0 66 -0.5 134t1.5 128q2 -4 2 -9t0.5 -10t2.5 -8t9 -2q0 -4 -1.5 -7.5t3.5 -5.5l5 7l-2 2q8 7 10.5 17t2.5 21t-1 22.5t1 20.5q4 11 2.5 27t3.5 27q-3 11 1.5 22t8.5 21l7 2q-9 6 -3 12q15 18 32 33t43 14q11 7 23.5 6.5t23.5 1.5
q35 1 76 1.5t72 -6.5q25 -6 43 -21.5t31 -38.5q7 -19 9.5 -40t2.5 -43t-1 -43.5t-2 -41.5q-4 -6 -11 -4t-12 -3q2 -3 5 -3t5 -1q5 -58 2 -118.5t2 -117.5q4 -2 10 -2.5t12 -2.5q11 -21 8.5 -38.5t-1.5 -39.5zM321 393q5 15 4.5 32.5t-9.5 30.5q-11 16 -24 13.5t-28 -4.5
q-11 -3 -14.5 -12.5t-8.5 -17.5l1 -39q18 -8 38.5 -5t40.5 2zM336 641q1 2 -13.5 -1.5t-31.5 -8.5q-20 -5 -46 -13l-110 142l11 18l87 38l11 -23q4 -2 8 -3q8 -2 7 -2t9.5 -20t23.5 -43q15 -28 35 -63q1 -7 3 -12q4 -11 6 -9z" />
    <glyph glyph-name="aacute" unicode="&#xe1;" horiz-adv-x="534" 
d="M478 -5q-48 -1 -100.5 -1.5t-100.5 1.5q-5 20 -1 41.5t0 42.5q5 3 11.5 2t12 -1t9.5 2.5t4 12.5l-1 157q-4 5 -8 8t-9 -2q-23 2 -46.5 0t-47.5 0l-4 -4l1 -165q7 -7 18 -5.5t19 -0.5q1 -22 0.5 -42t0.5 -43q-50 2 -101 -1.5t-102 -1.5q-7 10 -7.5 19.5t0.5 20l2 21
t-2 21.5q3 6 7 6.5t8 -0.5t8.5 -1t7.5 5q0 66 -0.5 134t1.5 128q2 -4 2 -9t0.5 -10t2.5 -8t9 -2q0 -4 -1.5 -7.5t3.5 -5.5l5 7l-2 2q8 7 10.5 17t2.5 21t-1 22.5t1 20.5q4 11 2.5 27t3.5 27q-3 11 1.5 22t8.5 21l7 2q-9 6 -3 12q15 18 32 33t43 14q11 7 23.5 6.5t23.5 1.5
q35 1 76 1.5t72 -6.5q25 -6 43 -21.5t31 -38.5q7 -19 9.5 -40t2.5 -43t-1 -43.5t-2 -41.5q-4 -6 -11 -4t-12 -3q2 -3 5 -3t5 -1q5 -58 2 -118.5t2 -117.5q4 -2 10 -2.5t12 -2.5q11 -21 8.5 -38.5t-1.5 -39.5zM321 393q5 15 4.5 32.5t-9.5 30.5q-11 16 -24 13.5t-28 -4.5
q-11 -3 -14.5 -12.5t-8.5 -17.5l1 -39q18 -8 38.5 -5t40.5 2zM217 646q1 -2 9 11t17 30l24 44q4 2 7 4l6 4q-2 0 2.5 8t10.5 18l16 26l11 23l76 -34l11 -18q4 -17 -11.5 -42t-36 -47t-38.5 -37t-18 -13q-25 8 -44 13q-17 5 -30 8t-12 2z" />
    <glyph glyph-name="acircumflex" unicode="&#xe2;" horiz-adv-x="534" 
d="M478 -5q-48 -1 -100.5 -1.5t-100.5 1.5q-5 20 -1 41.5t0 42.5q5 3 11.5 2t12 -1t9.5 2.5t4 12.5l-1 157q-4 5 -8 8t-9 -2q-23 2 -46.5 0t-47.5 0l-4 -4l1 -165q7 -7 18 -5.5t19 -0.5q1 -22 0.5 -42t0.5 -43q-50 2 -101 -1.5t-102 -1.5q-7 10 -7.5 19.5t0.5 20l2 21
t-2 21.5q3 6 7 6.5t8 -0.5t8.5 -1t7.5 5q0 66 -0.5 134t1.5 128q2 -4 2 -9t0.5 -10t2.5 -8t9 -2q0 -4 -1.5 -7.5t3.5 -5.5l5 7l-2 2q8 7 10.5 17t2.5 21t-1 22.5t1 20.5q4 11 2.5 27t3.5 27q-3 11 1.5 22t8.5 21l7 2q-9 6 -3 12q15 18 32 33t43 14q11 7 23.5 6.5t23.5 1.5
q35 1 76 1.5t72 -6.5q25 -6 43 -21.5t31 -38.5q7 -19 9.5 -40t2.5 -43t-1 -43.5t-2 -41.5q-4 -6 -11 -4t-12 -3q2 -3 5 -3t5 -1q5 -58 2 -118.5t2 -117.5q4 -2 10 -2.5t12 -2.5q11 -21 8.5 -38.5t-1.5 -39.5zM321 393q5 15 4.5 32.5t-9.5 30.5q-11 16 -24 13.5t-28 -4.5
q-11 -3 -14.5 -12.5t-8.5 -17.5l1 -39q18 -8 38.5 -5t40.5 2zM336 642q1 1 -3.5 11.5t-9.5 21.5l-14 30q-1 -3 -6.5 10t-16.5 33q-12 -20 -24.5 -41t-22 -38.5t-15.5 -28t-6 -8.5q-24 3 -43 7q-17 3 -31.5 5t-16.5 2q3 3 11.5 17t16.5 29q10 18 21 39q4 2 7 4l6 4
q-2 0 2.5 8t10.5 18l16 26l11 23l22 2l92 -2l11 -23l32 -52q12 -20 21.5 -35.5t8.5 -15.5t1.5 -4.5t4.5 -9.5l6 -14q-27 -7 -47 -11q-17 -4 -32 -6.5t-13 -0.5zM127 646h-1h1z" />
    <glyph glyph-name="adieresis" unicode="&#xe4;" horiz-adv-x="545" 
d="M493 653q-8 -3 -8.5 -10t-4.5 -14q-9 -7 -14.5 -16.5t-18.5 -11.5q-20 -10 -40.5 -7.5t-38.5 13.5q-22 12 -27.5 33.5t-0.5 41.5t23 31.5t38 17.5q10 0 21 -0.5t20.5 -3t17.5 -7.5t13 -15q-1 -5 2.5 -5t3.5 -4q1 -7 5 -11.5t7.5 -9t4.5 -9.5t-3 -13zM223 684
q8 -35 -8 -62q-13 -15 -32.5 -25.5t-42.5 -4.5q-4 3 -6.5 1.5t-7.5 -0.5q-17 10 -33 23t-13 35l9 3q5 15 3.5 35t4.5 34q28 -2 51.5 -2.5t49.5 -2.5q5 -14 2.5 -31t-2.5 -33q4 -3 10 -3t11 1q5 7 3.5 15.5t0.5 16.5zM490 -5q-48 -1 -101 -1.5t-101 1.5q-4 20 0 41.5t0 42.5
q5 3 11.5 2t12 -1t9.5 2.5t4 12.5l-1 157q-4 5 -8 8t-9 -2q-23 2 -46.5 0t-47.5 0l-4 -4l1 -165q7 -7 17.5 -5.5t18.5 -0.5q2 -22 1.5 -42t0.5 -43q-51 2 -101.5 -1.5t-101.5 -1.5q-7 10 -8 19.5t0 20t2.5 21t-1.5 21.5q3 6 6.5 6.5t8 -0.5t9 -1t7.5 5q0 66 -0.5 134
t1.5 128q2 -4 2 -9v-10t2.5 -8t8.5 -2q1 -4 -1 -7.5t3 -5.5l5 7l-2 2q9 7 11.5 17t2.5 21t-1 22.5t1 20.5q4 11 2.5 27t3.5 27q-3 11 1.5 22t7.5 21l8 2q-9 5 -4 12q16 18 33 33t43 14q11 7 23.5 6.5t23.5 1.5q35 1 75.5 1.5t72.5 -6.5q25 -6 42.5 -21.5t30.5 -38.5
q14 -38 13 -82.5t-3 -85.5q-5 -6 -12 -4t-11 -3q2 -3 4.5 -3t5.5 -1q4 -58 1 -118.5t2 -117.5q5 -2 11 -2.5t12 -2.5q6 -11 7.5 -20t1 -18t-1.5 -19t0 -21zM333 393q5 15 4 32.5t-9 30.5q-11 16 -24.5 13.5t-27.5 -4.5q-12 -3 -15 -12.5t-8 -17.5v-39q19 -8 39.5 -5t40.5 2z
" />
    <glyph glyph-name="ae" unicode="&#xe6;" horiz-adv-x="644" 
d="M650 416q-9 -8 -21 -4.5t-23 0.5l-61 2l-2 2l1 64l-4 4l-67 2q-4 0 -5 -4t-2 -6q-2 -13 -1 -27t1 -28t-2 -27t-10 -24l-4 -22l10 -2q-7 -13 0 -29l6 -6q20 -1 41 -3t41 0q6 -4 14 -2.5t11 -7.5q-3 -8 -1.5 -18t1.5 -19t-3 -16.5t-14 -11.5q-23 2 -44 1.5t-44 -0.5
q-7 -3 -9.5 -7t-3 -9.5t-0.5 -11t-1 -11.5q-5 0 -14.5 0.5t-5.5 -8.5q-2 -20 -5.5 -40t-4.5 -40q4 -9 6 -19t13 -14q6 -5 13.5 -5t15.5 2q10 6 14 14.5t5 18t1 19.5t3 19l8 3l81 -9q2 -17 -1.5 -33.5t-2.5 -33.5q-4 -8 -5.5 -17t-6.5 -17q-10 -17 -24.5 -28t-32 -16
t-36.5 -6t-38 1q-15 3 -29 9q-20 0 -35 1t-29 1.5t-29 0.5h-34q1 23 0.5 43t0.5 42q8 2 19 0.5t18 5.5l1 165l-4 4q-24 -2 -47.5 0t-46.5 0q-5 5 -9 2t-8 -8l-1 -157q0 -10 4 -12.5t9.5 -2.5t12 1t11.5 -2q-4 -21 0 -42.5t-1 -41.5q-48 -2 -100.5 -1.5t-100.5 1.5l-5 5
q1 22 -1.5 39.5t8.5 38.5q6 2 12 2.5t11 2.5q5 57 2 117.5t1 118.5q2 1 5 1t5 3q-4 5 -11 3t-12 4q-2 41 -3 85.5t13 82.5q13 23 30.5 38.5t42.5 21.5q31 7 72 6.5t76 -1.5q11 -2 23.5 -1.5t23.5 -6.5q11 1 21 -2.5t18 -8.5v2q-2 2 -1.5 3.5t0.5 3.5q2 5 6.5 3.5t7.5 0.5
q29 -2 50.5 -3.5t41.5 -2t41 0t48 0.5q5 -2 10.5 -1.5t12.5 -1.5q14 2 29 -1.5t30 -1.5l6 -3zM321 424q-3 6 -6 12.5t-6.5 12.5t-9 11t-14.5 7q-11 1 -22 3t-20.5 2t-19 -4t-17.5 -15q-14 -17 -15 -41.5t6 -44.5q15 0 31 -1t31.5 -2t31 0.5t29.5 6.5z" />
    <glyph glyph-name="ccedilla" unicode="&#xe7;" horiz-adv-x="430" 
d="M145 -80q0 8 2.5 15.5t0.5 15.5q0 5 1 6.5t2 2.5t2 3t0 7q1 12 1 15.5t-1 5.5q-23 2 -43.5 9.5t-36.5 24.5q-13 17 -17.5 37.5t-4.5 42.5t1.5 44.5t-0.5 42.5q1 22 1 60.5v81t0.5 82t2.5 63.5q-7 4 -3 11.5t6 14.5q10 13 23 25t28 18q8 7 18.5 10.5t19.5 5.5q38 5 78.5 6
t77.5 -7q3 -3 6.5 -3t7.5 -2q13 -3 25 -8.5t22 -14.5q15 -8 25.5 -22t15.5 -30q8 -21 10 -44t-9 -45q-2 -3 -5 -6.5t-6 -5.5h-81q-4 5 -2.5 9.5t2.5 9.5q2 10 0.5 20t-9.5 18q-15 13 -33.5 17t-38.5 5q-1 3 -2.5 6t-5.5 4l-47 4l-2 -3q0 -30 -0.5 -76t-0.5 -95t0.5 -95
t1.5 -76q26 -29 61 -19q-2 -13 0.5 -22t2.5 -21q14 2 28.5 10t22.5 23q7 10 10 21t6 23q25 1 49 0.5t49 -0.5q-2 -43 -20.5 -82.5t-59.5 -62.5q-8 -8 -17.5 -12t-20.5 -6q-9 -5 -19.5 -6.5t-21.5 -3.5q-2 7 -2.5 15t-3.5 15q-6 -2 -14 -4l-3 -47l33 -8l32 -24l22 -32l-2 -1
h-18q9 -3 19 -3q1 -11 1 -24t-3 -27t-10.5 -27t-20.5 -23q-27 -22 -63.5 -24.5t-68.5 10.5q-20 8 -33 26.5t-16 38.5q-1 5 -1.5 10.5t1.5 9.5q-3 5 -1.5 6.5t4.5 2t6.5 1.5t4.5 5q5 0 7.5 3.5t7.5 2.5l42 -1q0 -2 1.5 -5t-2.5 -5q0 -1 3 -1q0 -8 2 -16.5t7 -15.5
q8 -7 18.5 -8t20.5 1q12 6 13.5 16.5t3.5 30.5l-3 18l-28 24q-9 1 -12.5 1t-5.5 0.5t-5 1.5t-11 3h-13t-12 2z" />
    <glyph glyph-name="egrave" unicode="&#xe8;" horiz-adv-x="385" 
d="M366 416q-9 -8 -21 -4.5t-23 0.5l-61 2l-2 2l1 64l-4 4l-67 2q-4 0 -5 -4t-2 -6q-2 -13 -1 -27t1 -28t-2.5 -27t-10.5 -24l-3 -22l10 -2q-7 -13 0 -29l6 -6q20 -1 41 -3t41 0q6 -4 14 -2.5t11 -7.5q-3 -8 -1.5 -18t1.5 -19t-3 -16.5t-14 -11.5q-23 2 -44 1.5t-44 -0.5
q-7 -3 -9.5 -7t-3.5 -9.5t-1 -11t-1 -11.5q-2 0 -6 0.5t-7.5 0t-5.5 -2.5t0 -6q-2 -20 -5.5 -40t-4.5 -40q4 -9 5.5 -19t13.5 -14q6 -5 13.5 -5t15.5 2q10 6 14 14.5t5 18t1 19.5t2 19l9 3l81 -9q2 -17 -1.5 -33.5t-2.5 -33.5q-4 -8 -5.5 -17t-6.5 -17q-10 -17 -24.5 -28
t-32 -16t-36.5 -6t-38 1q-32 6 -63.5 28t-39.5 58q-7 32 -1.5 62.5t6.5 63.5l23 3q2 14 0.5 28t3.5 28q-2 22 -1.5 46t6.5 47q-2 4 -6 3t-8 0q1 6 1.5 16.5t-4.5 14.5q1 26 2 51t-1 49q-4 4 -10 2.5t-11 1.5q-2 15 1.5 29.5t2.5 28.5q-2 2 -1.5 3.5t0.5 3.5q2 5 6.5 3.5
t7.5 0.5q57 -5 108.5 -5.5t105.5 0.5q5 -2 10.5 -1.5t11.5 -1.5q15 2 30 -1.5t30 -1.5l6 -3zM280 64q0 -9 3 -13zM292 641q1 2 -13.5 -1.5t-31.5 -8.5q-20 -5 -46 -13l-110 142l11 18l87 38l11 -23q4 -2 8 -3q8 -2 7 -2t9.5 -20t23.5 -43q15 -28 35 -63q1 -7 3 -12
q4 -11 6 -9z" />
    <glyph glyph-name="eacute" unicode="&#xe9;" horiz-adv-x="385" 
d="M366 416q-9 -8 -21 -4.5t-23 0.5l-61 2l-2 2l1 64l-4 4l-67 2q-4 0 -5 -4t-2 -6q-2 -13 -1 -27t1 -28t-2.5 -27t-10.5 -24l-3 -22l10 -2q-7 -13 0 -29l6 -6q20 -1 41 -3t41 0q6 -4 14 -2.5t11 -7.5q-3 -8 -1.5 -18t1.5 -19t-3 -16.5t-14 -11.5q-23 2 -44 1.5t-44 -0.5
q-7 -3 -9.5 -7t-3.5 -9.5t-1 -11t-1 -11.5q-2 0 -6 0.5t-7.5 0t-5.5 -2.5t0 -6q-2 -20 -5.5 -40t-4.5 -40q4 -9 5.5 -19t13.5 -14q6 -5 13.5 -5t15.5 2q10 6 14 14.5t5 18t1 19.5t2 19l9 3l81 -9q2 -17 -1.5 -33.5t-2.5 -33.5q-4 -8 -5.5 -17t-6.5 -17q-10 -17 -24.5 -28
t-32 -16t-36.5 -6t-38 1q-32 6 -63.5 28t-39.5 58q-7 32 -1.5 62.5t6.5 63.5l23 3q2 14 0.5 28t3.5 28q-2 22 -1.5 46t6.5 47q-2 4 -6 3t-8 0q1 6 1.5 16.5t-4.5 14.5q1 26 2 51t-1 49q-4 4 -10 2.5t-11 1.5q-2 15 1.5 29.5t2.5 28.5q-2 2 -1.5 3.5t0.5 3.5q2 5 6.5 3.5
t7.5 0.5q57 -5 108.5 -5.5t105.5 0.5q5 -2 10.5 -1.5t11.5 -1.5q15 2 30 -1.5t30 -1.5l6 -3zM280 64q0 -9 3 -13zM153 646q1 -2 9 11t17 30l24 44q4 2 7 4l6 4q-2 0 2.5 8t10.5 18l16 26l11 23l76 -34l11 -18q4 -17 -11.5 -42t-36 -47t-38.5 -37t-18 -13q-25 8 -44 13
q-17 5 -30 8t-12 2z" />
    <glyph glyph-name="ecircumflex" unicode="&#xea;" horiz-adv-x="385" 
d="M366 416q-9 -8 -21 -4.5t-23 0.5l-61 2l-2 2l1 64l-4 4l-67 2q-4 0 -5 -4t-2 -6q-2 -13 -1 -27t1 -28t-2.5 -27t-10.5 -24l-3 -22l10 -2q-7 -13 0 -29l6 -6q20 -1 41 -3t41 0q6 -4 14 -2.5t11 -7.5q-3 -8 -1.5 -18t1.5 -19t-3 -16.5t-14 -11.5q-23 2 -44 1.5t-44 -0.5
q-7 -3 -9.5 -7t-3.5 -9.5t-1 -11t-1 -11.5q-2 0 -6 0.5t-7.5 0t-5.5 -2.5t0 -6q-2 -20 -5.5 -40t-4.5 -40q4 -9 5.5 -19t13.5 -14q6 -5 13.5 -5t15.5 2q10 6 14 14.5t5 18t1 19.5t2 19l9 3l81 -9q2 -17 -1.5 -33.5t-2.5 -33.5q-4 -8 -5.5 -17t-6.5 -17q-10 -17 -24.5 -28
t-32 -16t-36.5 -6t-38 1q-32 6 -63.5 28t-39.5 58q-7 32 -1.5 62.5t6.5 63.5l23 3q2 14 0.5 28t3.5 28q-2 22 -1.5 46t6.5 47q-2 4 -6 3t-8 0q1 6 1.5 16.5t-4.5 14.5q1 26 2 51t-1 49q-4 4 -10 2.5t-11 1.5q-2 15 1.5 29.5t2.5 28.5q-2 2 -1.5 3.5t0.5 3.5q2 5 6.5 3.5
t7.5 0.5q57 -5 108.5 -5.5t105.5 0.5q5 -2 10.5 -1.5t11.5 -1.5q15 2 30 -1.5t30 -1.5l6 -3zM280 64q0 -9 3 -13zM253 642q1 1 -3.5 11.5t-9.5 21.5l-14 30q-1 -3 -6.5 10t-16.5 33q-12 -20 -24.5 -41t-22 -38.5t-15.5 -28t-6 -8.5q-24 3 -43 7q-17 3 -31.5 5t-16.5 2
q3 3 11.5 17t16.5 29q10 18 21 39q4 2 7 4l6 4q-2 0 2.5 8t10.5 18l16 26l11 23l22 2l92 -2l11 -23l32 -52q12 -20 21.5 -35.5t8.5 -15.5t1.5 -4.5t4.5 -9.5l6 -14q-27 -7 -47 -11q-17 -4 -32 -6.5t-13 -0.5zM44 646h-1h1z" />
    <glyph glyph-name="edieresis" unicode="&#xeb;" horiz-adv-x="385" 
d="M366 416q-9 -8 -21 -4.5t-23 0.5l-61 2l-2 2l1 64l-4 4l-67 2q-4 0 -5 -4t-2 -6q-2 -13 -1 -27t1 -28t-2.5 -27t-10.5 -24l-3 -22l10 -2q-7 -13 0 -29l6 -6q20 -1 41 -3t41 0q6 -4 14 -2.5t11 -7.5q-3 -8 -1.5 -18t1.5 -19t-3 -16.5t-14 -11.5q-23 2 -44 1.5t-44 -0.5
q-7 -3 -9.5 -7t-3.5 -9.5t-1 -11t-1 -11.5q-2 0 -6 0.5t-7.5 0t-5.5 -2.5t0 -6q-2 -20 -5.5 -40t-4.5 -40q4 -9 5.5 -19t13.5 -14q6 -5 13.5 -5t15.5 2q10 6 14 14.5t5 18t1 19.5t2 19l9 3l81 -9q2 -17 -1.5 -33.5t-2.5 -33.5q-4 -8 -5.5 -17t-6.5 -17q-10 -17 -24.5 -28
t-32 -16t-36.5 -6t-38 1q-32 6 -63.5 28t-39.5 58q-7 32 -1.5 62.5t6.5 63.5l23 3q2 14 0.5 28t3.5 28q-2 22 -1.5 46t6.5 47q-2 4 -6 3t-8 0q1 6 1.5 16.5t-4.5 14.5q1 26 2 51t-1 49q-4 4 -10 2.5t-11 1.5q-2 15 1.5 29.5t2.5 28.5q-2 2 -1.5 3.5t0.5 3.5q2 5 6.5 3.5
t7.5 0.5q57 -5 108.5 -5.5t105.5 0.5q5 -2 10.5 -1.5t11.5 -1.5q15 2 30 -1.5t30 -1.5l6 -3zM280 64q0 -9 3 -13zM369 719q-2 -9 0.5 -18.5t-4.5 -17.5q-8 -17 -22.5 -25.5t-33.5 -11.5q-21 -3 -37.5 8t-26.5 26q-9 16 -4 32.5t14 30.5q14 11 29.5 20.5t33.5 0.5
q2 -2 4.5 -0.5t4.5 -0.5q5 -4 10.5 -5t10.5 -2.5t9 -4.5t6 -10q-3 -6 0.5 -11t5.5 -11zM197 727q10 -18 3 -37t-19 -32q-12 -12 -30 -13.5t-34 3.5q-14 9 -27.5 19.5t-9.5 30.5q2 3 -0.5 4.5t-0.5 4.5q3 6 2.5 11t-0.5 9.5t1.5 9t7.5 9.5q7 -1 11 4t9 8q10 2 18.5 7t17.5 0
q18 -1 31 -11t20 -27z" />
    <glyph glyph-name="igrave" unicode="&#xec;" horiz-adv-x="271" 
d="M233 471q-7 -6 -16.5 -4.5t-17.5 -1.5l-7 -7v-108l5 -2q1 -89 -1 -171t-1 -171q-5 -9 -17 -6.5t-18 0.5l-91 2q-7 8 -5 19.5t0 20.5q2 76 2 151.5v155.5q5 26 2 55t-1 57q-4 4 -9.5 4h-11.5t-11 1t-8 7q4 20 1 42.5t2 43.5q14 1 27 2.5t25 0.5q3 -5 7 -2.5t8 2.5
q33 -1 65 0t69 -1q-2 -16 1.5 -33t-1.5 -34q3 -5 1.5 -11t0.5 -12zM190 641q1 2 -13.5 -1.5t-31.5 -8.5q-20 -5 -46 -13l-110 142l11 18l87 38l11 -23q4 -2 8 -3q8 -2 7 -2t9.5 -20t23.5 -43q15 -28 35 -63q1 -7 3 -12q4 -11 6 -9z" />
    <glyph glyph-name="iacute" unicode="&#xed;" horiz-adv-x="271" 
d="M233 471q-7 -6 -16.5 -4.5t-17.5 -1.5l-7 -7v-108l5 -2q1 -89 -1 -171t-1 -171q-5 -9 -17 -6.5t-18 0.5l-91 2q-7 8 -5 19.5t0 20.5q2 76 2 151.5v155.5q5 26 2 55t-1 57q-4 4 -9.5 4h-11.5t-11 1t-8 7q4 20 1 42.5t2 43.5q14 1 27 2.5t25 0.5q3 -5 7 -2.5t8 2.5
q33 -1 65 0t69 -1q-2 -16 1.5 -33t-1.5 -34q3 -5 1.5 -11t0.5 -12zM69 646q1 -2 9 11t17 30l24 44q4 2 7 4l6 4q-2 0 2.5 8t10.5 18l16 26l11 23l76 -34l11 -18q4 -17 -11.5 -42t-36 -47t-38.5 -37t-18 -13q-25 8 -44 13q-17 5 -30 8t-12 2z" />
    <glyph glyph-name="icircumflex" unicode="&#xee;" horiz-adv-x="271" 
d="M233 471q-7 -6 -16.5 -4.5t-17.5 -1.5l-7 -7v-108l5 -2q1 -89 -1 -171t-1 -171q-5 -9 -17 -6.5t-18 0.5l-91 2q-7 8 -5 19.5t0 20.5q2 76 2 151.5v155.5q5 26 2 55t-1 57q-4 4 -9.5 4h-11.5t-11 1t-8 7q4 20 1 42.5t2 43.5q14 1 27 2.5t25 0.5q3 -5 7 -2.5t8 2.5
q33 -1 65 0t69 -1q-2 -16 1.5 -33t-1.5 -34q3 -5 1.5 -11t0.5 -12zM196 642q1 1 -3.5 11.5t-9.5 21.5l-14 30q-1 -3 -6.5 10t-16.5 33q-12 -20 -24.5 -41t-22 -38.5t-15.5 -28t-6 -8.5q-24 3 -43 7q-17 3 -31.5 5t-16.5 2q3 3 11.5 17t16.5 29q10 18 21 39q4 2 7 4l6 4
q-2 0 2.5 8t10.5 18l16 26l11 23l22 2l92 -2l11 -23l32 -52q12 -20 21.5 -35.5t8.5 -15.5t1.5 -4.5t4.5 -9.5l6 -14q-27 -7 -47 -11q-17 -4 -32 -6.5t-13 -0.5zM-13 646h-1h1z" />
    <glyph glyph-name="idieresis" unicode="&#xef;" horiz-adv-x="271" 
d="M233 471q-7 -6 -16.5 -4.5t-17.5 -1.5l-7 -7v-108l5 -2q1 -89 -1 -171t-1 -171q-5 -9 -17 -6.5t-18 0.5l-91 2q-7 8 -5 19.5t0 20.5q2 76 2 151.5v155.5q5 26 2 55t-1 57q-4 4 -9.5 4h-11.5t-11 1t-8 7q4 20 1 42.5t2 43.5q14 1 27 2.5t25 0.5q3 -5 7 -2.5t8 2.5
q33 -1 65 0t69 -1q-2 -16 1.5 -33t-1.5 -34q3 -5 1.5 -11t0.5 -12zM282 734q-2 -9 0.5 -18.5t-4.5 -17.5q-8 -17 -22.5 -25.5t-33.5 -11.5q-21 -3 -37.5 8t-26.5 26q-9 16 -4 32.5t14 30.5q14 11 29.5 20.5t33.5 0.5q2 -2 4.5 -0.5t4.5 -0.5q5 -4 10.5 -5t10.5 -2.5t9 -4.5
t6 -10q-3 -6 0.5 -11t5.5 -11zM110 742q10 -18 3 -37t-19 -32q-12 -12 -30 -13.5t-34 3.5q-14 9 -27.5 19.5t-9.5 30.5q2 3 -0.5 4.5t-0.5 4.5q3 6 2.5 11t-0.5 9.5t1.5 9t7.5 9.5q7 -1 11 4t9 8q10 2 18.5 7t17.5 0q18 -1 31 -11t20 -27z" />
    <glyph glyph-name="ograve" unicode="&#xf2;" horiz-adv-x="422" 
d="M365 223q-3 -6 -9 -4.5t-11 -1.5q5 -29 8 -64.5t-11 -64.5q-2 -11 -6.5 -20t-10.5 -19q-45 -52 -112 -60q-48 -5 -90.5 16t-65.5 63q-5 27 -8 67.5t-5 84t-2 84.5t1 67q2 36 13.5 69t35.5 62q8 4 13 9.5t11 10.5q7 -4 10.5 3t9.5 7q12 9 27.5 11t28.5 8q37 -2 72 -17.5
t61 -44.5q3 -13 12.5 -23t11.5 -22q6 -16 8.5 -46t4 -63t1.5 -63.5t2 -48.5zM252 210q-6 2 -12.5 0t-11.5 5q2 15 2.5 42t0 56t-2.5 55.5t-5 40.5q-2 10 -10.5 12t-16.5 4q-12 -14 -16.5 -42.5t-4.5 -61.5t1 -64t0 -48q-25 -6 -51.5 -6t-51.5 -5q5 -22 20.5 -38.5
t35.5 -23.5q15 -1 31.5 -1.5t32.5 2t30.5 9t25.5 19.5q7 8 6 21.5t-3 23.5zM263 641q1 2 -13.5 -1.5t-31.5 -8.5q-20 -5 -46 -13l-110 142l11 18l87 38l11 -23q4 -2 8 -3q8 -2 7 -2t9.5 -20t23.5 -43q15 -28 35 -63q1 -7 3 -12q4 -11 6 -9z" />
    <glyph glyph-name="oacute" unicode="&#xf3;" horiz-adv-x="422" 
d="M365 223q-3 -6 -9 -4.5t-11 -1.5q5 -29 8 -64.5t-11 -64.5q-2 -11 -6.5 -20t-10.5 -19q-45 -52 -112 -60q-48 -5 -90.5 16t-65.5 63q-5 27 -8 67.5t-5 84t-2 84.5t1 67q2 36 13.5 69t35.5 62q8 4 13 9.5t11 10.5q7 -4 10.5 3t9.5 7q12 9 27.5 11t28.5 8q37 -2 72 -17.5
t61 -44.5q3 -13 12.5 -23t11.5 -22q6 -16 8.5 -46t4 -63t1.5 -63.5t2 -48.5zM252 210q-6 2 -12.5 0t-11.5 5q2 15 2.5 42t0 56t-2.5 55.5t-5 40.5q-2 10 -10.5 12t-16.5 4q-12 -14 -16.5 -42.5t-4.5 -61.5t1 -64t0 -48q-25 -6 -51.5 -6t-51.5 -5q5 -22 20.5 -38.5
t35.5 -23.5q15 -1 31.5 -1.5t32.5 2t30.5 9t25.5 19.5q7 8 6 21.5t-3 23.5zM134 646q1 -2 9 11t17 30l24 44q4 2 7 4l6 4q-2 0 2.5 8t10.5 18l16 26l11 23l76 -34l11 -18q4 -17 -11.5 -42t-36 -47t-38.5 -37t-18 -13q-25 8 -44 13q-17 5 -30 8t-12 2z" />
    <glyph glyph-name="ocircumflex" unicode="&#xf4;" horiz-adv-x="422" 
d="M365 223q-3 -6 -9 -4.5t-11 -1.5q5 -29 8 -64.5t-11 -64.5q-2 -11 -6.5 -20t-10.5 -19q-45 -52 -112 -60q-48 -5 -90.5 16t-65.5 63q-5 27 -8 67.5t-5 84t-2 84.5t1 67q2 36 13.5 69t35.5 62q8 4 13 9.5t11 10.5q7 -4 10.5 3t9.5 7q12 9 27.5 11t28.5 8q37 -2 72 -17.5
t61 -44.5q3 -13 12.5 -23t11.5 -22q6 -16 8.5 -46t4 -63t1.5 -63.5t2 -48.5zM252 210q-6 2 -12.5 0t-11.5 5q2 15 2.5 42t0 56t-2.5 55.5t-5 40.5q-2 10 -10.5 12t-16.5 4q-12 -14 -16.5 -42.5t-4.5 -61.5t1 -64t0 -48q-25 -6 -51.5 -6t-51.5 -5q5 -22 20.5 -38.5
t35.5 -23.5q15 -1 31.5 -1.5t32.5 2t30.5 9t25.5 19.5q7 8 6 21.5t-3 23.5zM271 642q1 1 -3.5 11.5t-9.5 21.5l-14 30q-1 -3 -6.5 10t-16.5 33q-12 -20 -24.5 -41t-22 -38.5t-15.5 -28t-6 -8.5q-24 3 -43 7q-17 3 -31.5 5t-16.5 2q3 3 11.5 17t16.5 29q10 18 21 39q4 2 7 4
l6 4q-2 0 2.5 8t10.5 18l16 26l11 23l22 2l92 -2l11 -23l32 -52q12 -20 21.5 -35.5t8.5 -15.5t1.5 -4.5t4.5 -9.5l6 -14q-27 -7 -47 -11q-17 -4 -32 -6.5t-13 -0.5zM62 646h-1h1z" />
    <glyph glyph-name="odieresis" unicode="&#xf6;" horiz-adv-x="528" 
d="M441 674q4 -8 2.5 -13t-4.5 -9.5l-6 -9t-4 -10.5q0 -3 -3.5 -3.5t-2.5 -4.5q-8 -20 -26.5 -22t-36.5 -3q-17 5 -32.5 16.5t-19.5 30.5t0.5 39.5t23.5 32.5q16 10 33.5 12.5t34.5 -6.5q11 -2 16.5 -11.5t13.5 -16.5q3 -6 3.5 -12.5t7.5 -9.5zM216 678q4 -19 -0.5 -39.5
t-24.5 -32.5q-17 -11 -35 -13t-35 7q-11 2 -16.5 11.5t-13.5 15.5q-3 6 -3.5 13t-7.5 10q-4 7 -3 12.5t4 10t6.5 9t4.5 10.5q0 3 3.5 3.5t2.5 4.5q8 20 27 22t37 3q17 -6 33 -17t21 -30zM488 438q-8 -5 -16.5 -6.5t-16.5 -9.5v-80.5v-91t-1 -91t-2 -79.5q-4 -20 -15 -39.5
t-31 -24.5q-14 -11 -34 -16q-12 -3 -22.5 -1.5t-22.5 -2.5q-17 3 -35 3t-34 8q-12 -1 -21.5 6.5t-21.5 7.5l-7 7q-14 -5 -21 0q-32 8 -60 26.5t-50.5 43.5t-37 56t-17.5 64q-9 40 -7 80t15 76.5t37 68.5t60 56q18 12 37.5 18.5t38.5 15.5q0 4 0.5 8.5t5.5 4.5h27q16 9 37 9
q2 -7 6.5 -5t8.5 1q7 5 13.5 4.5t14.5 -1.5q19 -3 36.5 -1.5t33.5 -9.5q21 -5 43.5 -17t33.5 -35q13 -8 18 -22.5t7 -30.5zM357 387q0 19 -6 36.5t-24 28.5q-11 3 -21.5 6t-21.5 4q-7 -1 -12 -1h-9q-4 -1 -10 -3l-1 4q-8 1 -15.5 0.5t-29.5 -5.5q-2 -16 -1 -32.5t0 -30.5
q-21 -13 -33 -31.5t-17.5 -39.5t-5 -44t4.5 -45q8 -25 24 -49t45 -31q3 -8 4 -17l2 -18q6 2 5 11q4 -1 7.5 0t5.5 -4q10 -2 20.5 -3t21 0.5t19 6.5t14.5 16q4 16 4.5 47t0 65t-0.5 65.5t3 48.5q7 4 14.5 5.5t12.5 9.5z" />
    <glyph glyph-name="ugrave" unicode="&#xf9;" horiz-adv-x="492" 
d="M435 203q3 -37 2 -73.5t-19 -70.5q-13 -24 -32.5 -38.5t-43 -22.5t-49 -11t-49.5 -3q-8 2 -15 3.5t-15 3.5q-6 -1 -12.5 -1.5t-12.5 -1.5q-11 4 -22 2.5t-22 1.5q-9 2 -18 6t-16 10q-20 6 -31 26t-15 40q-2 45 -2.5 103.5t-1.5 117.5v71v57q0 1 1 1q0 14 -0.5 26.5
t-1.5 25.5q-5 0 -12.5 1t-13.5 -1q-6 17 -4 36t1 38q6 5 14 3t15 0q32 0 67 -0.5t67 -0.5q3 -1 6 0t6 1.5t5.5 -0.5t4.5 -6q0 -16 -0.5 -33.5t1.5 -31.5q-5 -8 -15 -6t-16 -6q-1 -24 -0.5 -49t1.5 -51q1 -12 1.5 -32.5t0.5 -44.5v-49.5v-47.5h24.5t11.5 -2q1 -17 -1 -37.5
t3 -37.5q11 -2 21.5 -1t20.5 2q2 6 5.5 4.5t6.5 0.5q-1 -8 2.5 -10t8.5 -1.5t10 0.5t8 -3q1 -5 1 -15q9 10 12.5 22.5t3.5 27t-1 29t0 27.5h-1q0 80 0.5 155.5t-1.5 151.5q2 9 0 20.5t4 19.5l92 2q3 -1 8 -0.5l10 1t9.5 -1t7.5 -5.5q-1 -89 1 -171t1 -171h-22zM345 641
q1 2 -13.5 -1.5t-31.5 -8.5q-20 -5 -46 -13l-110 142l11 18l87 38l11 -23q4 -2 8 -3q8 -2 7 -2t9.5 -20t23.5 -43q15 -28 35 -63q1 -7 3 -12q4 -11 6 -9z" />
    <glyph glyph-name="uacute" unicode="&#xfa;" horiz-adv-x="492" 
d="M435 203q3 -37 2 -73.5t-19 -70.5q-13 -24 -32.5 -38.5t-43 -22.5t-49 -11t-49.5 -3q-8 2 -15 3.5t-15 3.5q-6 -1 -12.5 -1.5t-12.5 -1.5q-11 4 -22 2.5t-22 1.5q-9 2 -18 6t-16 10q-20 6 -31 26t-15 40q-2 45 -2.5 103.5t-1.5 117.5v71v57q0 1 1 1q0 14 -0.5 26.5
t-1.5 25.5q-5 0 -12.5 1t-13.5 -1q-6 17 -4 36t1 38q6 5 14 3t15 0q32 0 67 -0.5t67 -0.5q3 -1 6 0t6 1.5t5.5 -0.5t4.5 -6q0 -16 -0.5 -33.5t1.5 -31.5q-5 -8 -15 -6t-16 -6q-1 -24 -0.5 -49t1.5 -51q1 -12 1.5 -32.5t0.5 -44.5v-49.5v-47.5h24.5t11.5 -2q1 -17 -1 -37.5
t3 -37.5q11 -2 21.5 -1t20.5 2q2 6 5.5 4.5t6.5 0.5q-1 -8 2.5 -10t8.5 -1.5t10 0.5t8 -3q1 -5 1 -15q9 10 12.5 22.5t3.5 27t-1 29t0 27.5h-1q0 80 0.5 155.5t-1.5 151.5q2 9 0 20.5t4 19.5l92 2q3 -1 8 -0.5l10 1t9.5 -1t7.5 -5.5q-1 -89 1 -171t1 -171h-22zM196 646
q1 -2 9 11t17 30l24 44q4 2 7 4l6 4q-2 0 2.5 8t10.5 18l16 26l11 23l76 -34l11 -18q4 -17 -11.5 -42t-36 -47t-38.5 -37t-18 -13q-25 8 -44 13q-17 5 -30 8t-12 2z" />
    <glyph glyph-name="ucircumflex" unicode="&#xfb;" horiz-adv-x="492" 
d="M435 203q3 -37 2 -73.5t-19 -70.5q-13 -24 -32.5 -38.5t-43 -22.5t-49 -11t-49.5 -3q-8 2 -15 3.5t-15 3.5q-6 -1 -12.5 -1.5t-12.5 -1.5q-11 4 -22 2.5t-22 1.5q-9 2 -18 6t-16 10q-20 6 -31 26t-15 40q-2 45 -2.5 103.5t-1.5 117.5v71v57q0 1 1 1q0 14 -0.5 26.5
t-1.5 25.5q-5 0 -12.5 1t-13.5 -1q-6 17 -4 36t1 38q6 5 14 3t15 0q32 0 67 -0.5t67 -0.5q3 -1 6 0t6 1.5t5.5 -0.5t4.5 -6q0 -16 -0.5 -33.5t1.5 -31.5q-5 -8 -15 -6t-16 -6q-1 -24 -0.5 -49t1.5 -51q1 -12 1.5 -32.5t0.5 -44.5v-49.5v-47.5h24.5t11.5 -2q1 -17 -1 -37.5
t3 -37.5q11 -2 21.5 -1t20.5 2q2 6 5.5 4.5t6.5 0.5q-1 -8 2.5 -10t8.5 -1.5t10 0.5t8 -3q1 -5 1 -15q9 10 12.5 22.5t3.5 27t-1 29t0 27.5h-1q0 80 0.5 155.5t-1.5 151.5q2 9 0 20.5t4 19.5l92 2q3 -1 8 -0.5l10 1t9.5 -1t7.5 -5.5q-1 -89 1 -171t1 -171h-22zM305 642
q1 1 -3.5 11.5t-9.5 21.5l-14 30q-1 -3 -6.5 10t-16.5 33q-12 -20 -24.5 -41t-22 -38.5t-15.5 -28t-6 -8.5q-24 3 -43 7q-17 3 -31.5 5t-16.5 2q3 3 11.5 17t16.5 29q10 18 21 39q4 2 7 4l6 4q-2 0 2.5 8t10.5 18l16 26l11 23l22 2l92 -2l11 -23l32 -52q12 -20 21.5 -35.5
t8.5 -15.5t1.5 -4.5t4.5 -9.5l6 -14q-27 -7 -47 -11q-17 -4 -32 -6.5t-13 -0.5zM96 646h-1h1z" />
    <glyph glyph-name="udieresis" unicode="&#xfc;" horiz-adv-x="510" 
d="M421 714q-2 -11 0 -21.5t-6 -19.5q-8 -19 -24.5 -29t-37.5 -13q-25 -4 -43.5 9t-28.5 30q-11 17 -6 36t16 35q16 12 33.5 23t38.5 1q2 -3 5 -1.5t5 -0.5q6 -5 12 -6t11.5 -2.5t10 -4.5t6.5 -11q-3 -7 1.5 -12.5t6.5 -12.5zM227 723q10 -21 2.5 -42.5t-21.5 -35.5
t-34 -15.5t-39 3.5q-8 5 -16 10.5t-14.5 12.5t-10 15t-1.5 19q3 3 0.5 5t-1.5 5q3 6 2.5 12t-0.5 11.5t1.5 10.5t9.5 10q8 -1 12 4.5t10 9.5q11 1 21 6.5t21 1.5q20 -2 34.5 -13.5t23.5 -29.5zM435 203q3 -37 2 -73.5t-19 -70.5q-13 -24 -32.5 -38.5t-43 -22.5t-49 -11
t-49.5 -3q-8 2 -15 3.5t-15 3.5q-6 -1 -12.5 -1.5t-12.5 -1.5q-11 4 -22 2.5t-22 1.5q-9 2 -18 6t-16 10q-20 6 -31 26t-15 40q-2 45 -2.5 103.5t-1.5 117.5v71v57q0 1 1 1q0 14 -0.5 26.5t-1.5 25.5q-5 0 -12.5 1t-13.5 -1q-6 17 -4 36t1 38q6 5 14 3t15 0q32 0 67 -0.5
t67 -0.5q3 -1 6 0t6 1.5t5.5 -0.5t4.5 -6q0 -16 -0.5 -33.5t1.5 -31.5q-5 -8 -15 -6t-16 -6q-1 -24 -0.5 -49t1.5 -51q1 -12 1.5 -32.5t0.5 -44.5v-49.5v-47.5h24.5t11.5 -2q1 -17 -1 -37.5t3 -37.5q11 -2 21.5 -1t20.5 2q2 6 5.5 4.5t6.5 0.5q-1 -8 2.5 -10t8.5 -1.5
t10 0.5t8 -3q1 -5 1 -15q9 10 12.5 22.5t3.5 27t-1 29t0 27.5h-1q0 80 0.5 155.5t-1.5 151.5q2 9 0 20.5t4 19.5l92 2q3 -1 8 -0.5l10 1t9.5 -1t7.5 -5.5q-1 -89 1 -171t1 -171h-22z" />
    <glyph glyph-name="Lslash" unicode="&#x141;" horiz-adv-x="396" 
d="M424 183q-2 -45 1 -87t-2 -87q-5 -5 -11 -6t-13.5 -0.5t-14.5 1t-13 -1.5q-81 0 -155.5 -1.5t-155.5 -0.5q-10 8 -10 21.5t-1 25.5l3 31q7 3 15 0.5t13 4.5q-2 33 0 69t0 72q-2 2 -4 4.5t-5 0.5q-1 14 5 27t20 20q5 2 8.5 2t6.5 3q-16 8 -30.5 22.5t-13.5 34.5
q2 39 2.5 74.5t2.5 72.5q-5 5 -14 4t-14 4q1 17 0.5 38.5t8.5 37.5q73 -5 153 -6l4 -2l-5 -197q1 -9 3 -17.5t11 -13.5q17 -2 34.5 -3t35.5 -1q5 -14 3 -27.5t-2 -29.5q2 -8 2 -19t-4 -18q-21 -2 -40 0.5t-39 -4.5q-2 -36 -1 -73t1 -74l3 -4q23 -2 42 -1.5t40 2.5l4 3
q2 27 -0.5 51.5t-0.5 49.5q7 6 15.5 4t18.5 -2q23 2 45.5 2t44.5 -2l3 -4v0z" />
    <glyph glyph-name="OE" unicode="&#x152;" horiz-adv-x="565" 
d="M555 552q1 -32 1 -70t-3 -73q-19 -1 -38.5 -2t-40.5 1q-8 4 -17.5 3.5t-17.5 4.5q0 17 2.5 34t-2.5 34q-21 -2 -40.5 0t-39.5 -3q0 -27 0.5 -54t-1.5 -53l3 -2l81 -3q2 -6 2 -13t-4 -12q-22 2 -43.5 3t-44.5 3l1 -12q31 -2 62 -3t63 -1q0 -18 0.5 -40t-1.5 -42
q-4 -5 -7.5 -2.5t-8.5 2.5q-7 3 -15 4t-16 0q-13 5 -26 0t-27 -7q-8 -3 -12.5 -7.5t-8.5 -9.5q0 -6 1 -9q-3 -4 -7 -4q-3 -11 -2.5 -22.5t1.5 -23.5t1.5 -24t-2.5 -23l-5 -2q0 -6 -2 -16q0 -3 3 -6q29 -1 59.5 3t60.5 7q14 2 29 3t29 5q2 -9 3 -17.5t4 -17.5
q-2 -16 0.5 -32.5t-0.5 -30.5q-15 -7 -31.5 -5t-30.5 -1q-58 -6 -116.5 -9.5t-116.5 -11.5q-15 -5 -30 -6q-48 -5 -90 16t-65 63q-5 27 -8.5 67.5t-5 84t-2 84.5t0.5 67q2 36 14 69t35 62q8 4 13 9.5t11 10.5q7 -4 10.5 3t9.5 7q12 9 27.5 11t28.5 8q51 -3 96 -31q5 18 7 18
l1 19h32t20 -0.5t19 -1t28 -0.5q3 -1 6.5 -2t7.5 1h77.5t77.5 -2zM243 210q-6 2 -12.5 0t-10.5 5q1 15 1.5 42t0 56t-2.5 55.5t-5 40.5q-2 10 -10.5 12t-16.5 4q-12 -14 -16 -42.5t-4.5 -61.5t1 -64t-0.5 -48q-24 -6 -51 -6t-51 -5q4 -22 19.5 -38.5t35.5 -23.5
q15 -1 31.5 -1.5t32.5 2t30.5 9t25.5 19.5q7 8 6 21.5t-3 23.5z" />
    <glyph glyph-name="oe" unicode="&#x153;" horiz-adv-x="652" 
d="M625 3q-14 2 -29 -1t-30 -1q-7 -2 -12.5 -1t-10.5 -2q-23 1 -41.5 2.5t-35.5 2t-35.5 0.5t-42.5 -3q-9 -2 -24.5 0t-25.5 -2q-17 2 -35 1t-35 6q-12 -2 -22 4.5t-21 5.5l-8 7q-13 -7 -21 -2q-32 6 -61.5 22.5t-53.5 40t-40.5 53t-22.5 62.5q-12 39 -12.5 79.5t10 78
t32 71t55.5 59.5q17 13 36 21t38 18q-1 4 -1 8.5t5 5.5l27 1q16 12 37 12q2 -7 6.5 -5t9.5 2q5 5 12 5.5t15 -0.5q9 -1 22 -0.5t25.5 -0.5t24.5 -3t20 -7q3 -1 5.5 -1.5t5.5 -1.5q15 10 31.5 15.5t32.5 7.5q38 2 73.5 -10.5t52.5 -47.5q5 -8 6 -17.5t4 -17.5q-2 -18 0.5 -34
t-1.5 -33l-81 -4l-8 4q-2 9 -1 19t0.5 19.5t-4 18t-12.5 15.5q-4 2 -7.5 2.5t-6.5 1.5q3 -5 -0.5 -7.5t-8 -5t-8.5 -5.5t-3 -8q-4 -3 -3 -6.5t2.5 -8t2.5 -8.5t-2 -8q0 -16 -5 -35.5t-3 -38.5h7q1 -6 1 -11.5t1 -10.5t3.5 -9t9.5 -7q23 1 44 0.5t44 1.5q11 -3 14 -10.5
t3 -16.5t-1 -19t2 -18q-2 -9 -10.5 -8t-14.5 -3q-20 2 -41 0t-41 -4l-5 -6q-3 -7 -6 -12.5t1 -12.5l-4 -1l-1 -30q5 -11 4.5 -22.5t-2.5 -23.5t-4 -24.5t-1 -24.5q1 -2 2 -6t6 -3h66l4 4v63l2 3h62q11 -2 23 1t21 -5v-127zM332 382q-2 14 -3.5 27.5t-2.5 27.5q-9 10 -20 16
q-11 2 -22 4.5t-22 2.5q-7 -2 -12 -2t-9 -1q-2 0 -4.5 -1t-4.5 -2l-2 3q-8 1 -15.5 0.5t-28.5 -8.5q-1 -15 0.5 -31.5t2.5 -30.5q-20 -15 -30.5 -34t-14.5 -40t-1.5 -44t7.5 -45q8 -25 26.5 -47.5t47.5 -27.5q7 -18 8 -35q6 3 5 12q3 -2 6.5 0t6.5 -4q10 0 21 -0.5t21 2
t18 7.5t13 16q3 16 1.5 47.5t-4 65.5t-5 65t-0.5 48q4 3 8 5t9 4z" />
    <glyph glyph-name="circumflex" unicode="&#x2c6;" 
d="M274 642q1 1 -3.5 11.5t-9.5 21.5l-14 30q-1 -3 -6.5 10t-16.5 33q-12 -20 -24.5 -41t-22 -38.5t-15.5 -28t-6 -8.5q-24 3 -43 7q-17 3 -31.5 5t-16.5 2q3 3 11.5 17t16.5 29q10 18 21 39q4 2 7 4l6 4q-2 0 2.5 8t10.5 18l16 26l11 23l22 2l92 -2l11 -23l32 -52
q12 -20 21.5 -35.5t8.5 -15.5t1.5 -4.5t4.5 -9.5l6 -14q-27 -7 -47 -11q-17 -4 -32 -6.5t-13 -0.5zM65 646h-1h1z" />
    <glyph glyph-name="caron" unicode="&#x2c7;" 
d="M174 621q-6 6 -11 14t-13 12q-9 7 -15 16.5t-17 15.5q-10 11 -19 20.5t-19 21.5q-9 7 -17 16t-18 16q1 6 6 8.5t7 7.5q10 13 22.5 26t21.5 26q20 -20 42.5 -39.5t37.5 -44.5q6 -8 12 0q5 5 10.5 8.5t9.5 -4.5l8 1l30 33q1 8 -6 11.5t-12 8.5q14 11 29.5 19t31.5 17
l61 -51l-1 -2l-86 -85l-7 3q-15 -14 -31 -30t-33 -27q-5 -5 -11.5 -9.5t-12.5 -8.5z" />
    <glyph glyph-name="breve" unicode="&#x2d8;" 
d="M341 734q-4 -26 -21 -50.5t-43 -35.5q-41 -17 -89 -14t-84 32q-17 13 -27 30.5t-14 35.5t-4 35t2 31q23 -1 45.5 -2t46.5 -3q4 -30 7 -47t23 -25q13 -4 27 -2.5t24 10.5q7 9 9.5 20t2.5 22q3 0 3 2q-5 2 -3 5.5t2 6.5l55 2q7 1 9.5 -3.5t10.5 -4.5q1 -5 5.5 -6t8.5 -2
t6 -3t-2 -8q2 -5 1.5 -12.5t-1.5 -13.5z" />
    <glyph glyph-name="endash" unicode="&#x2013;" horiz-adv-x="542" 
d="M522 187q-7 -6 -17.5 -4.5t-18.5 -0.5q-30 0 -56 0.5t-51.5 0.5h-52t-56.5 -1q-2 -2 -2 -5t-1 -5q-59 0 -117 0.5t-116 0.5q-7 1 -14 12v87q1 5 0.5 14t7.5 11q14 -2 28 1.5t26 -1.5q35 -2 72.5 -2h73.5h1l2 4q12 1 23.5 1h22.5q35 2 65 2t56 -1q17 0 31 -0.5t27.5 -0.5
h27.5h32q8 -5 6 -15.5t0 -15.5v-82z" />
    <glyph glyph-name="emdash" unicode="&#x2014;" horiz-adv-x="770" 
d="M749 186q-10 -6 -25 -4.5t-27 -0.5q-43 0 -81 0.5t-75.5 0.5h-76t-82.5 -1q-3 -2 -3 -5t-1 -5q-86 0 -170 0.5t-169 0.5q-7 1 -11.5 4t-9.5 8v88q2 5 1 14t11 11q20 -2 40.5 1.5t37.5 -1.5q52 -2 106 -2h107h1l3 4q18 1 34.5 1h32.5q52 2 95.5 2t81.5 -1q25 0 45 -0.5
t39.5 -0.5h40h46.5q6 -2 7.5 -6.5t1.5 -9t-1 -8.5t1 -7v-83z" />
    <glyph glyph-name="quoteleft" unicode="&#x2018;" horiz-adv-x="230" 
d="M192 315q-34 0 -67 1t-67 3l-4 4q4 13 4 28h-3l-2 4q-4 23 -3.5 45t-0.5 44q2 0 0.5 0.5l-4.5 1.5t-5.5 2.5t-1.5 3.5q0 13 -2 26.5t-3.5 27t0 26t9.5 23.5q12 -3 25 -2t26 3t25.5 3t24.5 -2q9 -9 11 -15t1 -11t-1.5 -12t3.5 -17q-5 -5 -4.5 -8t2.5 -12q2 -8 4 -20h36
q3 -13 3 -31.5t-1 -38t-1.5 -38.5t1.5 -32z" />
    <glyph glyph-name="quoteright" unicode="&#x2019;" horiz-adv-x="230" 
d="M173 402q3 -23 1.5 -44.5t-2.5 -44.5l-114 4l-2 5q-1 23 2 44.5t5 44.5q5 -1 -1 1.5t-3 6.5q1 5 1 16q-12 0 -23.5 0.5t-21.5 3.5q-2 29 -1.5 54.5t0.5 56.5q18 6 41.5 3t42.5 1l26 -2q7 0 13.5 0.5t13.5 0.5q6 2 8 -2t3 -10.5t1.5 -14.5t4.5 -14l2 -1q8 -10 9 -21
t-1.5 -22.5t-4.5 -22.5t0 -22q-5 -4 -3 -7t3 -14z" />
    <glyph glyph-name="quotesinglbase" unicode="&#x201a;" horiz-adv-x="255" 
d="M199 13q2 -24 0.5 -45.5t-2.5 -44.5l-114 4l-2 5q0 23 3 44.5t5 44.5q4 -1 -2 1.5t-3 6.5q1 5 1 16q-12 0 -23 0.5t-22 3.5q-2 29 -1.5 54.5t1.5 56.5q17 6 40.5 3t42.5 1l27 -2q7 0 13 0.5t13 0.5q6 2 8 -2t3 -10.5t1.5 -14.5t4.5 -14l3 -1q8 -10 8.5 -21t-1.5 -22.5
t-4.5 -22.5t0.5 -22q-6 -4 -4 -7t4 -13z" />
    <glyph glyph-name="quotedblleft" unicode="&#x201c;" horiz-adv-x="399" 
d="M390 318q-17 -6 -40.5 -3.5t-42.5 -0.5l-27 1q-7 1 -13 0.5t-13 -0.5q-6 -2 -8 1.5t-3 10.5t-1.5 15t-4.5 14l-3 1q-8 10 -8.5 20.5t1.5 22t4.5 22.5t-0.5 22q5 4 3.5 7.5t-3.5 13.5q-2 23 -0.5 45t2.5 44l114 -4l2 -4q0 -23 -3 -37t-5 -36q-2 0 -1 -0.5l3 -1.5t3 -3
t0 -3q-1 -4 -1 -8v-9q12 1 23 0.5t22 -4.5q2 -29 1.5 -62.5t-1.5 -63.5zM177 315q-34 0 -65 1t-65 3l-4 4q3 15 3 28h-3l-2 4q-3 23 -2.5 45t-0.5 44q2 0 0 0.5t-5 1.5t-5.5 2.5t-1.5 3.5q1 13 -1.5 26.5t-4 27t0 26t9.5 23.5q13 -3 26 -2t25.5 3t25 3t24.5 -2q9 -9 11 -18
t1.5 -18.5t-1.5 -19.5t3 -20q-5 -5 -4 -8t3 -12q1 -5 1.5 -10t1.5 -10h33q5 -26 2.5 -59t0.5 -60z" />
    <glyph glyph-name="quotedblright" unicode="&#x201d;" horiz-adv-x="399" 
d="M378 416q0 -13 2 -26.5t3.5 -27t0 -26.5t-9.5 -23q-12 3 -25 2t-26 -3t-25.5 -3t-24.5 2q-9 9 -11 20t-1 22t2 22.5t-3 21.5q5 5 4 8t-3 13q-2 5 -2.5 9.5t-1.5 9.5q-8 0 -16.5 0.5t-16.5 -0.5q-5 26 -2 54t0 55l5 7q34 0 65.5 -1t65.5 -3l4 -5q-4 -12 -4 -28l3 1l2 -5
q4 -23 3.5 -44.5t0.5 -44.5q-2 0 -0.5 0t4.5 -1t5.5 -2.5t1.5 -3.5zM173 402q2 -23 1 -44.5t-2 -44.5l-115 4l-1 5q-1 23 2 44.5t5 44.5q4 -1 -1.5 1.5t-2.5 6.5q0 4 0.5 7.5t0.5 8.5q-12 0 -23.5 0.5t-22.5 3.5q-2 29 -1 54.5t1 56.5q18 6 41.5 3t42.5 1l26 -2
q7 0 13.5 0.5t13.5 0.5q6 2 8 -2t3 -10.5t1.5 -14.5t4.5 -14l2 -1q8 -10 8.5 -21t-1.5 -22.5t-4.5 -22.5t0.5 -22q-5 -4 -3 -7t3 -14z" />
    <glyph glyph-name="quotedblbase" unicode="&#x201e;" horiz-adv-x="432" 
d="M386 13q3 -24 1.5 -45.5t-2.5 -44.5l-114 4l-2 5q0 23 3 44.5t5 44.5q4 -1 -2 1.5t-3 6.5q1 5 1 16q-12 0 -23.5 0.5t-21.5 3.5q-2 29 -1.5 54.5t0.5 56.5q18 6 41.5 3t42.5 1l27 -2q6 0 12.5 0.5t13.5 0.5q6 2 8 -2t3 -10.5t1.5 -14.5t4.5 -14l2 -1q8 -10 9 -21
t-1.5 -22.5t-4.5 -22.5t0 -22q-5 -4 -3 -7t3 -13zM187 33q-8 1 -13 -7q0 -13 2 -26.5t3.5 -27t0 -26.5t-9.5 -23q-13 3 -25 2t-23.5 -3t-23 -3t-23.5 2q-9 9 -11 20t-1.5 22t1.5 22.5t-3 21.5q5 5 11.5 8t4.5 13q-1 5 -1.5 9.5t-1.5 9.5q-8 1 -16.5 1h-16.5q-5 26 -2 53.5
t0 54.5l5 7q34 0 67 -1t68 -3l3 -5q-3 -14 -3 -27h3l2 -4q3 -23 3 -45v-45z" />
    <glyph glyph-name="guilsinglleft" unicode="&#x2039;" horiz-adv-x="201" 
d="M0 252q6 7 14 12t11 14q7 11 16.5 17t15.5 19q11 11 20.5 21.5t20.5 21.5q7 11 16 19.5t16 19.5q6 -1 8.5 -6.5t7.5 -7.5q12 -11 17 -17t18 -16q-20 -23 -34.5 -42t-39.5 -36l-20 -14l23 -21l2 -11l28 -28l35 -44l-59 -61l-2 1l-43 51l3 9q-14 17 -30 34.5t-26 36.5
q-5 7 -9.5 14t-8.5 14z" />
    <glyph glyph-name="guilsinglright" unicode="&#x203a;" horiz-adv-x="201" 
d="M201 227q-5 -6 -13 -11.5t-12 -14.5q-3 -5 -11.5 -14t-17.5 -19t-17 -19.5t-11 -15.5q-5 -5 -5 -6t1 -1t0.5 -1t-6.5 -6q-7 -11 -16 -19.5t-16 -19.5q-3 0 -10 5.5t-14.5 11.5t-14.5 11.5t-10 6.5q-6 6 -5.5 7t2 1t1.5 1t-6 6l74 79l21 13l-24 21l-2 11l-27 28l-36 44
l40 72l2 -1l51 -71h9q14 -17 29.5 -34.5t26.5 -36.5q5 -7 9.5 -14t7.5 -14z" />
    <glyph glyph-name="g.alt" horiz-adv-x="467" 
d="M451 -1l-3 -4q-29 0 -66 -0.5t-69 1.5q-3 7 -2 18.5t-1 19.5q-11 -4 -17.5 -14.5t-18.5 -10.5q-18 -14 -44 -14q-1 7 -6 5t-9 -1q-7 -5 -13.5 -4.5t-14.5 1.5q-19 3 -36 1.5t-33 9.5q-21 6 -43.5 18t-33.5 35q-14 9 -19 23.5t-7 30.5q8 6 17 7.5t16 9.5v82.5t0.5 92.5
t1.5 92t2 81q4 20 15 40.5t31 25.5q7 6 16 10.5t18 6.5q11 2 22 1t22 3q17 -3 35 -3.5t34 -8.5q13 1 22 -6.5t21 -7.5l10 -10q0 -25 0.5 -43.5t-1.5 -44.5q-3 -3 -8 -2.5t-10 0.5t-8.5 -2t-2.5 -9q-3 1 -6.5 -0.5t-6.5 4.5q-19 3 -41 2t-33 -22q-4 -17 -5 -48.5t-0.5 -66.5
t0.5 -67t-3 -49q-7 -4 -14 -6t-12 -9q0 -20 6 -38t23 -28q19 -5 36.5 -10t37.5 3q3 -8 7 -14t12 -9q10 -1 19 2.5t13 14.5q5 5 4.5 12t1.5 12q-2 29 1 62.5t-2 62.5q-3 3 -7.5 3h-9.5t-9 2t-5 8v67l7 5l140 -1q3 -20 2 -41.5t-1 -43.5l1 -114q-5 -8 -1 -15.5t-1 -15.5
q2 -3 3.5 -8.5t7.5 -3.5q5 -2 11 0t8 -5z" />
    <glyph glyph-name="G.alt" horiz-adv-x="520" 
d="M489 115q-1 -16 -4 -33t-9.5 -32t-17.5 -26.5t-27 -16.5q-4 1 -8 -2.5t-9 -2.5l-5 -3q-26 -2 -46 -2.5t-39.5 -1t-39.5 -0.5h-44q1 13 -5.5 17.5t-16 6t-20 2.5t-17.5 6q-32 9 -60 28t-50 44.5t-36.5 56.5t-17.5 65q-9 41 -7 82t14.5 78.5t36.5 70t60 56.5q18 12 37.5 19
t39.5 16q-1 4 -0.5 8.5t5.5 4.5h45h38h37.5t43.5 1q21 0 40 -1.5t41 1.5l5 -6q0 -35 1 -68.5t-1 -68.5q-7 2 -11 0t-7 -5.5t-7 -6.5t-11 -1q-17 -8 -36 -13t-37 -13l-4 2q0 23 1.5 46.5t-4.5 43.5l-6 5q-21 -3 -37 -2.5t-30.5 1t-29 0t-32.5 -5.5q-2 -15 -1.5 -32.5
t0.5 -31.5q-22 -14 -34 -32.5t-17 -40t-4.5 -44.5t3.5 -46q8 -26 24 -50.5t45 -30.5q7 -21 7 -42t7 -41q2 4 2 8.5v9t1.5 7.5t6.5 5q16 -2 35 2t35 -2q11 2 18 2.5t13 1t13 1.5t18 5q12 9 16.5 22t-1.5 27q-8 12 -18 17t-21.5 6.5t-23.5 1.5h-23q-8 53 0 108l3 3
q25 -1 45.5 -1t41 1t41.5 1.5t47 -0.5q5 -25 3.5 -52.5t-2.5 -51.5l-34 -1l-4 -7q20 -11 33 -30t12 -43zM367 239q-3 0 -7.5 1.5t-7.5 -3.5q5 -1 8 0t7 2zM330 248q-2 2 -3 1.5t-3 0.5q-2 -2 -4 -2.5t0 -3.5q1 0 1.5 -0.5t1.5 -0.5z" />
    <glyph glyph-name="R.alt" horiz-adv-x="518" 
d="M490 296q-5 -2 -10.5 -1t-10.5 -2v3h21zM544 67q-15 13 -25.5 29t-19 33t-15.5 35t-15 35q-7 20 -14.5 42.5t3.5 45.5q11 -56 35.5 -109t50.5 -105v-6zM563 33q-2 -2 -2 -1q-3 2 -2 4t3 3q-1 -2 0.5 -3t0.5 -3zM546 29q-10 -11 -22.5 -11.5t-25.5 0.5t-24.5 -0.5
t-20.5 -13.5q-12 -8 -24 -8.5t-24 0.5t-23.5 0.5t-22.5 -9.5q-11 -6 -22.5 -11.5t-24.5 -2.5q10 25 8.5 49.5t-8 49t-16 48.5t-14.5 48q-11 24 -17.5 49t-18.5 48l4.5 9t-4.5 7q-10 -1 -21.5 0.5t-19.5 -4.5q2 -3 2 -7.5v-9.5q-6 -1 -12.5 -1.5t-11.5 -3.5l-1 -32h-13
q4 -45 5.5 -90t5.5 -90q-2 -8 1 -21t-4 -19q-23 -2 -48 -2.5t-48 -4.5q-6 12 -6 24t-2 23q-2 45 -6.5 92t-3.5 92q4 0 4 2l-7 4q0 78 -3 150t-3 149l3 6q67 4 129 3.5t128 -2.5q31 -5 60 -24t42 -49q11 -21 10 -43.5t-7 -45.5l2 -5q-5 -2 -13 -0.5t-14 -3.5q10 -20 20.5 -39
t18.5 -39q-6 -9 -7.5 -22.5t2.5 -24.5q21 -54 44.5 -105.5t61.5 -98.5q3 -2 7 -4.5t5 -5.5zM299 410q-2 7 -8 13t-12 9q-22 7 -45 4t-46 -1q-5 -3 -6.5 -9.5t-1.5 -14t0.5 -15t-0.5 -13.5q0 -12 6 -18.5t8 -17.5l82 2q2 2 5.5 3t1.5 6q-1 6 -6 8.5t-10 2.5q6 2 12.5 2.5
t12.5 2.5q9 6 7.5 17t-0.5 19zM255 199l-3 15l5 -9z" />
    <glyph glyph-name="T.alt" horiz-adv-x="463" 
d="M460 444q-1 -17 0 -33.5t-9 -28.5q-26 1 -53.5 1t-54.5 1q-2 10 -2 20t1 20t0.5 19.5t-4.5 18.5l-80 -1l-2 -3q0 -29 -0.5 -59t-0.5 -56l3 -3l53 -1l-68 -5q-2 -35 0.5 -65.5t7.5 -65.5q-4 -5 -11 -5.5t-11 -5.5q7 -46 16 -93t11 -95q-32 -7 -62.5 -12.5t-62.5 -11.5
l-4 4q-8 45 -15.5 88.5t-15.5 88.5q7 2 13.5 4.5t12.5 7.5q-3 60 -6 121.5t-7 124.5l-4 4l-91 -6l-8 8l-6 102q7 7 14.5 8t16 0.5t17 -1.5t17.5 2q36 5 68.5 4t70.5 0q60 2 123.5 -1.5t127.5 0.5q6 -7 7 -16t0.5 -18.5t-2 -20.5t-0.5 -21q-3 -5 -2.5 -9.5t2.5 -9.5z" />
    <glyph glyph-name="B.alt" horiz-adv-x="407" 
d="M385 133q2 -14 -0.5 -28.5t-11.5 -27.5q-3 -11 -11.5 -15.5t-16.5 -11.5q-11 -5 -22 -6.5t-25 -3.5q-17 -5 -32.5 0.5t-29.5 11.5q-5 5 -10 8t-11 6q-5 -8 -3.5 -17t1.5 -18q-29 -3 -54 -6.5t-54 -5.5l-6 5q-2 26 -6 51.5t-5 51.5q-1 12 -2 23t-3 22q-5 8 -2 18t-2 17
q-7 -1 -14.5 0t-12.5 -4v-12l-19 -2q1 97 -1.5 184t-0.5 180q58 7 114 3t115 -1l42 -2q17 -5 35.5 -12.5t26.5 -26.5q8 -10 11.5 -21.5t8.5 -22.5q1 -17 2 -35.5t-2 -36t-11.5 -32t-26.5 -23.5q-26 -17 -60 -17q-2 -2 -4.5 -3.5t-0.5 -5.5q11 -4 23 -4t23 -2q17 -4 32.5 -16
t20.5 -29q5 -10 5 -27q-10 -2 -13 -5q5 -5 5 -13.5t2 -15.5q4 -14 2.5 -28t3.5 -27l-3 -2q5 -4 3 -7t0 -8zM269 427q-1 3 -4 5.5t0 6.5q-2 6 -5.5 12.5t-10.5 8.5q-27 2 -51 0.5t-53 1.5l-3 -1q2 -22 2.5 -43.5t-1.5 -44.5q0 -5 -1 -10.5t5 -9.5q22 -4 47 -1t47 8
q5 2 7.5 6.5t8.5 5.5q11 12 10.5 25.5t1.5 29.5zM266 222q4 3 0.5 8t-4.5 10q-11 8 -22 14t-24 5q-8 4 -16.5 0.5t-16.5 1.5q-19 -2 -38 -6v-44q11 -1 23.5 1.5t24.5 -0.5q3 -13 4 -26t2.5 -26.5t5.5 -26t14 -24.5q8 -5 18.5 -3.5t18.5 6.5q2 5 4 10.5t3 10.5q1 22 -4 42
t-7 41q1 4 5.5 5t8.5 1zM129 208q-1 2 -4 2v-2h4z" />
    <glyph glyph-name="W.alt" horiz-adv-x="716" 
d="M704 540q4 -9 -2 -16t-11 -15q-13 -47 -24 -94t-22 -95q0 -12 -1.5 -23.5t-2.5 -23t1 -22.5t8 -21q-13 -12 -19 -27t-9 -31t-6 -32.5t-9 -31.5q-2 -20 -7 -38.5t-10 -38.5l-7 -6q-35 -5 -68 -12.5t-66 -11.5q-35 57 -77 110.5t-75 111.5q4 5 -0.5 11t-6.5 11
q-10 4 -16.5 -6t-13.5 -16q0 -7 -4.5 -12t-9.5 -9l-1 1q-1 -12 -6.5 -23.5t-12.5 -22.5t-14.5 -21.5t-12.5 -22.5q-9 -9 -15.5 -24t-14.5 -28t-19.5 -19t-30.5 2q-21 1 -44 -0.5t-45 3.5q0 120 2.5 239.5t6.5 241.5l13 2l113 -2l3 -3q1 -66 -0.5 -126t-3.5 -122q6 3 7 9.5
t3 12.5q12 19 24.5 37.5t21.5 38.5l6 -7q2 2 2 7.5v10.5h5q2 -13 2.5 -23.5t0.5 -25.5q-3 -1 -7 3l-3 -3q6 -11 5.5 -23.5t4.5 -23.5h2q12 7 19 19t13.5 23t16 17.5t26.5 2.5q10 -2 23.5 1t24.5 -2q19 -30 40 -60.5t25 -67.5q20 -24 37 -51.5t40 -49.5q5 3 6.5 8.5t2 10.5
t2 9.5t7.5 5.5q0 14 3 30.5t5 30.5q6 17 8.5 37t3.5 37q8 50 11 100.5t1 95.5q-2 10 -7.5 18t-7.5 18q6 3 12.5 2.5t13.5 -2t13.5 -2t12.5 1.5q10 10 22.5 9.5t24.5 -3.5t23.5 -3t20.5 11q6 1 11 2.5t12 0.5zM402 225q-2 2 -3.5 1.5t-3.5 -0.5q0 -3 7 -3v2zM243 221
q0 2 -0.5 3.5t-0.5 3.5q-3 -3 -1 -5zM532 -7q-2 -1 -4 1t0 4h4v-5z" />
    <glyph glyph-name="l.alt" horiz-adv-x="224" 
d="M197 57q-4 -16 -2 -34.5t-5 -35.5q-21 3 -45.5 3.5t-47 5t-40.5 16t-25 37.5q-5 45 2 89.5t12 91.5q-1 27 3.5 50t5.5 51l5 36q-3 3 -8 3.5t-9.5 1t-7.5 2.5t-1 8q-2 41 0.5 80.5t0.5 77.5q2 6 2 13t8 9q35 2 72 -5q3 4 6 3t7 -3q4 -3 12 -1t15 3.5t12.5 -0.5t5.5 -14
q-4 -24 -4.5 -48t0.5 -48t1 -48.5t-2 -48.5q-3 -11 -4.5 -26t-4.5 -29q2 -16 -2 -30.5t-1 -31.5l-3 -3q-3 -20 -2.5 -38.5t-7.5 -36.5q4 -8 1.5 -16.5t-2.5 -18.5q-1 -9 0 -16t3 -17q4 -8 14 -9.5t19.5 -2t15 -4t1.5 -16.5z" />
    <glyph glyph-name="E.alt" horiz-adv-x="452" 
d="M430 18q-95 -8 -185.5 -15.5t-189.5 -7.5h-49l-4 4q2 11 -1 25.5t2 23.5q6 2 13 2h14.5t15 0.5t12.5 4.5l-2 58l9 7q-8 12 -3.5 25t3.5 27q1 35 5.5 70.5t9.5 70.5q-25 20 -38 47.5t-11 61.5q5 32 18 59.5t38 46.5q46 28 97 29t100 -16q13 -8 27 -11l5 13q22 1 43.5 -0.5
t40.5 -4.5l3 -5q2 -31 -1 -61.5t-3 -62.5l-3 -3q-14 1 -28.5 0t-28 1t-25 9t-20.5 25q-13 9 -29 16.5t-32.5 10t-33.5 -0.5t-31 -14q-8 -5 -10.5 -14t-5.5 -17q-2 -16 9 -26.5t22 -17.5q4 1 7 -3t8 -2q16 -7 33 -11t35 -7.5t35 -8t33 -11.5q20 -9 40.5 -20.5t31.5 -33.5h-70
l-3 34q-7 2 -16 3t-15 -6q1 -23 -3 -45.5t-7 -42.5l-5 -6l-35 4q-2 -5 -3.5 -5t-3.5 1.5l-4 3t-3 -0.5q-4 -4 -8.5 -5.5l-9 -3t-8.5 -4.5t-7 -9q-12 -8 -13.5 -20t-3.5 -25q-3 -5 -9.5 -6t-12.5 -1.5t-9 -4t3 -14.5q-2 -16 0.5 -31t-0.5 -29q3 -8 8.5 -10.5t12 -2t13 2
t11.5 0.5q33 2 64 4.5t63 5.5q6 7 4 18t0 22l3 4q21 -2 42 1.5t44 3.5q4 -5 2.5 -13t1.5 -13q-3 -17 1 -37t0 -36z" />
    <glyph glyph-name="F.alt" horiz-adv-x="310" 
d="M310 448q-5 -2 -3.5 -7t-5.5 -6q-29 -1 -60.5 -1.5t-57.5 -8.5q-5 -3 -3 -7.5t0 -8.5q-2 -23 -2 -47.5t4 -48.5l6 -7q23 1 48.5 2.5t48.5 1.5q11 -5 11.5 -16.5t0.5 -21.5q-11 -4 -23 -1t-24 2h-3l-2 -60q-20 -5 -41.5 -2.5t-44.5 0.5l-2 -4q1 -36 -1 -67.5t-4 -66.5
q4 -5 12.5 -4.5t16.5 0t12 -4t-2 -16.5q0 -14 1 -27t-5 -26q-50 1 -94.5 1.5t-91.5 1.5q-1 18 0.5 36.5t1.5 36.5q4 1 8.5 1t8.5 -0.5t7.5 0t6.5 4.5q-2 35 1 67.5t2 67.5l3 2q-2 19 -2.5 39t3.5 36q-2 33 -2.5 64.5t-0.5 63v64t-1 67.5q3 8 10 6.5t14 -1.5l76 4
q3 -1 6 -3.5t5 2.5q23 1 43.5 1.5t38.5 0.5q20 -1 38 -0.5t36 -1.5q4 -13 5 -26.5t0.5 -27l-1 -27t1.5 -26.5z" />
    </font>
</defs>
</svg>
